<svg width="144" height="175" viewBox="0 0 144 175" fill="none" xmlns="http://www.w3.org/2000/svg">
    <g opacity="0.25" filter="url(#filter0_f)">
        <rect x="16" y="28" width="112" height="130.162" rx="12" fill="#7E85C5"/>
    </g>
    <rect x="2" width="140" height="140" rx="12" fill="#575EA4"/>
    <path d="M47.0625 87.7188H68.3906V91.9844H47.0625V87.7188Z" fill="white"/>
    <path d="M47.0625 74.9219H68.3906V79.1875H47.0625V74.9219Z" fill="white"/>
    <path d="M93.9844 66.3906H51.3281C50.1968 66.3906 49.1118 65.9412 48.3119 65.1413C47.5119 64.3413 47.0625 63.2563 47.0625 62.125V49.3281C47.0625 48.1968 47.5119 47.1118 48.3119 46.3119C49.1118 45.5119 50.1968 45.0625 51.3281 45.0625H93.9844C95.1157 45.0625 96.2007 45.5119 97.0006 46.3119C97.8006 47.1118 98.25 48.1968 98.25 49.3281V62.125C98.25 63.2563 97.8006 64.3413 97.0006 65.1413C96.2007 65.9412 95.1157 66.3906 93.9844 66.3906ZM51.3281 49.3281V62.125H93.9844V49.3281H51.3281Z" fill="white"/>
    <path d="M93.9844 96.25H81.1875C80.0562 96.25 78.9712 95.8006 78.1712 95.0006C77.3713 94.2007 76.9219 93.1157 76.9219 91.9844V79.1875C76.9219 78.0562 77.3713 76.9712 78.1712 76.1712C78.9712 75.3713 80.0562 74.9219 81.1875 74.9219H93.9844C95.1157 74.9219 96.2007 75.3713 97.0006 76.1712C97.8006 76.9712 98.25 78.0562 98.25 79.1875V91.9844C98.25 93.1157 97.8006 94.2007 97.0006 95.0006C96.2007 95.8006 95.1157 96.25 93.9844 96.25ZM81.1875 79.1875V91.9844H93.9844V79.1875H81.1875Z" fill="white"/>
    <defs>
        <filter id="filter0_f" x="0" y="12" width="144" height="162.162" filterUnits="userSpaceOnUse" color-interpolation-filters="sRGB">
            <feFlood flood-opacity="0" result="BackgroundImageFix"/>
            <feBlend mode="normal" in="SourceGraphic" in2="BackgroundImageFix" result="shape"/>
            <feGaussianBlur stdDeviation="8" result="effect1_foregroundBlur"/>
        </filter>
    </defs>
</svg>
