<svg width="144" height="175" viewBox="0 0 144 175" fill="none" xmlns="http://www.w3.org/2000/svg">
    <g opacity="0.25" filter="url(#filter0_f)">
        <rect x="16.001" y="28" width="112" height="130.162" rx="12" fill="#7E85C5"/>
    </g>
    <rect x="2.00098" width="140" height="140" rx="12" fill="#575EA4"/>
    <path fill-rule="evenodd" clip-rule="evenodd" d="M93.2794 56.3224V88.2369C93.2794 89.4461 92.7991 90.6058 91.944 91.4608C91.089 92.3158 89.9294 92.7962 88.7202 92.7962H61.3649C60.1557 92.7962 58.996 92.3158 58.141 91.4608C57.286 90.6058 56.8057 89.4461 56.8057 88.2369V45.6842C56.8057 44.475 57.286 43.3154 58.141 42.4604C58.996 41.6053 60.1557 41.125 61.3649 41.125H78.082L93.2794 56.3224ZM78.082 57.8421C77.679 57.8421 77.2924 57.682 77.0074 57.397C76.7224 57.112 76.5623 56.7255 76.5623 56.3224V44.1645H61.3649C60.9618 44.1645 60.5753 44.3246 60.2903 44.6096C60.0053 44.8946 59.8451 45.2812 59.8451 45.6842V88.2369C59.8451 88.64 60.0053 89.0265 60.2903 89.3116C60.5753 89.5966 60.9618 89.7567 61.3649 89.7567H88.7202C89.1233 89.7567 89.5098 89.5966 89.7948 89.3116C90.0798 89.0265 90.2399 88.64 90.2399 88.2369V57.8421H78.082ZM79.6018 46.9426L87.4619 54.8027H79.6018V46.9426Z" fill="white"/>
    <path d="M53.7651 50.2434V91.2764C53.7651 92.4856 54.2454 93.6452 55.1004 94.5002C55.9554 95.3553 57.1151 95.8356 58.3243 95.8356H87.1993V98.8751H58.3243C56.309 98.8751 54.3762 98.0745 52.9512 96.6495C51.5262 95.2244 50.7256 93.2917 50.7256 91.2764V50.2434H53.7651Z" fill="white"/>
    <defs>
        <filter id="filter0_f" x="0.000976562" y="12" width="144" height="162.162" filterUnits="userSpaceOnUse" color-interpolation-filters="sRGB">
            <feFlood flood-opacity="0" result="BackgroundImageFix"/>
            <feBlend mode="normal" in="SourceGraphic" in2="BackgroundImageFix" result="shape"/>
            <feGaussianBlur stdDeviation="8" result="effect1_foregroundBlur"/>
        </filter>
    </defs>
</svg>
