<svg width="144" height="175" viewBox="0 0 144 175" fill="none" xmlns="http://www.w3.org/2000/svg">
    <g opacity="0.25" filter="url(#filter0_f)">
        <rect x="16" y="28" width="112" height="130.162" rx="12" fill="#7E85C5"/>
    </g>
    <rect x="2" width="140" height="140" rx="12" fill="#575EA4"/>
    <path fill-rule="evenodd" clip-rule="evenodd" d="M46.058 42.875C42.9885 42.875 40.5 45.395 40.5 48.4995V82.25C40.5 85.3563 42.9885 87.8745 46.058 87.8745H64.5887V91.6248H57.1758V95.375H86.8242V91.6248H79.4113V87.8745H97.942C101.012 87.8745 103.5 85.3563 103.5 82.25V48.4995C103.5 45.395 101.012 42.875 97.942 42.875H46.058ZM68.2935 91.6248H75.7065V87.8745H68.2935V91.6248ZM44.2065 48.4995C44.2065 47.4653 45.036 46.6252 46.058 46.6252H97.942C98.964 46.6252 99.7935 47.4653 99.7935 48.4995V82.25C99.7935 83.286 98.964 84.1243 97.942 84.1243H46.058C45.036 84.1243 44.2065 83.2843 44.2065 82.25V48.4995ZM57.1758 50.3755H53.471V54.1258H49.7645V57.8742H53.471V61.6245H57.1758V57.8742H60.8822V54.1275H57.1758V50.3773V50.3755ZM51.6177 65.3748C50.594 65.3748 49.7628 66.2148 49.7628 67.2508V74.7495C49.7628 75.7855 50.594 76.6255 51.6177 76.6255H59.029C60.0527 76.6255 60.8822 75.7855 60.8822 74.7495V67.2525C60.8822 66.2165 60.0527 65.3765 59.029 65.3765H51.6177V65.3748ZM53.471 72.8753V69.125H57.1758V72.8753H53.471ZM66.442 52.2498C66.442 51.2138 67.2715 50.3755 68.2952 50.3755H75.7065C76.7303 50.3755 77.5597 51.2155 77.5597 52.2498V59.7502C77.5597 60.7863 76.7303 61.6245 75.7048 61.6245H68.2952C67.2715 61.6245 66.4403 60.7845 66.4403 59.7502V52.2498H66.442ZM70.1467 54.1258V57.8742H73.8532V54.1275H70.1467V54.1258ZM68.2952 65.3748C67.2715 65.3748 66.4403 66.2148 66.4403 67.2508V74.7495C66.4403 75.7855 67.2715 76.6255 68.2952 76.6255H75.7065C76.7303 76.6255 77.5597 75.7855 77.5597 74.7495V67.2525C77.5597 66.2165 76.7303 65.3765 75.7048 65.3765H68.2952V65.3748ZM70.1467 72.8753V69.125H73.8532V72.8753H70.1467ZM83.1178 52.2498C83.1178 51.2138 83.9473 50.3755 84.971 50.3755H92.3822C93.406 50.3755 94.2355 51.2155 94.2355 52.2498V59.7502C94.2355 60.7863 93.406 61.6245 92.3822 61.6245H84.971C83.9473 61.6245 83.1178 60.7845 83.1178 59.7502V52.2498ZM86.8242 54.1258V57.8742H90.529V54.1275H86.8242V54.1258Z" fill="white"/>
    <defs>
        <filter id="filter0_f" x="0" y="12" width="144" height="162.162" filterUnits="userSpaceOnUse" color-interpolation-filters="sRGB">
            <feFlood flood-opacity="0" result="BackgroundImageFix"/>
            <feBlend mode="normal" in="SourceGraphic" in2="BackgroundImageFix" result="shape"/>
            <feGaussianBlur stdDeviation="8" result="effect1_foregroundBlur"/>
        </filter>
    </defs>
</svg>
