<svg width="32" height="32" viewBox="0 0 32 32" fill="none" xmlns="http://www.w3.org/2000/svg">
<path d="M27.5551 24.1689C27.4758 24.0048 27.3481 23.869 27.1891 23.78C27.0301 23.691 26.8475 23.653 26.6662 23.6711H25.9107C23.6988 23.6108 21.5728 22.8021 19.88 21.3771C18.1873 19.9521 17.0279 17.9951 16.5914 15.8259C16.1549 13.6567 16.467 11.4036 17.4768 9.43477C18.4866 7.46594 20.1343 5.89781 22.1507 4.98665C22.323 4.91432 22.4682 4.78949 22.5656 4.62991C22.6629 4.47033 22.7075 4.28412 22.6929 4.09777C22.6868 3.91861 22.6266 3.74549 22.5203 3.60113C22.414 3.45678 22.2666 3.34793 22.0973 3.28888C20.6719 2.77538 19.168 2.5137 17.6529 2.51554C14.0884 2.51554 10.6699 3.93154 8.14938 6.45203C5.62889 8.97252 4.21289 12.391 4.21289 15.9555C4.21289 19.5201 5.62889 22.9386 8.14938 25.4591C10.6699 27.9795 14.0884 29.3955 17.6529 29.3955C19.4911 29.4066 21.3112 29.0318 22.9955 28.2953C24.6797 27.5588 26.1907 26.4771 27.4307 25.12C27.5402 24.99 27.6101 24.8312 27.6322 24.6627C27.6543 24.4941 27.6275 24.3227 27.5551 24.1689ZM17.6796 27.6622C14.5865 27.6622 11.6202 26.4335 9.43312 24.2464C7.24603 22.0593 6.01734 19.093 6.01734 16C6.01734 12.907 7.24603 9.94064 9.43312 7.75355C11.6202 5.56646 14.5865 4.33777 17.6796 4.33777C18.2751 4.33466 18.8699 4.38224 19.4573 4.47999C17.5533 5.81403 16.0959 7.69139 15.2756 9.86677C14.4553 12.0422 14.3102 14.4144 14.8594 16.6735C15.4086 18.9326 16.6264 20.9735 18.3538 22.5296C20.0812 24.0856 22.2378 25.0845 24.5418 25.3955C22.563 26.8797 20.153 27.6757 17.6796 27.6622Z" fill="#575EA4"/>
</svg>
