<svg width="48" height="48" viewBox="0 0 48 48" fill="none" xmlns="http://www.w3.org/2000/svg">
<path fill-rule="evenodd" clip-rule="evenodd" d="M18.105 15.75V16.38V30.975C18.105 31.725 17.505 32.325 16.755 32.325H16.665C15.915 32.325 15.315 31.725 15.315 30.975C15.315 24.675 15.315 22.74 15.315 16.17C15.315 12.945 12.33 9.92998 9.06 9.92998C5.82 9.92998 2.805 12.93 2.805 16.125C2.805 21.975 2.805 25.215 2.805 30.96C2.805 31.71 2.205 32.31 1.455 32.31H1.35C0.6 32.31 0 31.71 0 30.96V16.35V15.72C0 11.025 4.335 6.79498 9.06 6.79498C13.77 6.79498 18.105 11.055 18.105 15.75Z" fill="#EBECEC"/>
<path fill-rule="evenodd" clip-rule="evenodd" d="M27.1641 29.385H21.4041C20.8941 29.385 20.4591 29.805 20.4591 30.33V30.39C20.4591 30.9 20.8791 31.335 21.4041 31.335H27.3891C27.4191 31.335 27.4641 31.335 27.4941 31.35C28.0641 31.35 28.5291 32.025 28.5291 32.88C28.5291 33.72 27.8391 34.2 27.5541 34.215C25.9491 34.335 23.9241 34.335 22.2891 34.41C22.2591 34.41 22.2141 34.41 22.1991 34.425H22.1691C20.5341 34.425 19.2441 35.79 19.2441 37.71C19.2441 39.63 20.5791 41.19 22.2141 41.19C22.3041 41.19 22.3941 41.19 22.4991 41.175H28.9641C29.4741 41.175 29.9091 40.755 29.9091 40.23V40.17C29.9091 39.66 29.4891 39.225 28.9641 39.225H22.2891C22.2591 39.225 22.2141 39.225 22.1841 39.21C21.6141 39.21 21.1491 38.535 21.1491 37.68C21.1491 36.84 21.8391 36.36 22.1241 36.345C23.7291 36.225 26.0241 36.225 27.6591 36.15C29.2191 36.075 30.4341 34.725 30.4341 32.865C30.4341 30.945 29.0991 29.385 27.4641 29.385C27.3441 29.37 27.2541 29.37 27.1641 29.385Z" fill="#00A0E3"/>
<path fill-rule="evenodd" clip-rule="evenodd" d="M48.0009 15.7499C48.0009 18.6749 48.0009 21.5849 48.0009 24.5099C48.0009 29.2049 43.6659 33.4349 38.9409 33.4349C34.2159 33.4349 29.8809 29.1899 29.8809 24.5099C29.8809 21.5849 29.8809 18.6749 29.8809 15.7499C29.8809 11.0549 34.2159 6.82486 38.9409 6.82486C43.6659 6.79486 48.0009 11.0549 48.0009 15.7499ZM45.2109 16.1399C45.2109 8.03986 32.6859 8.08486 32.6859 16.1099C32.6859 18.7949 32.6859 21.4649 32.6859 24.1499C32.6859 32.1749 45.2109 32.2049 45.2109 24.1199C45.2109 21.4349 45.2109 18.7799 45.2109 16.1399Z" fill="#EBECEC"/>
<path fill-rule="evenodd" clip-rule="evenodd" d="M37.8747 16.995V21.45C37.8747 22.005 38.3247 22.44 38.8647 22.44H38.9397C39.4947 22.44 39.9297 21.99 39.9297 21.45V16.95L40.6047 17.64C40.9047 17.955 41.3997 17.955 41.7297 17.655L41.7597 17.625C42.0747 17.325 42.0747 16.83 41.7747 16.5L39.5697 14.235C39.4497 14.055 39.2097 13.95 38.9547 13.95H38.8947C38.6397 13.95 38.4147 14.07 38.2647 14.265L36.0747 16.485C35.7747 16.8 35.7747 17.31 36.0897 17.61L36.1197 17.64C36.4347 17.94 36.9447 17.94 37.2447 17.625L37.8747 16.995ZM38.4147 27.765C38.4897 27.765 38.5347 27.825 38.5347 27.885C38.5347 27.96 38.4747 28.005 38.4147 28.005C38.3397 28.005 38.2947 27.945 38.2947 27.885C38.2797 27.825 38.3397 27.765 38.4147 27.765ZM39.4047 26.7C39.5247 26.7 39.6147 26.79 39.6147 26.91C39.6147 27.03 39.5247 27.12 39.4047 27.12C39.2847 27.12 39.1947 27.03 39.1947 26.91C39.1947 26.79 39.2997 26.7 39.4047 26.7ZM38.4297 25.56C38.6097 25.56 38.7447 25.695 38.7447 25.875C38.7447 26.055 38.6097 26.19 38.4297 26.19C38.2497 26.19 38.1147 26.055 38.1147 25.875C38.1147 25.695 38.2497 25.56 38.4297 25.56ZM39.4647 24.6C39.6447 24.6 39.7797 24.735 39.7797 24.915C39.7797 25.095 39.6447 25.23 39.4647 25.23C39.2847 25.23 39.1497 25.095 39.1497 24.915C39.1347 24.75 39.2847 24.6 39.4647 24.6ZM38.4447 23.625C38.6247 23.625 38.7597 23.76 38.7597 23.94C38.7597 24.12 38.6247 24.255 38.4447 24.255C38.2647 24.255 38.1297 24.12 38.1297 23.94C38.1297 23.775 38.2647 23.625 38.4447 23.625ZM39.4797 22.485C39.6897 22.485 39.8547 22.65 39.8547 22.86C39.8547 23.07 39.6897 23.235 39.4797 23.235C39.2697 23.235 39.1047 23.07 39.1047 22.86C39.1047 22.65 39.2697 22.485 39.4797 22.485ZM38.4297 22.575C38.6397 22.575 38.8047 22.74 38.8047 22.95C38.8047 23.16 38.6397 23.325 38.4297 23.325C38.2197 23.325 38.0547 23.16 38.0547 22.95C38.0547 22.74 38.2197 22.575 38.4297 22.575ZM38.9547 18.675C39.1347 18.675 39.2547 18.81 39.2547 18.975C39.2547 19.155 39.1197 19.275 38.9547 19.275C38.7897 19.275 38.6547 19.14 38.6547 18.975C38.6397 18.825 38.7897 18.675 38.9547 18.675ZM38.9547 17.745C39.0597 17.745 39.1497 17.835 39.1497 17.94C39.1497 18.045 39.0597 18.135 38.9547 18.135C38.8497 18.135 38.7597 18.045 38.7597 17.94C38.7447 17.82 38.8497 17.745 38.9547 17.745ZM38.9547 16.83C39.0297 16.83 39.0747 16.89 39.0747 16.95C39.0747 17.01 39.0147 17.07 38.9547 17.07C38.8797 17.07 38.8347 17.01 38.8347 16.95C38.8197 16.89 38.8947 16.83 38.9547 16.83ZM38.9547 20.55C39.1647 20.55 39.3447 20.73 39.3447 20.94C39.3447 21.15 39.1647 21.33 38.9547 21.33C38.7447 21.33 38.5647 21.15 38.5647 20.94C38.5647 20.73 38.7297 20.55 38.9547 20.55ZM38.9547 21.6C39.1647 21.6 39.3447 21.78 39.3447 21.99C39.3447 22.2 39.1647 22.38 38.9547 22.38C38.7447 22.38 38.5647 22.2 38.5647 21.99C38.5647 21.78 38.7297 21.6 38.9547 21.6Z" fill="#00A0E3"/>
</svg>
