<svg width="400" height="400" viewBox="0 0 400 400" fill="none" xmlns="http://www.w3.org/2000/svg">
<path d="M124.322 59.2873C113.998 74.0669 126.103 98.028 110.784 109.144C95.8716 119.963 77.5535 102.229 63.505 111.542C42.6511 125.359 46.4592 188.58 76.939 227.861C86.1034 239.673 93.7649 244.271 97.1568 257.63C104.441 286.318 78.842 303.382 83.7131 317.571C94.6824 349.518 263.38 376.325 331.068 280.314C362.681 235.473 367.412 170.722 339.167 121.543C288.127 32.6782 147.488 26.1251 124.322 59.2873Z" fill="#252A44"/>
<path d="M147.069 210.529L142.161 210.488C141.774 208.29 141.194 206.129 140.429 204.032L144.685 201.62C144.962 201.463 145.204 201.252 145.399 201C145.594 200.749 145.736 200.461 145.819 200.154C145.902 199.846 145.923 199.526 145.881 199.21C145.839 198.895 145.735 198.591 145.575 198.316L141.378 191.007C141.057 190.446 140.529 190.033 139.906 189.859C139.284 189.684 138.618 189.762 138.052 190.075L133.74 192.503C132.301 190.786 130.718 189.194 129.009 187.745L131.51 183.465C131.833 182.903 131.921 182.236 131.753 181.609C131.585 180.983 131.176 180.448 130.615 180.123L123.293 175.803C123.018 175.637 122.713 175.528 122.396 175.481C122.078 175.433 121.755 175.449 121.443 175.527C121.132 175.605 120.839 175.744 120.581 175.935C120.324 176.127 120.106 176.367 119.941 176.643L117.424 180.936C115.315 180.148 113.141 179.544 110.928 179.13V174.101C110.923 173.447 110.662 172.82 110.201 172.356C109.74 171.891 109.116 171.625 108.461 171.615L99.9209 171.471C99.5988 171.462 99.2782 171.518 98.978 171.635C98.6778 171.753 98.4042 171.929 98.1731 172.153C97.942 172.378 97.7582 172.647 97.6325 172.943C97.5068 173.24 97.4417 173.559 97.4411 173.881V178.925C95.2138 179.272 93.0211 179.813 90.888 180.542L88.3371 176.144C88.0057 175.574 87.4648 175.155 86.8294 174.977C86.194 174.798 85.5142 174.875 84.9344 175.19L77.4638 179.324C77.1799 179.48 76.9303 179.692 76.7298 179.946C76.5293 180.2 76.382 180.493 76.2966 180.805C76.2112 181.117 76.1895 181.444 76.2327 181.765C76.276 182.086 76.3833 182.395 76.5484 182.674L79.108 187.074C77.3562 188.492 75.7327 190.063 74.2562 191.766L69.8206 189.192C69.2502 188.856 68.5704 188.759 67.9284 188.92C67.2863 189.081 66.7336 189.489 66.3899 190.055L62.0449 197.386C61.8805 197.669 61.7739 197.981 61.7314 198.304C61.6888 198.628 61.711 198.957 61.7968 199.272C61.8826 199.587 62.0302 199.882 62.2311 200.139C62.432 200.396 62.682 200.611 62.9667 200.771L67.37 203.311C66.5792 205.43 65.9802 207.616 65.5802 209.843L60.4945 209.799C60.1677 209.794 59.843 209.853 59.5391 209.973C59.2352 210.094 58.9581 210.273 58.7237 210.501C58.4893 210.729 58.3023 211.001 58.1734 211.301C58.0445 211.601 57.9763 211.924 57.9727 212.251V220.792C57.9778 221.459 58.247 222.096 58.7212 222.563C59.1954 223.031 59.8358 223.292 60.502 223.288L65.5468 223.316C65.937 225.562 66.5277 227.769 67.3117 229.909L62.9743 232.345C62.6893 232.503 62.4387 232.716 62.2374 232.972C62.0361 233.228 61.8881 233.522 61.8022 233.836C61.7163 234.15 61.6942 234.479 61.7371 234.802C61.7801 235.125 61.8873 235.436 62.0524 235.716L66.3975 243.112C66.7375 243.681 67.2868 244.095 67.928 244.264C68.5692 244.434 69.2512 244.345 69.8282 244.018L74.1333 241.581C75.6191 243.331 77.2551 244.948 79.0228 246.413L76.5516 250.631C76.3875 250.911 76.2809 251.221 76.2381 251.543C76.1953 251.865 76.2171 252.192 76.3024 252.505C76.3876 252.818 76.5345 253.111 76.7345 253.367C76.9345 253.623 77.1835 253.836 77.467 253.995L84.9376 258.231C85.5105 258.556 86.188 258.643 86.8243 258.473C87.4607 258.303 88.0051 257.891 88.3403 257.324L90.7835 253.146C92.9487 253.922 95.178 254.505 97.4454 254.891V259.713C97.447 260.037 97.5125 260.357 97.6381 260.655C97.7637 260.953 97.947 261.224 98.1774 261.451C98.4078 261.678 98.6808 261.857 98.9808 261.978C99.2807 262.1 99.6017 262.161 99.9252 262.157L108.465 262.133C109.117 262.133 109.743 261.875 110.205 261.415C110.667 260.956 110.929 260.332 110.932 259.68V254.871C113.18 254.483 115.39 253.896 117.535 253.119L119.946 257.264C120.274 257.824 120.811 258.231 121.439 258.397C122.067 258.563 122.735 258.474 123.298 258.149L130.62 253.931C130.897 253.772 131.141 253.559 131.336 253.306C131.531 253.052 131.674 252.763 131.758 252.454C131.841 252.145 131.862 251.822 131.82 251.505C131.779 251.188 131.675 250.882 131.514 250.605L129.097 246.437C130.825 244.991 132.422 243.396 133.871 241.671L138.057 244.085C138.615 244.408 139.279 244.496 139.902 244.33C140.526 244.164 141.058 243.758 141.382 243.2L145.579 235.948C145.901 235.39 145.988 234.728 145.821 234.106C145.654 233.484 145.247 232.954 144.69 232.632L140.497 230.198C141.257 228.097 141.828 225.932 142.205 223.729L147.074 223.756C147.391 223.758 147.706 223.697 148.001 223.577C148.295 223.457 148.562 223.28 148.788 223.055C149.013 222.831 149.192 222.565 149.314 222.272C149.436 221.978 149.498 221.663 149.498 221.346V212.974C149.497 212.328 149.241 211.71 148.786 211.252C148.331 210.794 147.714 210.535 147.069 210.529ZM104.195 192.237C117.944 192.406 129.029 203.551 129.029 217.131C129.029 230.71 117.944 241.701 104.195 241.681C90.363 241.66 79.0886 230.514 79.0886 216.786C79.0886 203.058 90.363 192.064 104.195 192.237Z" fill="url(#paint0_linear)"/>
<path d="M200.887 113.854L196.446 113.734C196.093 111.783 195.568 109.868 194.877 108.01L198.73 105.961C198.979 105.83 199.199 105.649 199.375 105.43C199.552 105.211 199.681 104.958 199.757 104.687C199.832 104.415 199.851 104.132 199.813 103.853C199.775 103.574 199.68 103.306 199.535 103.065L195.736 96.5423C195.441 96.0371 194.964 95.6638 194.403 95.4989C193.842 95.3339 193.239 95.3898 192.717 95.655L188.807 97.7143C187.497 96.1658 186.061 94.7296 184.511 93.421L186.783 89.6917C187.396 88.6868 187.032 87.3607 185.971 86.7278L179.317 82.7591C178.249 82.1229 176.883 82.4227 176.267 83.4308L173.973 87.1731C172.051 86.4326 170.071 85.8534 168.052 85.4415V80.9898C168.052 79.7952 167.045 78.7871 165.802 78.7364L157.999 78.4248C156.746 78.3741 155.735 79.3068 155.735 80.5068V84.9768C153.702 85.236 151.694 85.6689 149.734 86.2706L147.396 82.3148C147.085 81.7973 146.591 81.4156 146.011 81.2454C145.432 81.0752 144.81 81.1291 144.269 81.3963L137.406 84.9078C137.147 85.0369 136.918 85.2187 136.733 85.4414C136.548 85.6641 136.412 85.9229 136.332 86.2013C136.253 86.4797 136.233 86.7715 136.273 87.0582C136.313 87.3449 136.412 87.6202 136.564 87.8663L138.918 91.8275C137.314 93.0492 135.822 94.412 134.461 95.8997L130.378 93.5278C129.27 92.8809 127.855 93.1946 127.215 94.2232L123.207 100.665C122.56 101.697 122.946 103.054 124.058 103.695L128.119 106.037C127.39 107.907 126.837 109.841 126.468 111.815L121.776 111.686C120.49 111.651 119.447 112.608 119.447 113.824V121.43C119.447 122.646 120.49 123.656 121.776 123.685L126.431 123.793C126.792 125.803 127.337 127.776 128.059 129.686L124.058 131.792C123.797 131.923 123.566 132.107 123.38 132.332C123.194 132.557 123.057 132.818 122.977 133.099C122.897 133.379 122.876 133.673 122.916 133.963C122.955 134.252 123.054 134.53 123.207 134.778L127.215 141.423C127.538 141.938 128.043 142.312 128.629 142.471C129.215 142.629 129.84 142.56 130.378 142.278L134.341 140.173C135.712 141.753 137.216 143.213 138.838 144.535L136.569 148.248C135.932 149.286 136.31 150.63 137.411 151.249L144.273 155.106C145.367 155.722 146.766 155.38 147.4 154.345L149.639 150.67C151.623 151.386 153.663 151.933 155.739 152.303V156.578C155.739 157.778 156.755 158.761 158.004 158.774L165.806 158.855C167.049 158.868 168.056 157.911 168.056 156.716V152.46C170.101 152.147 172.115 151.657 174.075 150.995L176.271 154.69C176.577 155.193 177.063 155.558 177.631 155.712C178.199 155.866 178.804 155.796 179.321 155.516L185.976 151.882C186.226 151.749 186.447 151.566 186.624 151.345C186.802 151.123 186.932 150.868 187.008 150.595C187.084 150.321 187.104 150.035 187.066 149.754C187.028 149.473 186.933 149.202 186.787 148.959L184.592 145.245C186.157 143.996 187.607 142.611 188.927 141.105L192.722 143.295C193.777 143.903 195.126 143.574 195.741 142.56L199.539 136.229C200.146 135.217 199.786 133.903 198.735 133.292L194.933 131.084C195.621 129.242 196.139 127.342 196.48 125.406L200.886 125.507C202.097 125.535 203.079 124.603 203.079 123.423V116.049C203.08 114.87 202.098 113.887 200.887 113.854ZM161.911 96.9025C174.453 97.3197 184.535 107.376 184.535 119.366C184.535 131.356 174.453 140.906 161.911 140.691C149.252 140.475 138.903 130.413 138.903 118.218C138.903 106.023 149.252 96.4809 161.911 96.9014V96.9025Z" fill="url(#paint1_linear)"/>
<path opacity="0.74" d="M161.912 52.3558C123.185 50.4302 90.9688 79.31 90.9688 116.91C90.9688 154.51 123.185 185.015 161.912 185.041C199.562 185.067 229.323 156.125 229.323 120.398C229.323 84.6706 199.562 54.2318 161.912 52.3558ZM161.912 169.177C132.546 168.984 108.269 145.781 108.269 117.347C108.269 88.9121 132.546 66.9315 161.912 68.2199C190.655 69.4803 213.511 92.6512 213.511 119.999C213.511 147.347 190.655 169.366 161.912 169.177Z" fill="white"/>
<path d="M114.865 142.007L99.9629 149.877C105.768 159.821 114.073 168.24 124.021 174.352L132.508 160.471C125.202 155.785 119.113 149.446 114.865 142.007Z" fill="url(#paint2_linear)"/>
<path d="M204.348 91.3208L218.198 84.0216C212.519 75.4847 204.9 68.1844 195.927 62.7494L187.834 75.9957C194.355 79.8863 199.982 85.1083 204.348 91.3208Z" fill="url(#paint3_linear)"/>
<path d="M118.101 88.2221C122.73 82.1692 128.674 77.2468 135.483 73.8264L127.02 59.545C117.514 64.289 109.338 71.1558 103.184 79.5526L118.101 88.2221Z" fill="url(#paint4_linear)"/>
<path d="M108.269 117.347C108.269 116.739 108.296 116.137 108.317 115.534L90.9985 115.087C90.9813 115.693 90.9727 116.3 90.9727 116.91C90.9727 127.722 93.6681 137.99 98.4476 147.129L113.413 139.242C110.037 132.436 108.277 124.944 108.269 117.347Z" fill="url(#paint5_linear)"/>
<path opacity="0.25" d="M213.511 120C213.52 127.236 211.887 134.379 208.734 140.892L222.535 148.911C227.016 140.075 229.343 130.305 229.327 120.398C229.327 119.818 229.319 119.24 229.304 118.663L213.47 118.253C213.486 118.835 213.511 119.414 213.511 120Z" fill="url(#paint6_linear)"/>
<path opacity="0.25" d="M207.379 143.516C203.4 150.594 197.654 156.608 190.689 161.034L198.776 174.691C208.123 168.88 215.826 160.902 221.154 151.501L207.379 143.516Z" fill="url(#paint7_linear)"/>
<path d="M206.021 93.8491C209.981 100.273 212.534 107.559 213.276 115.305L229.15 115.736C228.389 105.219 225.083 95.3003 219.813 86.5725L206.021 93.8491Z" fill="url(#paint8_linear)"/>
<path opacity="0.25" d="M160.345 169.129C151.531 168.831 142.918 166.419 135.23 162.098L126.768 175.95C137.057 181.658 148.582 184.771 160.345 185.021V169.129Z" fill="url(#paint9_linear)"/>
<path opacity="0.25" d="M188.078 162.578C180.854 166.587 172.482 168.955 163.479 169.149V185.023C175.468 184.776 186.604 181.594 196.167 176.229L188.078 162.578Z" fill="url(#paint10_linear)"/>
<path d="M138.296 72.5068C145.006 69.6076 152.479 68.0658 160.344 68.1941V52.2965C149.444 51.9871 139.084 54.124 129.84 58.221L138.296 72.5068Z" fill="url(#paint11_linear)"/>
<path d="M108.52 112.473C109.295 104.691 111.972 97.2184 116.315 90.7138L101.421 82.0787C95.4976 91.0127 91.9641 101.316 91.1582 112.005L108.52 112.473Z" fill="url(#paint12_linear)"/>
<path d="M163.479 68.3267C171.039 68.8645 178.408 70.9567 185.123 74.4723L193.241 61.2022C184.07 56.1732 173.918 53.1895 163.484 52.4561L163.479 68.3267Z" fill="url(#paint13_linear)"/>
<path d="M89.8953 144.301L87.7292 144.319C87.5584 143.386 87.3025 142.47 86.9648 141.583L88.843 140.525C88.9637 140.46 89.0701 140.372 89.1557 140.265C89.2412 140.157 89.3043 140.034 89.3409 139.902C89.3776 139.77 89.3872 139.632 89.369 139.496C89.3509 139.36 89.3055 139.229 89.2354 139.112L87.3832 136.031C87.2337 135.792 86.9977 135.62 86.7245 135.551C86.4513 135.482 86.1619 135.521 85.9169 135.66L84.015 136.727C83.3784 136.005 82.6804 135.34 81.9287 134.739L83.0317 132.898C83.102 132.78 83.1477 132.65 83.1659 132.514C83.1841 132.378 83.1745 132.239 83.1376 132.107C83.1007 131.975 83.0373 131.852 82.9512 131.745C82.8652 131.638 82.7583 131.55 82.6371 131.486L79.4112 129.704C79.163 129.566 78.8716 129.529 78.5971 129.601C78.3226 129.672 78.086 129.846 77.9363 130.087L76.8279 131.932C75.897 131.613 74.9409 131.374 73.9697 131.216V129.079C73.9666 128.94 73.9361 128.803 73.8799 128.675C73.8237 128.548 73.7429 128.433 73.6422 128.336C73.5414 128.24 73.4227 128.165 73.2928 128.114C73.1629 128.064 73.0243 128.04 72.885 128.043L69.133 128.051C68.8506 128.046 68.5777 128.153 68.3739 128.348C68.1701 128.544 68.0519 128.812 68.0451 129.094V131.236C67.0673 131.401 66.105 131.648 65.1686 131.975L64.0505 130.135C63.8971 129.893 63.6568 129.719 63.379 129.649C63.1013 129.579 62.8072 129.617 62.5573 129.757L59.284 131.57C59.1609 131.634 59.0523 131.723 58.9648 131.831C58.8773 131.939 58.8129 132.064 58.7753 132.198C58.7377 132.331 58.7279 132.471 58.7464 132.609C58.7649 132.747 58.8114 132.879 58.8829 132.998L60.0042 134.844C59.2397 135.458 58.5295 136.136 57.8813 136.871L55.9406 135.815C55.6875 135.676 55.3914 135.64 55.1123 135.712C54.8333 135.785 54.5924 135.961 54.4387 136.205L52.5389 139.346C52.4668 139.465 52.42 139.597 52.4012 139.735C52.3825 139.873 52.3923 140.013 52.43 140.147C52.4677 140.281 52.5325 140.405 52.6204 140.513C52.7084 140.621 52.8175 140.709 52.9411 140.773L54.8678 141.818C54.5222 142.719 54.2602 143.65 54.085 144.599L51.8608 144.618C51.5749 144.613 51.2988 144.722 51.0924 144.92C50.8859 145.117 50.7657 145.389 50.7578 145.674V149.293C50.7613 149.433 50.7927 149.572 50.8502 149.701C50.9077 149.829 50.9901 149.945 51.0927 150.041C51.1953 150.138 51.316 150.213 51.4479 150.262C51.5798 150.312 51.7201 150.334 51.8608 150.329L54.0667 150.306C54.2374 151.256 54.4958 152.187 54.8387 153.089L52.9411 154.152C52.8177 154.217 52.7089 154.307 52.6213 154.415C52.5336 154.524 52.469 154.649 52.4314 154.783C52.3937 154.917 52.3839 155.058 52.4024 155.196C52.4209 155.334 52.4673 155.467 52.5389 155.587L54.4387 158.693C54.5948 158.935 54.8378 159.107 55.1173 159.174C55.3968 159.242 55.6915 159.199 55.9406 159.056L57.8252 157.995C58.4781 158.73 59.195 159.406 59.9675 160.014L58.884 161.818C58.812 161.936 58.7651 162.068 58.7464 162.205C58.7276 162.342 58.7374 162.482 58.775 162.615C58.8126 162.748 58.8774 162.873 58.9651 162.98C59.0529 163.087 59.1618 163.175 59.285 163.238L62.5584 164.991C62.8123 165.125 63.1077 165.158 63.3848 165.082C63.662 165.007 63.9003 164.83 64.0516 164.585L65.1222 162.797C66.0749 163.114 67.0532 163.348 68.0462 163.497V165.545C68.049 165.684 68.0795 165.821 68.1359 165.948C68.1924 166.076 68.2737 166.19 68.375 166.285C68.4763 166.381 68.5957 166.455 68.726 166.503C68.8564 166.552 68.9951 166.574 69.1341 166.568L72.8861 166.507C73.1695 166.509 73.4422 166.399 73.6451 166.201C73.8481 166.003 73.9651 165.733 73.9708 165.45V163.402C74.9596 163.223 75.9313 162.96 76.8753 162.616L77.9373 164.363C78.0895 164.602 78.3282 164.772 78.6031 164.838C78.8781 164.905 79.1681 164.862 79.4123 164.719L82.6381 162.886C82.7593 162.821 82.866 162.732 82.9518 162.624C83.0377 162.517 83.1009 162.393 83.1378 162.26C83.1746 162.128 83.1843 161.989 83.1663 161.853C83.1482 161.716 83.1028 161.585 83.0328 161.466L81.9675 159.708C82.7269 159.084 83.431 158.395 84.0721 157.65L85.9179 158.65C86.1669 158.784 86.4576 158.817 86.7303 158.743C87.003 158.669 87.237 158.494 87.3842 158.252L89.2365 155.139C89.307 155.021 89.3529 154.891 89.3713 154.756C89.3896 154.62 89.3802 154.482 89.3434 154.351C89.3067 154.219 89.2435 154.096 89.1576 153.99C89.0717 153.883 88.965 153.795 88.8441 153.732L86.9939 152.723C87.3293 151.827 87.582 150.901 87.7487 149.958L89.8974 149.936C90.1773 149.938 90.4465 149.829 90.647 149.634C90.8475 149.439 90.9632 149.173 90.9691 148.893V145.328C90.9672 145.19 90.9378 145.053 90.8825 144.927C90.8273 144.8 90.7474 144.685 90.6474 144.59C90.5475 144.494 90.4295 144.419 90.3004 144.37C90.1713 144.32 90.0336 144.297 89.8953 144.301ZM71.0112 136.838C77.0565 136.805 81.9384 141.461 81.9384 147.238C81.9384 153.015 77.0565 157.761 71.0112 157.84C64.9379 157.92 59.9945 153.265 59.9945 147.442C59.9945 141.618 64.9379 136.87 71.0112 136.838Z" fill="url(#paint14_linear)"/>
<path d="M265.248 317.163C263.349 316.527 261.652 315.401 260.329 313.898C259.005 312.396 258.102 310.57 257.712 308.606L252.105 280.881L204.19 282.588L198.294 311.471C197.468 315.515 200.773 319.573 204.582 321.066L224.635 328.911C228.36 330.369 232.371 330.951 236.356 330.61L278.728 326.985C279.331 326.93 279.897 326.668 280.329 326.244C280.762 325.819 281.034 325.259 281.1 324.657C281.245 323.408 282.113 322.005 280.931 321.613L265.248 317.163Z" fill="url(#paint15_linear)"/>
<path d="M265.723 315.477C263.834 314.858 262.143 313.75 260.82 312.266C259.498 310.782 258.592 308.975 258.194 307.027L252.598 279.651L205.847 281.333L199.956 309.853C199.556 311.787 199.856 313.801 200.801 315.535C201.746 317.269 203.275 318.611 205.117 319.324L225.145 327.07C228.871 328.51 232.875 329.084 236.855 328.747L279.181 325.168C279.781 325.117 280.345 324.861 280.778 324.442C281.211 324.023 281.485 323.467 281.555 322.869C281.625 322.27 281.486 321.666 281.162 321.159C280.837 320.651 280.347 320.272 279.775 320.084L265.723 315.477Z" fill="url(#paint16_linear)"/>
<path d="M106.275 299.309C101.079 299.618 96.8281 296.247 96.8281 291.792V131.221C96.8281 126.766 101.079 123.325 106.275 123.55L347.635 140.262C351.449 140.428 353.497 137.351 353.497 141.138V277.699C353.497 281.488 350.408 284.755 346.596 284.982L106.275 299.309Z" fill="url(#paint17_linear)"/>
<path d="M108.436 299.309C103.239 299.618 98.9883 296.247 98.9883 291.792V131.221C98.9883 126.766 103.239 123.325 108.436 123.55L348.752 133.963C352.568 134.128 355.653 137.345 355.653 141.134V277.699C355.653 281.488 352.564 284.755 348.752 284.982L108.436 299.309Z" fill="url(#paint18_linear)"/>
<g style="mix-blend-mode:multiply" opacity="0.3">
<path d="M348.752 137.177L108.436 127.291C105.657 127.176 103.398 129.016 103.398 131.388V291.549C103.398 293.929 105.663 295.727 108.436 295.568L348.752 281.767C350.8 281.65 352.451 279.906 352.451 277.874V141.01C352.439 140.02 352.05 139.072 351.362 138.359C350.675 137.647 349.741 137.224 348.752 137.177Z" fill="#D8DEE8"/>
</g>
<path d="M346.966 270.212L111.039 281.857C108.559 281.978 106.551 280.347 106.551 278.199V133.494C106.551 131.352 108.564 129.691 111.039 129.783L346.966 138.544C347.862 138.583 348.71 138.964 349.333 139.609C349.956 140.254 350.308 141.114 350.316 142.011V266.705C350.306 267.605 349.955 268.469 349.333 269.12C348.711 269.771 347.865 270.161 346.966 270.212Z" fill="url(#paint19_linear)"/>
<g style="mix-blend-mode:soft-light" opacity="0.6">
<path d="M169.896 145.065L116.016 143.48V138.343L169.896 140.086V145.065Z" fill="white"/>
</g>
<g style="mix-blend-mode:soft-light" opacity="0.36">
<path d="M195.27 144.39L182.822 144.014V140.504L195.27 140.907V144.39Z" fill="white"/>
</g>
<g style="mix-blend-mode:soft-light" opacity="0.36">
<path d="M195.27 149.231L182.822 148.89V145.38L195.27 145.747V149.231Z" fill="white"/>
</g>
<path d="M257.297 150.928L209.008 149.606V146.152L257.297 147.574V150.928Z" fill="url(#paint20_linear)"/>
<path opacity="0.5" d="M265.214 155.783L217.406 154.614V151.175L265.214 152.445V155.783Z" fill="url(#paint21_linear)"/>
<path opacity="0.5" d="M265.214 160.422L217.406 159.39V155.951L265.214 157.084V160.422Z" fill="url(#paint22_linear)"/>
<g style="mix-blend-mode:soft-light" opacity="0.6">
<path d="M265.214 165.06L217.406 164.166V160.728L265.214 161.722V165.06Z" fill="white"/>
</g>
<g style="mix-blend-mode:soft-light" opacity="0.36">
<path d="M195.27 154.071L182.822 153.766V150.257L195.27 150.588V154.071Z" fill="white"/>
</g>
<g style="mix-blend-mode:soft-light" opacity="0.36">
<path d="M195.27 158.911L182.822 158.643V155.133L195.27 155.428V158.911Z" fill="white"/>
</g>
<g style="mix-blend-mode:soft-light" opacity="0.36">
<path d="M195.27 163.752L182.822 163.519V160.01L195.27 160.269V163.752Z" fill="white"/>
</g>
<g style="mix-blend-mode:soft-light" opacity="0.36">
<path d="M195.27 168.592L182.822 168.396V164.886L195.27 165.108V168.592Z" fill="white"/>
</g>
<g style="mix-blend-mode:soft-light" opacity="0.6">
<path d="M228.622 169.119L197.984 168.635V165.157L228.622 165.705V169.119Z" fill="white"/>
</g>
<g style="mix-blend-mode:soft-light" opacity="0.36">
<path d="M195.27 173.433L182.822 173.272V169.763L195.27 169.949V173.433Z" fill="white"/>
</g>
<g style="mix-blend-mode:soft-light" opacity="0.36">
<path d="M195.27 178.273L182.822 178.149V174.638L195.27 174.789V178.273Z" fill="white"/>
</g>
<g style="mix-blend-mode:soft-light" opacity="0.36">
<path d="M195.27 183.114L182.822 183.025V179.515L195.27 179.63V183.114Z" fill="white"/>
</g>
<path opacity="0.5" d="M242.976 174.049L209.008 173.61V170.155L242.976 170.664V174.049Z" fill="url(#paint23_linear)"/>
<g style="mix-blend-mode:soft-light" opacity="0.6">
<path d="M260.622 178.928L217.406 178.495V175.058L260.622 175.581V178.928Z" fill="white"/>
</g>
<path d="M260.622 183.58L217.406 183.271V179.834L260.622 180.232V183.58Z" fill="url(#paint24_linear)"/>
<g style="mix-blend-mode:soft-light" opacity="0.36">
<path d="M195.27 187.954L182.822 187.901V184.391L195.27 184.47V187.954Z" fill="white"/>
</g>
<g style="mix-blend-mode:soft-light" opacity="0.36">
<path d="M195.27 192.795L182.822 192.777V189.268L195.27 189.311V192.795Z" fill="white"/>
</g>
<g style="mix-blend-mode:soft-light" opacity="0.36">
<path d="M195.27 197.635L182.822 197.654V194.144L195.27 194.151V197.635Z" fill="white"/>
</g>
<g style="mix-blend-mode:soft-light" opacity="0.36">
<path d="M195.27 202.475L182.822 202.53V199.021L195.27 198.991V202.475Z" fill="white"/>
</g>
<g style="mix-blend-mode:soft-light" opacity="0.36">
<path d="M195.27 207.315L182.822 207.407V203.896L195.27 203.832V207.315Z" fill="white"/>
</g>
<g style="mix-blend-mode:soft-light" opacity="0.36">
<path d="M195.27 212.156L182.822 212.284V208.773L195.27 208.672V212.156Z" fill="white"/>
</g>
<g style="mix-blend-mode:soft-light" opacity="0.36">
<path d="M195.27 216.996L182.822 217.159V213.65L195.27 213.513V216.996Z" fill="white"/>
</g>
<g style="mix-blend-mode:soft-light" opacity="0.36">
<path d="M195.27 221.837L182.822 222.036V218.526L195.27 218.353V221.837Z" fill="white"/>
</g>
<g style="mix-blend-mode:soft-light" opacity="0.36">
<path d="M195.27 226.677L182.822 226.912V223.403L195.27 223.194V226.677Z" fill="white"/>
</g>
<g style="mix-blend-mode:soft-light" opacity="0.36">
<path d="M195.27 231.518L182.822 231.789V228.279L195.27 228.033V231.518Z" fill="white"/>
</g>
<g style="mix-blend-mode:soft-light" opacity="0.36">
<path d="M195.27 236.358L182.822 236.665V233.156L195.27 232.874V236.358Z" fill="white"/>
</g>
<g style="mix-blend-mode:soft-light" opacity="0.36">
<path d="M195.27 241.198L182.822 241.542V238.031L195.27 237.714V241.198Z" fill="white"/>
</g>
<g style="mix-blend-mode:soft-light" opacity="0.36">
<path d="M195.27 246.039L182.822 246.418V242.908L195.27 242.555V246.039Z" fill="white"/>
</g>
<g style="mix-blend-mode:soft-light" opacity="0.36">
<path d="M195.27 250.88L182.822 251.294V247.784L195.27 247.395V250.88Z" fill="white"/>
</g>
<g style="mix-blend-mode:soft-light" opacity="0.36">
<path d="M195.27 255.72L182.822 256.17V252.661L195.27 252.236V255.72Z" fill="white"/>
</g>
<g style="mix-blend-mode:soft-light" opacity="0.36">
<path d="M195.27 260.561L182.822 261.047V257.537L195.27 257.076V260.561Z" fill="white"/>
</g>
<g style="mix-blend-mode:soft-light" opacity="0.36">
<path d="M195.27 265.401L182.822 265.923V262.414L195.27 261.917V265.401Z" fill="white"/>
</g>
<g style="mix-blend-mode:soft-light" opacity="0.36">
<path d="M195.27 270.24L182.822 270.8V267.291L195.27 266.757V270.24Z" fill="white"/>
</g>
<path opacity="0.5" d="M231.845 145.498L197.9 144.47V140.992L231.845 142.089V145.498Z" fill="url(#paint25_linear)"/>
<g style="mix-blend-mode:soft-light" opacity="0.6">
<path d="M257.297 244.15L209.008 245.62V242.165L257.297 240.796V244.15Z" fill="white"/>
</g>
<path opacity="0.5" d="M265.214 248.547L217.406 250.141V246.703L265.214 245.209V248.547Z" fill="url(#paint26_linear)"/>
<path opacity="0.5" d="M265.214 253.185L217.406 254.918V251.479L265.214 249.847V253.185Z" fill="url(#paint27_linear)"/>
<path opacity="0.5" d="M285.816 257.018L239.246 258.84V255.447L285.816 253.722V257.018Z" fill="url(#paint28_linear)"/>
<path d="M285.816 261.596L239.246 263.553V260.161L285.816 258.301V261.596Z" fill="url(#paint29_linear)"/>
<g style="mix-blend-mode:soft-light" opacity="0.6">
<path d="M285.816 266.175L239.246 268.266V264.873L285.816 262.879V266.175Z" fill="white"/>
</g>
<path opacity="0.5" d="M231.845 240.191L197.9 241.126V237.647L231.845 236.783V240.191Z" fill="url(#paint30_linear)"/>
<path opacity="0.5" d="M257.297 192.878L209.008 192.813V189.357L257.297 189.523V192.878Z" fill="url(#paint31_linear)"/>
<g style="mix-blend-mode:soft-light" opacity="0.6">
<path d="M265.214 197.527L217.406 197.601V194.163L265.214 194.189V197.527Z" fill="white"/>
</g>
<path opacity="0.5" d="M265.214 202.165L217.406 202.377V198.939L265.214 198.827V202.165Z" fill="url(#paint32_linear)"/>
<path opacity="0.5" d="M265.214 206.803L217.406 207.154V203.715L265.214 203.465V206.803Z" fill="url(#paint33_linear)"/>
<path opacity="0.5" d="M228.622 211.816L197.984 212.128V208.65L228.622 208.401V211.816Z" fill="url(#paint34_linear)"/>
<g style="mix-blend-mode:soft-light" opacity="0.6">
<path d="M242.976 216.371L209.008 216.816V213.361L242.976 212.987V216.371Z" fill="white"/>
</g>
<path d="M260.622 220.791L217.406 221.483V218.045L260.622 217.444V220.791Z" fill="url(#paint35_linear)"/>
<path opacity="0.5" d="M260.622 225.443L217.406 226.259V222.822L260.622 222.095V225.443Z" fill="url(#paint36_linear)"/>
<path opacity="0.5" d="M270.204 229.886L227.508 230.815V227.398L270.204 226.557V229.886Z" fill="url(#paint37_linear)"/>
<path opacity="0.5" d="M270.204 234.509L227.508 235.562V232.146L270.204 231.182V234.509Z" fill="url(#paint38_linear)"/>
<path d="M231.845 188.109L197.9 187.965V184.487L231.845 184.702V188.109Z" fill="url(#paint39_linear)"/>
<g style="mix-blend-mode:soft-light">
<path d="M169.896 152.845L139.055 152.08V147.01L169.896 147.866V152.845Z" fill="white"/>
</g>
<g style="mix-blend-mode:soft-light" opacity="0.6">
<path d="M131.078 151.881L136.887 152.026V146.95L131.078 146.788V151.881Z" fill="white"/>
</g>
<g style="mix-blend-mode:soft-light" opacity="0.6">
<path d="M169.896 160.003L139.055 159.367V154.298L169.896 155.024V160.003Z" fill="white"/>
</g>
<g style="mix-blend-mode:soft-light" opacity="0.6">
<path d="M131.078 159.202L136.887 159.322V154.246L131.078 154.11V159.202Z" fill="white"/>
</g>
<g style="mix-blend-mode:soft-light" opacity="0.6">
<path d="M169.896 167.161L139.055 166.654V161.585L169.896 162.181V167.161Z" fill="white"/>
</g>
<g style="mix-blend-mode:soft-light" opacity="0.6">
<path d="M131.078 166.524L136.887 166.619V161.543L131.078 161.431V166.524Z" fill="white"/>
</g>
<g style="mix-blend-mode:soft-light">
<path d="M169.896 217.968L116.016 218.694V213.557L169.896 212.989V217.968Z" fill="white"/>
</g>
<g style="mix-blend-mode:soft-light" opacity="0.6">
<path d="M169.896 225.748L139.055 226.305V221.236L169.896 220.769V225.748Z" fill="white"/>
</g>
<g style="mix-blend-mode:soft-light" opacity="0.6">
<path d="M131.078 226.45L136.887 226.344V221.268L131.078 221.356V226.45Z" fill="white"/>
</g>
<g style="mix-blend-mode:soft-light" opacity="0.6">
<path d="M169.896 232.906L139.055 233.592V228.523L169.896 227.927V232.906Z" fill="white"/>
</g>
<g style="mix-blend-mode:soft-light" opacity="0.6">
<path d="M131.078 233.77L136.887 233.641V228.565L131.078 228.677V233.77Z" fill="white"/>
</g>
<g style="mix-blend-mode:soft-light" opacity="0.6">
<path d="M169.896 240.064L139.055 240.88V235.81L169.896 235.085V240.064Z" fill="white"/>
</g>
<g style="mix-blend-mode:soft-light" opacity="0.6">
<path d="M131.078 241.091L136.887 240.938V235.862L131.078 235.999V241.091Z" fill="white"/>
</g>
<g style="mix-blend-mode:soft-light">
<path d="M169.896 174.367L116.016 173.711V168.574L169.896 169.388V174.367Z" fill="white"/>
</g>
<g style="mix-blend-mode:soft-light" opacity="0.6">
<path d="M169.896 182.147L139.055 181.913V176.843L169.896 177.168V182.147Z" fill="white"/>
</g>
<g style="mix-blend-mode:soft-light" opacity="0.6">
<path d="M131.078 181.852L136.887 181.896V176.82L131.078 176.759V181.852Z" fill="white"/>
</g>
<g style="mix-blend-mode:soft-light" opacity="0.6">
<path d="M169.896 189.305L139.055 189.2V184.13L169.896 184.326V189.305Z" fill="white"/>
</g>
<g style="mix-blend-mode:soft-light" opacity="0.6">
<path d="M131.078 189.173L136.887 189.194V184.118L131.078 184.081V189.173Z" fill="white"/>
</g>
<g style="mix-blend-mode:soft-light" opacity="0.6">
<path d="M169.896 203.713L139.055 203.871V198.801L169.896 198.734V203.713Z" fill="white"/>
</g>
<g style="mix-blend-mode:soft-light" opacity="0.6">
<path d="M131.078 203.911L136.887 203.881V198.805L131.078 198.818V203.911Z" fill="white"/>
</g>
<g style="mix-blend-mode:soft-light" opacity="0.6">
<path d="M169.896 210.871L139.055 211.158V206.088L169.896 205.891V210.871Z" fill="white"/>
</g>
<g style="mix-blend-mode:soft-light" opacity="0.6">
<path d="M131.078 211.232L136.887 211.178V206.102L131.078 206.139V211.232Z" fill="white"/>
</g>
<g style="mix-blend-mode:soft-light" opacity="0.6">
<path d="M169.896 196.463L139.055 196.488V191.419L169.896 191.484V196.463Z" fill="white"/>
</g>
<g style="mix-blend-mode:soft-light" opacity="0.6">
<path d="M131.078 196.495L136.887 196.489V191.413L131.078 191.402V196.495Z" fill="white"/>
</g>
<g style="mix-blend-mode:soft-light">
<path d="M169.896 247.218L116.016 248.872V243.735L169.896 242.239V247.218Z" fill="white"/>
</g>
<g style="mix-blend-mode:soft-light" opacity="0.6">
<path d="M169.896 254.998L139.055 256.086V251.017L169.896 250.019V254.998Z" fill="white"/>
</g>
<g style="mix-blend-mode:soft-light" opacity="0.6">
<path d="M131.078 256.368L136.887 256.163V251.087L131.078 251.274V256.368Z" fill="white"/>
</g>
<g style="mix-blend-mode:soft-light" opacity="0.6">
<path d="M169.896 262.156L139.055 263.375V258.305L169.896 257.177V262.156Z" fill="white"/>
</g>
<g style="mix-blend-mode:soft-light" opacity="0.6">
<path d="M131.078 263.689L136.887 263.46V258.384L131.078 258.596V263.689Z" fill="white"/>
</g>
<g style="mix-blend-mode:soft-light" opacity="0.6">
<path d="M169.896 269.314L139.055 270.662V265.592L169.896 264.335V269.314Z" fill="white"/>
</g>
<g style="mix-blend-mode:soft-light" opacity="0.6">
<path d="M131.078 271.01L136.887 270.757V265.681L131.078 265.917V271.01Z" fill="white"/>
</g>
<g style="mix-blend-mode:soft-light" opacity="0.6">
<path d="M176.442 269.053L175.256 269.105V140.259L176.442 140.298V269.053Z" fill="white"/>
</g>
<g style="mix-blend-mode:soft-light" opacity="0.6">
<path d="M323.666 275.04C271.352 276.135 259.589 283.604 244.724 274.654C224.298 262.356 233.6 240.477 213.699 229.004C188.685 214.577 159.832 240.998 146.775 228.118C133.771 215.287 158.336 185.099 144.116 151.443C138.408 137.936 128.692 129.164 121.979 124.135L108.438 123.548C103.241 123.323 98.9902 126.763 98.9902 131.218V291.79C98.9902 296.245 103.241 299.616 108.438 299.307L348.754 284.98C352.57 284.753 355.654 281.486 355.654 277.696V275.269C348.453 275.016 337.296 274.758 323.666 275.04Z" fill="white"/>
</g>
<path d="M254.86 197.503L251.488 193.824C250.633 192.808 249.62 191.934 248.49 191.237C245.777 189.573 242.044 188.757 241.482 189.707C240.848 190.785 244.393 193.977 245.601 195.031L250.603 198.663L254.86 197.503Z" fill="url(#paint40_linear)"/>
<path d="M326.887 172.498C327.802 172.844 341.766 178.398 344.639 192.974C344.871 194.152 347.119 206.675 338.622 215.521C329.098 225.44 310.761 225.197 303.482 216.902C301.784 214.969 300.889 212.826 300.387 211.024L302.305 205.929C304.645 203.104 307.831 202.435 309.528 202.015C313.724 200.981 316.891 202.85 319.293 200.829C320.623 199.71 320.887 198.099 321.126 196.66C321.93 191.759 319.163 188.742 318.962 185.719C318.811 183.455 318.02 178.509 320.97 175.28C322.838 173.233 325.425 172.677 326.887 172.498Z" fill="url(#paint41_linear)"/>
<path d="M332.328 334.944C332.491 334.047 335.389 333.235 336.824 334.437C337.537 335.034 338.027 336.244 337.614 336.789C337.464 336.989 338.079 337.338 337.49 337.344C335.538 337.368 332.166 335.836 332.328 334.944Z" fill="url(#paint42_linear)"/>
<path d="M335.365 335.271L338.345 334.85C336.965 333.187 337.221 327.893 337.221 327.893L334.051 328.6C334.051 328.6 334.412 330.054 335.027 332.197C335.237 332.931 335.331 334.08 335.365 335.271Z" fill="url(#paint43_linear)"/>
<path d="M335.1 334.903C335.1 334.903 338.688 334.078 339.076 334.789C339.464 335.501 339.765 337.406 337.489 337.344C335.213 337.283 334.898 335.507 335.1 334.903Z" fill="url(#paint44_linear)"/>
<path d="M291.434 338.309C291.721 337.447 294.704 337.045 295.956 338.436C296.578 339.127 296.895 340.394 296.41 340.877C296.234 341.052 296.793 341.485 296.21 341.409C294.273 341.158 291.149 339.17 291.434 338.309Z" fill="url(#paint45_linear)"/>
<path d="M294.397 339.058H297.406C296.272 337.218 297.266 332.013 297.266 332.013L294.031 332.269C294.031 332.269 294.185 333.758 294.494 335.967C294.596 336.723 294.529 337.873 294.397 339.058Z" fill="url(#paint46_linear)"/>
<path d="M286.596 225.235C284.484 232.221 282.923 239.363 281.929 246.594C278.276 273.189 286.039 274.037 284.592 303.504C284.13 312.911 292.742 334.603 293.501 335.081C293.897 335.122 294.295 335.138 294.692 335.128C295.721 335.092 296.741 334.922 297.726 334.622C299.09 334.387 304.009 321.064 302.869 313.142C302.062 307.535 302.296 301.519 302.761 289.485C302.838 287.534 307.829 251.548 307.829 251.548C309.346 264.868 311.091 276.187 312.604 284.962C317.465 313.154 333.271 330.218 334.095 330.492C334.259 330.557 335.742 331.095 336.954 330.297C337.268 330.1 337.521 329.82 337.683 329.488C338.106 329.157 337.558 301.341 332.738 280.408C325.739 250.022 328.786 242.912 326.57 229.34C324.646 217.594 286.596 225.235 286.596 225.235Z" fill="url(#paint47_linear)"/>
<path d="M314.86 170.126C310.214 169.989 299.536 168.349 293.654 173.642C293.546 173.734 294.757 174.377 294.164 175.073C292.595 176.923 291.204 178.918 290.011 181.031C288.77 183.243 287.651 185.821 286.521 189.665C285.085 194.577 284.162 199.624 283.766 204.727C282.688 218.866 283.756 225.39 284.723 229.825C288.928 231.982 299.748 235.844 312.648 233.922C317.513 233.191 322.219 231.64 326.567 229.337C323.225 219.202 325.846 213.783 327.085 208.786C328.852 201.66 328.88 202.198 330.334 196.538C332.733 187.198 333.127 177.654 331.478 175.701C327.03 170.439 319.02 170.249 314.86 170.126Z" fill="url(#paint48_linear)"/>
<path d="M294.186 338.658C294.186 338.658 297.852 338.341 298.139 339.1C298.425 339.859 298.456 341.789 296.21 341.409C293.964 341.03 293.901 339.227 294.186 338.658Z" fill="url(#paint49_linear)"/>
<path d="M301.786 164.8C300.347 162.367 300.989 159.587 301.133 158.987C301.738 156.472 301.963 156.091 302.427 155.559L303.087 154.86L303.171 154.8C303.63 154.485 305.343 153.972 305.713 153.954C306.899 153.894 309.3 158.132 310.673 164.661C310.781 164.894 310.895 165.13 311.005 165.367C311.687 166.849 312.274 168.306 312.776 169.726C320.762 170.402 321.871 171.343 321.906 171.883C321.981 173.022 317.431 174.337 314.009 174.839C306.547 175.931 298.875 173.963 298.914 172.575C298.93 171.969 300.413 171.18 306.74 170.352C306.592 169.304 306.444 168.257 306.295 167.211C305.784 167.09 302.846 166.592 301.786 164.8Z" fill="url(#paint50_linear)"/>
<path d="M300.284 153.65C300.823 155.642 302.332 157.522 302.9 157.737C303.241 157.884 303.557 158.086 303.833 158.334C303.901 158.395 303.96 158.464 304.01 158.539C304.782 159.68 303.178 161.692 303.714 162.152C304.102 162.486 305.315 161.577 305.57 161.887C305.811 162.179 304.865 163.167 305.144 163.518C305.355 163.783 305.976 163.324 306.537 163.667C306.817 163.837 306.8 164.036 307.219 164.674C307.436 165.012 307.684 165.33 307.959 165.623C308.961 166.61 311.028 166.518 311.279 165.946C311.348 165.788 311.23 165.701 311.22 165.235C311.224 164.903 311.274 164.574 311.368 164.257C311.593 163.478 312.439 162.739 313.235 161.767C314.707 159.97 314.904 158.719 314.951 158.302C314.969 158.153 314.975 158.043 314.978 157.963C315.06 156.367 314.487 154.206 313.469 153.054C311.768 151.125 309.552 152.846 306.919 151.187C303.882 149.272 304.359 145.421 302.977 145.379C301.456 145.337 299.288 149.963 300.284 153.65Z" fill="url(#paint51_linear)"/>
<path d="M304.306 161.492C304.615 160.69 305.643 161.092 305.88 161.96C306.117 162.828 305.516 163.956 304.652 164.002C303.788 164.049 303.889 162.571 304.306 161.492Z" fill="url(#paint52_linear)"/>
<path d="M325.084 222.902C325.058 222.903 325.032 222.893 325.012 222.875C324.992 222.857 324.979 222.833 324.976 222.806C324.422 217.816 325.453 214.201 326.362 211.012C326.584 210.234 326.793 209.498 326.976 208.763C327.98 204.713 328.42 203.149 328.885 201.494C329.187 200.416 329.499 199.308 329.983 197.451C329.987 197.438 329.993 197.425 330.002 197.413C330.01 197.402 330.021 197.393 330.033 197.385C330.046 197.378 330.059 197.374 330.073 197.372C330.087 197.37 330.102 197.371 330.115 197.374C330.129 197.378 330.142 197.384 330.153 197.393C330.165 197.401 330.174 197.412 330.181 197.424C330.189 197.436 330.193 197.45 330.195 197.464C330.197 197.478 330.196 197.493 330.193 197.506C329.708 199.365 329.396 200.477 329.093 201.553C328.628 203.207 328.189 204.769 327.187 208.815C327.003 209.554 326.793 210.291 326.571 211.072C325.666 214.242 324.642 217.834 325.192 222.783C325.194 222.797 325.192 222.811 325.189 222.825C325.185 222.839 325.178 222.852 325.169 222.863C325.16 222.874 325.149 222.883 325.137 222.89C325.124 222.897 325.11 222.901 325.096 222.902H325.084Z" fill="#9B305E"/>
<path d="M304.314 159.932L303.573 161.71C303.573 161.71 302.833 163.844 301.855 163.044C301.056 162.39 300.909 162.449 300.884 162.492C300.884 162.5 300.884 162.511 300.878 162.511C300.871 162.511 300.856 162.08 300.849 161.71C300.575 162.46 300.435 163.253 300.434 164.052C300.434 165.036 300.434 166.089 301.204 166.897C301.249 166.943 302.089 167.797 303.22 167.76C303.22 167.76 303.665 167.743 305.353 166.96C305.353 166.96 303.042 166.07 302.923 165.744C302.6 164.858 303.73 164.031 304.168 161.921C304.302 161.267 304.351 160.599 304.314 159.932Z" fill="url(#paint53_linear)"/>
<path d="M252.995 194.874C251.315 196.05 250.414 197.646 249.947 198.665C251.182 201.564 253.984 206.948 259.782 210.915C269.29 217.421 283.23 217.64 292.939 210.221C304.54 201.359 306.479 184.362 301.607 177.085C301.045 176.247 299.201 173.492 296.339 173.175C294.531 172.976 292.069 173.722 288.181 178.274C280.08 187.762 282.941 193.682 278.154 196.456C270.978 200.618 260.313 189.757 252.995 194.874Z" fill="url(#paint54_linear)"/>
<path d="M285.651 214.209C285.622 214.212 285.594 214.204 285.571 214.186C285.549 214.167 285.535 214.141 285.532 214.113C285.529 214.084 285.537 214.055 285.555 214.033C285.574 214.011 285.6 213.996 285.628 213.993C285.742 213.969 296.996 211.377 302.065 197.39C302.075 197.363 302.095 197.341 302.121 197.328C302.147 197.316 302.176 197.315 302.203 197.325C302.23 197.334 302.253 197.354 302.265 197.38C302.277 197.406 302.278 197.436 302.269 197.463C299.598 204.829 295.232 208.986 292.039 211.177C288.577 213.549 285.703 214.196 285.678 214.196C285.67 214.202 285.661 214.206 285.651 214.209Z" fill="#9B305E"/>
<path d="M345.446 76.6879L210.788 69.6431C204.584 69.3197 199.535 74.0065 199.535 80.1154V112.037C199.535 118.146 204.584 123.273 210.788 123.489L345.446 128.168C351.095 128.364 355.658 123.822 355.658 118.024V87.7272C355.656 81.9235 351.093 76.9811 345.446 76.6879Z" fill="url(#paint55_linear)"/>
<g style="mix-blend-mode:soft-light" opacity="0.6">
<path d="M210.789 120.431C206.316 120.272 202.666 116.558 202.666 112.156V80.2674C202.666 75.8652 206.316 72.4701 210.789 72.6997L345.447 79.6108C349.524 79.8199 352.833 83.3973 352.833 87.5892V117.919C352.833 122.107 349.524 125.395 345.447 125.251L210.789 120.431Z" fill="white"/>
</g>
<path d="M253.645 93.9418L259.072 84.6566L265.33 84.9218L256.813 97.8749L264.653 111.74L258.156 111.465L253.393 101.584L247.812 111.029L241.535 110.763L250.26 97.5978L242.87 83.9731L249.091 84.2351L253.645 93.9418Z" fill="white"/>
<path d="M276.457 85.3542L283.249 104.935L289.97 86.0054L297.056 86.3472V112.776L291.646 112.561V105.322L292.185 92.8561L285.094 112.3L281.363 112.153L274.238 92.0496L274.784 104.618V111.894L269.311 111.679V85.0092L276.457 85.3542Z" fill="white"/>
<path d="M307.21 108.808L318.52 109.269V113.612L301.854 112.955V86.5768L307.21 86.8345V108.808Z" fill="white"/>
<g style="mix-blend-mode:multiply" opacity="0.3">
<path style="mix-blend-mode:multiply" opacity="0.3" d="M283.904 116.894C263.474 110.984 262.478 91.6647 239.429 79.2658C227.793 73.007 215.5 71.1483 204.329 71.3132C202.85 72.2542 201.635 73.5552 200.796 75.0944C199.958 76.6336 199.524 78.3605 199.535 80.1132V112.035C199.535 118.143 204.584 123.271 210.788 123.487L345.446 128.168C349.735 128.317 353.394 125.735 354.91 121.949C348.304 115.382 341.781 112.03 335.7 110.549C315.269 105.583 304.942 122.978 283.904 116.894Z" fill="url(#paint56_linear)"/>
</g>
<defs>
<linearGradient id="paint0_linear" x1="154.159" y1="247.425" x2="-8.23007" y2="149.044" gradientUnits="userSpaceOnUse">
<stop stop-color="#FF9085"/>
<stop offset="1" stop-color="#FB6FBB"/>
</linearGradient>
<linearGradient id="paint1_linear" x1="130750" y1="57600.4" x2="113422" y2="162326" gradientUnits="userSpaceOnUse">
<stop stop-color="#FF9085"/>
<stop offset="1" stop-color="#FB6FBB"/>
</linearGradient>
<linearGradient id="paint2_linear" x1="94.8729" y1="46.606" x2="126.102" y2="205.308" gradientUnits="userSpaceOnUse">
<stop stop-color="#FFC444"/>
<stop offset="1" stop-color="#F36F56"/>
</linearGradient>
<linearGradient id="paint3_linear" x1="54722.6" y1="8638.46" x2="62368.9" y2="49935.2" gradientUnits="userSpaceOnUse">
<stop stop-color="#FFC444"/>
<stop offset="1" stop-color="#F36F56"/>
</linearGradient>
<linearGradient id="paint4_linear" x1="33954.6" y1="11892.6" x2="41212.4" y2="53436" gradientUnits="userSpaceOnUse">
<stop stop-color="#FFC444"/>
<stop offset="1" stop-color="#F36F56"/>
</linearGradient>
<linearGradient id="paint5_linear" x1="17906" y1="14056.3" x2="30798.6" y2="59941.8" gradientUnits="userSpaceOnUse">
<stop stop-color="#FFC444"/>
<stop offset="1" stop-color="#F36F56"/>
</linearGradient>
<linearGradient id="paint6_linear" x1="38372.4" y1="9264.05" x2="50578" y2="50928.4" gradientUnits="userSpaceOnUse">
<stop stop-color="#FFC444"/>
<stop offset="1" stop-color="#F36F56"/>
</linearGradient>
<linearGradient id="paint7_linear" x1="51688.2" y1="10554.2" x2="60540.5" y2="54516.5" gradientUnits="userSpaceOnUse">
<stop stop-color="#FFC444"/>
<stop offset="1" stop-color="#F36F56"/>
</linearGradient>
<linearGradient id="paint8_linear" x1="43852.8" y1="8679.55" x2="53928.2" y2="49286.6" gradientUnits="userSpaceOnUse">
<stop stop-color="#FFC444"/>
<stop offset="1" stop-color="#F36F56"/>
</linearGradient>
<linearGradient id="paint9_linear" x1="36881.9" y1="9256.76" x2="41490.1" y2="43561" gradientUnits="userSpaceOnUse">
<stop stop-color="#FFC444"/>
<stop offset="1" stop-color="#F36F56"/>
</linearGradient>
<linearGradient id="paint10_linear" x1="46355.9" y1="8706.83" x2="50746.4" y2="41202.3" gradientUnits="userSpaceOnUse">
<stop stop-color="#FFC444"/>
<stop offset="1" stop-color="#F36F56"/>
</linearGradient>
<linearGradient id="paint11_linear" x1="40333.1" y1="7567.48" x2="44158.1" y2="36864.8" gradientUnits="userSpaceOnUse">
<stop stop-color="#FFC444"/>
<stop offset="1" stop-color="#F36F56"/>
</linearGradient>
<linearGradient id="paint12_linear" x1="21764.3" y1="13112.9" x2="32320.8" y2="57516.4" gradientUnits="userSpaceOnUse">
<stop stop-color="#FFC444"/>
<stop offset="1" stop-color="#F36F56"/>
</linearGradient>
<linearGradient id="paint13_linear" x1="47738.7" y1="7034" x2="52627" y2="40617.8" gradientUnits="userSpaceOnUse">
<stop stop-color="#FFC444"/>
<stop offset="1" stop-color="#F36F56"/>
</linearGradient>
<linearGradient id="paint14_linear" x1="27762.8" y1="45609.8" x2="23781.3" y2="69762.7" gradientUnits="userSpaceOnUse">
<stop stop-color="#FFC444"/>
<stop offset="1" stop-color="#F36F56"/>
</linearGradient>
<linearGradient id="paint15_linear" x1="198.165" y1="305.789" x2="281.538" y2="305.789" gradientUnits="userSpaceOnUse">
<stop stop-color="#444B8C"/>
<stop offset="1" stop-color="#26264F"/>
</linearGradient>
<linearGradient id="paint16_linear" x1="239.839" y1="388.257" x2="240.529" y2="329.613" gradientUnits="userSpaceOnUse">
<stop stop-color="#E38DDD"/>
<stop offset="1" stop-color="#9571F6"/>
</linearGradient>
<linearGradient id="paint17_linear" x1="230603" y1="344854" x2="841628" y2="344854" gradientUnits="userSpaceOnUse">
<stop stop-color="#444B8C"/>
<stop offset="1" stop-color="#26264F"/>
</linearGradient>
<linearGradient id="paint18_linear" x1="235742" y1="344854" x2="846757" y2="344854" gradientUnits="userSpaceOnUse">
<stop stop-color="#E38DDD"/>
<stop offset="1" stop-color="#9571F6"/>
</linearGradient>
<linearGradient id="paint19_linear" x1="378681" y1="138693" x2="494904" y2="480367" gradientUnits="userSpaceOnUse">
<stop stop-color="#444B8C"/>
<stop offset="1" stop-color="#26264F"/>
</linearGradient>
<linearGradient id="paint20_linear" x1="102331" y1="5340.99" x2="102423" y2="10993" gradientUnits="userSpaceOnUse">
<stop stop-color="#E38DDD"/>
<stop offset="1" stop-color="#9571F6"/>
</linearGradient>
<linearGradient id="paint21_linear" x1="96619.6" y1="6710.89" x2="117819" y2="6710.89" gradientUnits="userSpaceOnUse">
<stop stop-color="#FF9085"/>
<stop offset="1" stop-color="#FB6FBB"/>
</linearGradient>
<linearGradient id="paint22_linear" x1="96619.6" y1="6714.4" x2="117819" y2="6714.4" gradientUnits="userSpaceOnUse">
<stop stop-color="#FF9085"/>
<stop offset="1" stop-color="#FB6FBB"/>
</linearGradient>
<linearGradient id="paint23_linear" x1="66056.8" y1="6384.76" x2="76758.6" y2="6384.76" gradientUnits="userSpaceOnUse">
<stop stop-color="#FF9085"/>
<stop offset="1" stop-color="#FB6FBB"/>
</linearGradient>
<linearGradient id="paint24_linear" x1="91785.4" y1="4256.29" x2="91843.1" y2="8312.07" gradientUnits="userSpaceOnUse">
<stop stop-color="#E38DDD"/>
<stop offset="1" stop-color="#9571F6"/>
</linearGradient>
<linearGradient id="paint25_linear" x1="62504.6" y1="6127.19" x2="73191.8" y2="6127.19" gradientUnits="userSpaceOnUse">
<stop stop-color="#FF9085"/>
<stop offset="1" stop-color="#FB6FBB"/>
</linearGradient>
<linearGradient id="paint26_linear" x1="96619.6" y1="11576.3" x2="117819" y2="11576.3" gradientUnits="userSpaceOnUse">
<stop stop-color="#FF9085"/>
<stop offset="1" stop-color="#FB6FBB"/>
</linearGradient>
<linearGradient id="paint27_linear" x1="96619.6" y1="12119.4" x2="117819" y2="12119.4" gradientUnits="userSpaceOnUse">
<stop stop-color="#FF9085"/>
<stop offset="1" stop-color="#FB6FBB"/>
</linearGradient>
<linearGradient id="paint28_linear" x1="103579" y1="12419.2" x2="123695" y2="12419.2" gradientUnits="userSpaceOnUse">
<stop stop-color="#FF9085"/>
<stop offset="1" stop-color="#FB6FBB"/>
</linearGradient>
<linearGradient id="paint29_linear" x1="105176" y1="7152.57" x2="105258" y2="11593.8" gradientUnits="userSpaceOnUse">
<stop stop-color="#E38DDD"/>
<stop offset="1" stop-color="#9571F6"/>
</linearGradient>
<linearGradient id="paint30_linear" x1="62504.6" y1="9861.81" x2="73191.8" y2="9861.81" gradientUnits="userSpaceOnUse">
<stop stop-color="#FF9085"/>
<stop offset="1" stop-color="#FB6FBB"/>
</linearGradient>
<linearGradient id="paint31_linear" x1="93819.1" y1="6429.34" x2="115447" y2="6429.34" gradientUnits="userSpaceOnUse">
<stop stop-color="#FF9085"/>
<stop offset="1" stop-color="#FB6FBB"/>
</linearGradient>
<linearGradient id="paint32_linear" x1="96619.6" y1="6804.71" x2="117819" y2="6804.71" gradientUnits="userSpaceOnUse">
<stop stop-color="#FF9085"/>
<stop offset="1" stop-color="#FB6FBB"/>
</linearGradient>
<linearGradient id="paint33_linear" x1="96619.6" y1="7227.09" x2="117819" y2="7227.09" gradientUnits="userSpaceOnUse">
<stop stop-color="#FF9085"/>
<stop offset="1" stop-color="#FB6FBB"/>
</linearGradient>
<linearGradient id="paint34_linear" x1="56457.1" y1="7477.25" x2="65163" y2="7477.25" gradientUnits="userSpaceOnUse">
<stop stop-color="#FF9085"/>
<stop offset="1" stop-color="#FB6FBB"/>
</linearGradient>
<linearGradient id="paint35_linear" x1="89800.5" y1="4895" x2="89861.3" y2="8864.81" gradientUnits="userSpaceOnUse">
<stop stop-color="#E38DDD"/>
<stop offset="1" stop-color="#9571F6"/>
</linearGradient>
<linearGradient id="paint36_linear" x1="87360.1" y1="8879.8" x2="104682" y2="8879.8" gradientUnits="userSpaceOnUse">
<stop stop-color="#FF9085"/>
<stop offset="1" stop-color="#FB6FBB"/>
</linearGradient>
<linearGradient id="paint37_linear" x1="90321.9" y1="9257.48" x2="107230" y2="9257.48" gradientUnits="userSpaceOnUse">
<stop stop-color="#FF9085"/>
<stop offset="1" stop-color="#FB6FBB"/>
</linearGradient>
<linearGradient id="paint38_linear" x1="90321.9" y1="9713.16" x2="107230" y2="9713.16" gradientUnits="userSpaceOnUse">
<stop stop-color="#FF9085"/>
<stop offset="1" stop-color="#FB6FBB"/>
</linearGradient>
<linearGradient id="paint39_linear" x1="64443.9" y1="4229.54" x2="64512.9" y2="8174.03" gradientUnits="userSpaceOnUse">
<stop stop-color="#E38DDD"/>
<stop offset="1" stop-color="#9571F6"/>
</linearGradient>
<linearGradient id="paint40_linear" x1="25505.6" y1="16315.8" x2="26843" y2="18734.6" gradientUnits="userSpaceOnUse">
<stop stop-color="#FFC444"/>
<stop offset="1" stop-color="#F36F56"/>
</linearGradient>
<linearGradient id="paint41_linear" x1="116316" y1="103576" x2="122612" y2="81311" gradientUnits="userSpaceOnUse">
<stop stop-color="#FFC444"/>
<stop offset="1" stop-color="#F36F56"/>
</linearGradient>
<linearGradient id="paint42_linear" x1="14794.5" y1="9765.71" x2="15005.7" y2="9984.34" gradientUnits="userSpaceOnUse">
<stop stop-color="#444B8C"/>
<stop offset="1" stop-color="#26264F"/>
</linearGradient>
<linearGradient id="paint43_linear" x1="10279.4" y1="23397.1" x2="10183.8" y2="22721.5" gradientUnits="userSpaceOnUse">
<stop stop-color="#FFC444"/>
<stop offset="1" stop-color="#F36F56"/>
</linearGradient>
<linearGradient id="paint44_linear" x1="11819.8" y1="7987.22" x2="11991.5" y2="8160.59" gradientUnits="userSpaceOnUse">
<stop stop-color="#444B8C"/>
<stop offset="1" stop-color="#26264F"/>
</linearGradient>
<linearGradient id="paint45_linear" x1="12497.3" y1="12454.1" x2="12702.2" y2="12698.9" gradientUnits="userSpaceOnUse">
<stop stop-color="#444B8C"/>
<stop offset="1" stop-color="#26264F"/>
</linearGradient>
<linearGradient id="paint46_linear" x1="5333.07" y1="22588.3" x2="5333.07" y2="21936.7" gradientUnits="userSpaceOnUse">
<stop stop-color="#FFC444"/>
<stop offset="1" stop-color="#F36F56"/>
</linearGradient>
<linearGradient id="paint47_linear" x1="21066.9" y1="300171" x2="62134.5" y2="295042" gradientUnits="userSpaceOnUse">
<stop stop-color="#FF9085"/>
<stop offset="1" stop-color="#FB6FBB"/>
</linearGradient>
<linearGradient id="paint48_linear" x1="139961" y1="137280" x2="97598.9" y2="114881" gradientUnits="userSpaceOnUse">
<stop stop-color="#FFC444"/>
<stop offset="1" stop-color="#F36F56"/>
</linearGradient>
<linearGradient id="paint49_linear" x1="10145.9" y1="9240.43" x2="10293.8" y2="9433.61" gradientUnits="userSpaceOnUse">
<stop stop-color="#444B8C"/>
<stop offset="1" stop-color="#26264F"/>
</linearGradient>
<linearGradient id="paint50_linear" x1="16901.5" y1="34115.6" x2="14673.4" y2="29396.5" gradientUnits="userSpaceOnUse">
<stop stop-color="#FFC444"/>
<stop offset="1" stop-color="#F36F56"/>
</linearGradient>
<linearGradient id="paint51_linear" x1="307.352" y1="149.254" x2="308.753" y2="197.856" gradientUnits="userSpaceOnUse">
<stop stop-color="#AB316D"/>
<stop offset="1" stop-color="#792D3D"/>
</linearGradient>
<linearGradient id="paint52_linear" x1="4976.27" y1="4335.54" x2="5830" y2="5042.55" gradientUnits="userSpaceOnUse">
<stop stop-color="#FFC444"/>
<stop offset="1" stop-color="#F36F56"/>
</linearGradient>
<linearGradient id="paint53_linear" x1="14099.9" y1="11007.7" x2="14261.6" y2="14532.3" gradientUnits="userSpaceOnUse">
<stop stop-color="#AB316D"/>
<stop offset="1" stop-color="#792D3D"/>
</linearGradient>
<linearGradient id="paint54_linear" x1="153684" y1="94336.7" x2="115920" y2="60983.5" gradientUnits="userSpaceOnUse">
<stop stop-color="#FFC444"/>
<stop offset="1" stop-color="#F36F56"/>
</linearGradient>
<linearGradient id="paint55_linear" x1="199.535" y1="98.9003" x2="355.656" y2="98.9003" gradientUnits="userSpaceOnUse">
<stop stop-color="#AA80F9"/>
<stop offset="1" stop-color="#6165D7"/>
</linearGradient>
<linearGradient id="paint56_linear" x1="410459" y1="30234.6" x2="405937" y2="102048" gradientUnits="userSpaceOnUse">
<stop stop-color="#AA80F9"/>
<stop offset="1" stop-color="#6165D7"/>
</linearGradient>
</defs>
</svg>
