<svg width="400" height="400" viewBox="0 0 400 400" fill="none" xmlns="http://www.w3.org/2000/svg">
<path d="M336.628 132.731C344.464 61.3563 275.271 36.565 226.218 54.8388C176.768 73.2604 165.302 42.7224 95.7688 51.448C25.3645 60.2825 61.1079 170.801 61.1079 170.801C61.1079 170.801 72.3111 266.908 85.5823 311.206C98.7833 355.267 225.142 339.326 255.881 338.012C286.444 336.704 313 339.227 339.59 290.85C366.133 242.565 328.818 203.864 336.628 132.731Z" fill="#252A44"/>
<g style="mix-blend-mode:multiply" opacity="0.3">
<path d="M312.797 115.35L307.082 115.735C306.437 113.212 305.571 110.752 304.495 108.381L309.231 105.202C309.539 104.995 309.802 104.728 310.005 104.418C310.209 104.108 310.35 103.761 310.419 103.397C310.488 103.032 310.484 102.658 310.407 102.295C310.331 101.932 310.183 101.588 309.973 101.282L304.457 93.1537C304.035 92.5292 303.384 92.0962 302.645 91.9484C301.906 91.8007 301.138 91.9502 300.509 92.3645L295.709 95.5677C293.884 93.6993 291.904 91.9899 289.789 90.4583L292.319 85.2615C292.644 84.58 292.686 83.7977 292.436 83.0854C292.186 82.373 291.664 81.7886 290.984 81.4599L282.09 77.0836C281.756 76.9153 281.392 76.8146 281.019 76.7874C280.645 76.7602 280.27 76.807 279.915 76.9251C279.56 77.0432 279.231 77.2303 278.949 77.4756C278.666 77.721 278.434 78.0197 278.267 78.3548L275.719 83.5688C273.197 82.8387 270.617 82.3279 268.007 82.0421L267.563 76.1952C267.501 75.4334 267.143 74.7263 266.565 74.2256C265.988 73.7249 265.237 73.4705 264.474 73.517L254.533 74.1035C254.158 74.1222 253.79 74.2157 253.452 74.3784C253.114 74.5411 252.811 74.7699 252.563 75.0511C252.314 75.3324 252.124 75.6605 252.004 76.0162C251.884 76.3719 251.837 76.748 251.864 77.1224L252.309 82.9866C249.751 83.5874 247.249 84.4103 244.833 85.4459L241.48 80.5575C241.044 79.923 240.378 79.4835 239.623 79.3325C238.869 79.1815 238.085 79.3308 237.438 79.7488L229.118 85.213C228.802 85.4197 228.53 85.6877 228.32 86.0013C228.109 86.3149 227.964 86.6676 227.892 87.0384C227.82 87.4093 227.824 87.7908 227.902 88.1602C227.981 88.5297 228.133 88.8796 228.349 89.1893L231.713 94.0787C229.805 95.8834 228.058 97.8517 226.493 99.9612L221.112 97.3585C219.654 96.6545 217.902 97.2367 217.199 98.661L212.795 107.572C212.628 107.914 212.532 108.286 212.511 108.666C212.49 109.046 212.545 109.427 212.672 109.785C212.8 110.144 212.997 110.474 213.253 110.755C213.509 111.037 213.819 111.265 214.164 111.425L219.507 113.989C218.773 116.523 218.268 119.117 217.998 121.741L212.081 122.14C211.7 122.161 211.327 122.258 210.984 122.424C210.641 122.591 210.334 122.824 210.082 123.11C209.829 123.395 209.636 123.728 209.513 124.09C209.39 124.451 209.34 124.832 209.366 125.213L210.121 135.143C210.241 136.731 211.653 137.926 213.272 137.811L219.141 137.398C219.792 139.975 220.673 142.489 221.774 144.908L216.947 148.131C216.629 148.339 216.357 148.609 216.145 148.925C215.934 149.24 215.787 149.595 215.715 149.968C215.643 150.341 215.646 150.724 215.725 151.096C215.803 151.468 215.956 151.82 216.172 152.132L221.876 160.346C222.321 160.978 222.996 161.411 223.757 161.552C224.517 161.694 225.303 161.531 225.945 161.101L230.735 157.886C232.617 159.79 234.662 161.526 236.846 163.073L234.343 168.194C234.177 168.534 234.08 168.904 234.059 169.282C234.038 169.66 234.092 170.038 234.219 170.395C234.346 170.752 234.543 171.079 234.798 171.359C235.053 171.639 235.361 171.865 235.705 172.024L244.761 176.29C245.456 176.619 246.253 176.661 246.979 176.408C247.705 176.154 248.303 175.626 248.643 174.936L251.114 169.869C253.699 170.579 256.342 171.061 259.012 171.308L259.437 176.914C259.467 177.29 259.572 177.657 259.744 177.992C259.916 178.328 260.153 178.626 260.441 178.87C260.729 179.113 261.062 179.298 261.421 179.412C261.78 179.527 262.159 179.57 262.535 179.537L272.461 178.755C273.219 178.698 273.924 178.343 274.421 177.768C274.918 177.193 275.166 176.444 275.113 175.686L274.688 170.096C277.267 169.445 279.785 168.569 282.21 167.476L285.38 172.076C285.811 172.698 286.471 173.125 287.216 173.263C287.961 173.401 288.73 173.238 289.355 172.81L297.496 167.259C297.805 167.05 298.069 166.781 298.274 166.469C298.478 166.158 298.619 165.808 298.689 165.442C298.758 165.075 298.754 164.699 298.678 164.334C298.601 163.968 298.453 163.622 298.243 163.314L295.064 158.678C296.945 156.845 298.662 154.85 300.194 152.716L305.274 155.154C305.952 155.48 306.732 155.524 307.442 155.275C308.152 155.027 308.734 154.508 309.062 153.831L313.301 145.031C313.625 144.354 313.667 143.577 313.418 142.87C313.17 142.162 312.651 141.583 311.975 141.257L306.886 138.798C307.584 136.287 308.057 133.72 308.301 131.126L313.963 130.727C314.333 130.701 314.694 130.603 315.026 130.437C315.358 130.271 315.653 130.041 315.896 129.76C316.138 129.48 316.323 129.154 316.438 128.802C316.554 128.449 316.599 128.078 316.57 127.708L315.832 117.975C315.773 117.226 315.421 116.531 314.853 116.04C314.285 115.548 313.546 115.301 312.797 115.35ZM261.336 97.861C277.336 96.8453 291.206 108.824 292.404 124.612C293.602 140.401 281.684 154.154 265.698 155.34C249.615 156.537 235.523 144.574 234.312 128.612C233.1 112.651 245.239 98.8841 261.336 97.861Z" fill="#BFC8D6"/>
</g>
<path d="M222.088 246.846C212.816 238.147 200.584 224.017 195.048 204.043C187.788 177.844 198.426 164.601 197.227 120.241C196.473 92.1931 195.657 72.6254 181.516 62.1596C170.435 53.9591 152.495 52.3278 141.608 59.93C132.551 66.2513 127.318 79.6949 125.72 89.2906C124.418 97.1117 125.464 102.79 120.956 106.91C116.348 111.115 111.374 108.736 107.066 111.855C98.3325 118.179 103.388 139.132 104.205 142.513C113.301 180.175 148.003 205.575 163.274 216.476C175.899 225.478 195.431 237.486 222.088 246.846Z" fill="#D8DEE8"/>
<g style="mix-blend-mode:soft-light" opacity="0.5">
<g style="mix-blend-mode:soft-light" opacity="0.5">
<path d="M232.688 253.784C216.526 247.639 202.614 240.316 191.34 232.005C174.652 219.708 164.258 205.58 160.448 190.014C157.467 177.84 158.573 164.648 159.973 147.945C161.133 134.1 163.207 124.4 165.028 115.843C167.394 104.752 169.263 95.9914 167.966 83.3251C166.649 70.4561 162.403 57.6593 155.352 45.2885L155.983 44.9283C163.088 57.3876 167.364 70.2804 168.693 83.2507C170.002 96.0313 168.122 104.841 165.743 115.994C163.921 124.531 161.862 134.207 160.7 148.007C159.252 165.293 158.205 177.783 161.157 189.839C164.931 205.235 175.229 219.224 191.777 231.418C202.998 239.687 216.851 246.982 232.953 253.101L232.688 253.784Z" fill="white"/>
</g>
<g style="mix-blend-mode:soft-light" opacity="0.5">
<path d="M161.207 138.243L161.089 137.849C153.627 112.799 140.227 97.1267 130.3 88.3903C119.553 78.9337 110.471 75.3542 110.381 75.3186L110.644 74.6415C110.736 74.6771 119.938 78.3073 130.78 87.8448C140.726 96.5984 154.131 112.258 161.666 137.239C163.467 136.376 171.496 132.279 179.529 124.001C187.896 115.383 197.982 100.34 198.52 77.6162L199.247 77.6335C198.708 100.607 188.495 115.816 180.028 124.534C170.854 133.975 161.675 138.042 161.583 138.082L161.207 138.243Z" fill="white"/>
</g>
<g style="mix-blend-mode:soft-light" opacity="0.5">
<path d="M159.109 175.615L158.856 175.541C146.672 171.964 132.845 157.942 117.755 133.86C106.542 115.962 98.7855 98.882 98.709 98.7116L99.371 98.413C99.4475 98.5822 107.182 115.621 118.375 133.481C128.617 149.835 143.934 170.224 158.806 174.768C160.044 172.99 168.692 160.758 179.615 150.041C191.425 138.454 218.913 134.453 219.19 134.408L219.291 135.128C219.017 135.167 191.762 139.135 180.124 150.555C168.429 162.038 159.353 175.265 159.258 175.396L159.109 175.615Z" fill="white"/>
</g>
<g style="mix-blend-mode:soft-light" opacity="0.5">
<path d="M186.82 228.607L186.101 228.522C185.965 228.506 172.264 226.827 154.371 220.589C137.853 214.829 114.271 203.892 95.7329 184.496L59.9453 147.05L60.4704 146.548L96.2655 183.995C114.702 203.285 138.175 214.169 154.618 219.898C170.118 225.301 182.441 227.267 185.476 227.698C181.642 220.758 180.257 213.514 181.358 206.155C182.264 200.098 184.849 193.958 189.039 187.903C196.154 177.619 205.587 171.049 205.681 170.983L206.094 171.582C206 171.646 196.666 178.152 189.625 188.333C185.503 194.293 182.963 200.329 182.078 206.273C180.971 213.687 182.449 220.989 186.469 227.974L186.82 228.607Z" fill="white"/>
</g>
</g>
<path d="M172.292 246.233C152.219 246.404 126.624 243.758 102.095 232.717C95.835 229.899 57.1644 212.491 61.697 194.884C63.2927 188.681 68.9024 187.693 71.1849 179.438C73.8803 169.657 67.7348 164.785 63.4631 152.608C60.9121 145.342 53.4447 124.08 66.1703 112.276C73.7747 105.223 88.2469 101.867 99.2701 104.419C115.443 108.164 121.025 123.888 130.015 150.654C137.984 174.383 135.958 180.215 141.996 197.197C146.474 209.811 154.899 227.161 172.292 246.233Z" fill="url(#paint0_linear)"/>
<g style="mix-blend-mode:soft-light" opacity="0.5">
<g style="mix-blend-mode:soft-light" opacity="0.5">
<path d="M222.512 256.991C213.029 257.005 203.578 255.9 194.354 253.7C167.257 247.214 143.741 231.042 124.461 205.631C104.419 179.216 93.9728 149.428 88.7393 129.09C85.093 114.921 85.7593 99.2367 90.721 82.4799L91.4175 82.6858C86.4946 99.3208 85.8294 114.874 89.4423 128.914C94.6606 149.184 105.076 178.879 125.04 205.197C144.216 230.47 167.593 246.553 194.524 253C214.74 257.838 236.131 257.304 258.104 251.411L258.293 252.113C246.159 255.362 234.197 256.99 222.512 256.991Z" fill="white"/>
</g>
<g style="mix-blend-mode:soft-light" opacity="0.5">
<path d="M103.168 169.216L102.893 169.039C59.5748 141.132 59.9586 108.949 61.1079 99.7488C61.1306 99.5677 61.1468 99.4491 61.1478 99.3984H61.8745C61.8677 99.5476 61.8526 99.6962 61.8292 99.8437C60.695 108.916 60.3295 140.619 103.009 168.253C104.047 166.902 108.909 160.339 112.915 150.852C117.05 141.06 121.094 126.054 116.88 110.192L117.582 110.004C121.852 126.077 117.759 141.254 113.576 151.155C109.048 161.873 103.429 168.897 103.373 168.967L103.168 169.216Z" fill="white"/>
</g>
<g style="mix-blend-mode:soft-light" opacity="0.5">
<path d="M107.995 206.6C90.7447 206.6 78.6907 202.1 71.0713 197.759C65.4875 194.574 61.6395 191.131 59.3948 188.803C56.9549 186.273 55.8519 184.518 55.8066 184.444L56.4234 184.059C56.4665 184.129 60.9215 191.144 71.4735 197.152C89.0476 207.154 109.79 206.76 124.17 204.644C125.188 202.38 135.428 178.621 132.983 146.838L130.386 113.08L131.109 113.024L133.707 146.783C136.282 180.249 124.867 204.885 124.747 205.13L124.664 205.306L124.472 205.334C119.018 206.161 113.511 206.584 107.995 206.6Z" fill="white"/>
</g>
</g>
<path d="M224.836 317.421C223.077 316.832 221.505 315.788 220.279 314.396C219.053 313.004 218.217 311.313 217.855 309.493L212.666 283.81L168.275 285.391L162.812 312.148C162.046 315.894 165.109 319.654 168.634 321.034L187.206 328.301C190.657 329.652 194.372 330.19 198.063 329.875L237.309 326.518C237.868 326.467 238.393 326.225 238.794 325.832C239.195 325.439 239.448 324.919 239.51 324.361C239.644 323.204 240.447 321.905 239.354 321.542L224.836 317.421Z" fill="#97A6B7"/>
<path d="M225.276 315.86C223.527 315.286 221.96 314.26 220.735 312.885C219.51 311.51 218.67 309.835 218.302 308.031L213.118 282.671L169.811 284.229L164.353 310.649C163.983 312.441 164.26 314.306 165.136 315.912C166.011 317.519 167.429 318.762 169.135 319.422L187.688 326.597C191.139 327.932 194.849 328.464 198.536 328.152L237.745 324.837C238.301 324.789 238.824 324.552 239.224 324.163C239.625 323.775 239.879 323.261 239.944 322.707C240.008 322.152 239.88 321.593 239.579 321.123C239.279 320.653 238.825 320.301 238.295 320.127L225.276 315.86Z" fill="url(#paint1_linear)"/>
<path d="M77.5679 300.881C72.7539 301.168 68.8164 298.045 68.8164 293.918V145.17C68.8164 141.043 72.7539 137.856 77.5679 138.064L300.19 147.709C303.724 147.862 306.586 150.842 306.586 154.351V280.863C306.586 284.372 303.724 287.398 300.19 287.61L77.5679 300.881Z" fill="url(#paint2_linear)"/>
<path d="M79.569 300.881C74.7549 301.168 70.8164 298.045 70.8164 293.918V145.17C70.8164 141.043 74.7549 137.856 79.569 138.064L302.192 147.709C305.726 147.862 308.588 150.842 308.588 154.351V280.863C308.588 284.372 305.726 287.398 302.192 287.61L79.569 300.881Z" fill="url(#paint3_linear)"/>
<g style="mix-blend-mode:multiply" opacity="0.3">
<path d="M302.192 150.687L79.5687 141.529C76.9951 141.421 74.9023 143.124 74.9023 145.327V293.693C74.9023 295.897 76.9951 297.562 79.5687 297.415L302.192 284.636C304.086 284.528 305.618 282.911 305.618 281.03V154.237C305.608 153.32 305.248 152.441 304.611 151.781C303.974 151.121 303.108 150.729 302.192 150.687Z" fill="#D8DEE8"/>
</g>
<path d="M79.5678 284.78C78.5662 284.829 77.75 284.171 77.75 283.314V145.437C77.75 144.575 78.5662 143.915 79.5678 143.955L302.191 152.776C302.549 152.792 302.888 152.945 303.137 153.203C303.386 153.461 303.527 153.804 303.53 154.163V272.375C303.526 272.735 303.385 273.08 303.137 273.34C302.888 273.6 302.55 273.756 302.191 273.777L79.5678 284.78Z" fill="#D8DEE8"/>
<g style="mix-blend-mode:soft-light" opacity="0.6">
<path d="M278.952 278.402C260.223 266.816 273.305 233.874 252.272 217.326C231.066 200.639 201.227 221.1 186.373 203.824C175.313 190.957 188.254 175.422 177.694 163.322C161.133 144.346 118.737 170.444 99.2593 151.749C96.4938 149.094 93.7025 145.064 92.1143 138.607L79.5709 138.068C74.7569 137.86 70.8184 141.047 70.8184 145.174V293.918C70.8184 298.045 74.7569 301.168 79.5709 300.881L302.193 287.61C305.727 287.394 308.589 284.375 308.589 280.863V278.614C293.807 283.629 284.77 282.001 278.952 278.402Z" fill="white"/>
</g>
<path d="M274.953 128.187L113.903 122.608C108.49 122.42 104.084 126.76 104.084 132.301V252.451C104.084 257.991 108.49 262.364 113.903 262.218L274.953 257.862C279.601 257.737 283.353 253.498 283.353 248.394V137.72C283.353 132.615 279.601 128.347 274.953 128.187Z" fill="url(#paint4_linear)"/>
<g style="mix-blend-mode:soft-light" opacity="0.74">
<path d="M107.229 249.919V134.86C107.229 129.733 111.301 125.711 116.306 125.877L272.876 131.08C277.189 131.224 280.679 135.177 280.679 139.915V246.178C280.679 250.913 277.193 254.842 272.876 254.953L116.306 258.966C111.302 259.094 107.229 255.043 107.229 249.919Z" fill="white"/>
</g>
<path d="M274.953 128.187L113.904 122.608C108.492 122.42 104.084 126.76 104.084 132.301V139.499L283.355 144.35V137.721C283.355 132.615 279.602 128.347 274.953 128.187Z" fill="url(#paint5_linear)"/>
<path d="M121.541 131.86C121.541 133.659 120.117 135.077 118.358 135.025C116.6 134.974 115.166 133.47 115.166 131.665C115.166 129.86 116.597 128.442 118.358 128.499C120.12 128.556 121.541 130.065 121.541 131.86Z" fill="white"/>
<path d="M132.648 132.205C132.648 133.996 131.237 135.406 129.496 135.355C127.755 135.305 126.336 133.807 126.336 132.013C126.336 130.219 127.752 128.808 129.496 128.863C131.241 128.918 132.648 130.414 132.648 132.205Z" fill="white"/>
<path d="M143.647 132.541C143.647 134.324 142.251 135.727 140.527 135.678C138.803 135.628 137.4 134.137 137.4 132.35C137.4 130.564 138.802 129.159 140.527 129.215C142.252 129.271 143.647 130.76 143.647 132.541Z" fill="white"/>
<path d="M273.548 216.315L115.529 217.464V169.97L273.548 172.139V216.315Z" fill="url(#paint6_linear)"/>
<path d="M273.548 227.47L115.529 229.458V224.357L273.548 222.726V227.47Z" fill="white"/>
<path d="M273.548 239.106L115.529 241.969V236.868L273.548 234.362V239.106Z" fill="white"/>
<path d="M200.676 159.597L115.529 157.976V163.077L200.676 164.505V159.597Z" fill="white"/>
<path d="M264.566 160.813V165.576L273.548 165.727V160.983L264.566 160.813Z" fill="white"/>
<g style="mix-blend-mode:soft-light" opacity="0.5">
<g style="mix-blend-mode:soft-light" opacity="0.5">
<path d="M212.432 189.568C193.627 161.681 161.053 170.533 140.433 139.694C136.713 134.131 134.189 128.47 132.455 123.251L113.901 122.604C108.488 122.416 104.082 126.756 104.082 132.297V252.451C104.082 257.992 108.488 262.365 113.901 262.218L236.51 258.903C232.631 253.227 229.317 247.185 226.618 240.863C215.654 215.19 223.775 206.386 212.432 189.568Z" fill="white"/>
</g>
</g>
<g style="mix-blend-mode:soft-light">
<g style="mix-blend-mode:soft-light">
<path d="M137.67 181.853L118.355 181.674V176.033L137.67 176.26V181.853Z" fill="white"/>
</g>
<g style="mix-blend-mode:soft-light">
<path d="M240.529 182.81L149.992 181.969V176.403L240.529 177.463V182.81Z" fill="white"/>
</g>
<g style="mix-blend-mode:soft-light">
<path d="M168.792 191.572L149.992 191.474V185.909L168.792 186.052V191.572Z" fill="white"/>
</g>
<g style="mix-blend-mode:soft-light">
<path d="M268.975 192.092L180.785 191.633V186.143L268.975 186.813V192.092Z" fill="white"/>
</g>
<g style="mix-blend-mode:soft-light">
<path d="M168.792 200.999L149.992 200.979V195.415L168.792 195.48V200.999Z" fill="white"/>
</g>
<g style="mix-blend-mode:soft-light">
<path d="M268.975 201.108L180.785 201.012V195.522L268.975 195.83V201.108Z" fill="white"/>
</g>
<g style="mix-blend-mode:soft-light">
<path d="M137.67 210.522L118.355 210.58V204.94L137.67 204.927V210.522Z" fill="white"/>
</g>
<g style="mix-blend-mode:soft-light">
<path d="M240.529 210.211L149.992 210.485V204.92L240.529 204.865V210.211Z" fill="white"/>
</g>
</g>
<path d="M248.695 90.566L248.654 124.852L248.647 130.357C248.647 133.585 246.448 132.799 243.464 132.741L232.482 132.872L231.049 132.891L221.144 133.009L219.514 133.031L157.555 133.773H157.15C153.882 133.697 151.207 130.861 151.207 127.477L151.199 85.7035C151.199 82.3774 153.776 79.7229 156.96 79.793H157.146L159.508 79.9234L243.281 84.4367C246.265 84.5768 248.698 87.3315 248.695 90.566Z" fill="url(#paint7_linear)"/>
<path d="M232.544 130.774L231.05 132.888L229.001 135.779L221.134 146.892L219.548 146.137L219.522 135.524L219.514 133.029L219.508 129.911L221.148 130.018L232.544 130.774Z" fill="url(#paint8_linear)"/>
<path d="M250.451 90.4486L250.408 124.81L250.401 130.439C250.401 133.682 247.948 136.279 244.954 136.21L230.105 135.808L229.002 135.779L221.146 135.569L219.528 135.524L158.527 133.876C158.201 133.87 157.876 133.834 157.556 133.768C154.735 133.229 152.56 130.611 152.56 127.553L152.553 85.586C152.553 82.7354 154.432 80.4108 156.961 79.8038C157.471 79.6815 157.995 79.6314 158.518 79.655L159.512 79.71L245.016 84.3009C248.01 84.4356 250.459 87.2022 250.451 90.4486Z" fill="url(#paint9_linear)"/>
<path d="M234.234 130.705L232.481 132.87L230.103 135.808L221.131 146.893L221.141 135.571V133.009V130.021V129.845L234.234 130.705Z" fill="url(#paint10_linear)"/>
<path d="M194.018 116.852L178.432 108.11V105.458L194.018 97.3478V101.694L183.363 106.856L194.018 112.524V116.852Z" fill="white"/>
<path d="M209.362 95.2021L201.307 120.769L197.133 120.629L205.295 94.8959L209.362 95.2021Z" fill="white"/>
<path d="M212.271 113.368L222.003 108.948L212.271 102.843V98.6276L226.298 108.137V110.595L212.271 117.572V113.368Z" fill="white"/>
<path style="mix-blend-mode:multiply" opacity="0.2" d="M250.407 124.81L250.399 130.439C250.399 133.682 247.946 136.279 244.952 136.21L230.104 135.808L221.133 146.892L219.547 146.137L219.522 135.524L158.52 133.876C158.194 133.87 157.869 133.834 157.55 133.768H157.144C153.876 133.693 151.201 130.857 151.201 127.473L151.199 85.7143C151.199 82.3882 153.776 79.7704 156.96 79.8092C157.469 79.6869 157.993 79.6368 158.517 79.6604L159.511 79.7154C159.511 79.7887 159.511 79.862 159.511 79.9386C159.485 88.1326 162.552 99.7769 179.831 101.144C206.823 103.283 213.782 109.29 223.928 121.198C230.555 128.976 240.73 125.295 248.658 124.853C249.252 124.816 249.839 124.8 250.407 124.81Z" fill="url(#paint11_linear)"/>
<path d="M303.042 223.559C314.604 223.915 324.315 230.974 326.207 239.909L326.213 239.945C326.316 240.433 326.395 240.928 326.449 241.428C326.449 241.461 326.457 241.493 326.46 241.527C326.485 241.761 326.503 241.995 326.516 242.23L326.523 242.358C326.533 242.6 326.542 242.84 326.542 243.083C326.542 253.467 315.944 261.337 303.038 260.668C302.694 260.651 302.353 260.626 302.014 260.597L301.915 260.589C301.593 260.56 301.274 260.524 300.956 260.481L300.808 260.464C300.501 260.423 300.195 260.379 299.892 260.33L299.721 260.303C299.423 260.253 299.127 260.198 298.833 260.14L298.655 260.104C298.363 260.044 298.072 259.981 297.784 259.912L297.617 259.871C297.331 259.801 297.047 259.727 296.765 259.65L296.614 259.607C296.36 259.534 296.109 259.459 295.86 259.38L295.67 259.321C295.415 259.239 295.165 259.154 294.915 259.065L294.752 259.009C286.176 255.916 280.146 248.953 280.146 241.168C280.153 231.057 290.327 223.169 303.042 223.559Z" fill="url(#paint12_linear)"/>
<path d="M277.705 241.171C277.705 251.285 287.88 260.011 300.595 260.668C313.496 261.337 324.099 253.467 324.099 243.083C324.099 232.698 313.5 223.956 300.595 223.559C287.88 223.169 277.705 231.057 277.705 241.171Z" fill="url(#paint13_linear)"/>
<path d="M310.879 235.628V250.446L298.175 256.193L298.108 256.091L287.756 248.636L287.846 236.421L298.293 229.498L298.276 229.404L310.879 235.628Z" fill="white"/>
<path d="M298.299 229.492L298.198 256.102L287.766 248.636L287.851 236.42L298.299 229.492Z" fill="#F4F7FA"/>
<g style="mix-blend-mode:multiply" opacity="0.3">
<path style="mix-blend-mode:multiply" opacity="0.3" d="M294.986 255.667C297.771 250.333 294.955 245.101 298.723 241.723C302.565 238.279 307.584 241.831 313.017 239.105C315.127 238.045 317.478 235.949 319.23 231.506C322.282 234.773 324.098 238.794 324.098 243.083C324.098 253.467 313.5 261.337 300.594 260.669C297.766 260.527 294.974 259.969 292.309 259.014C293.405 258.078 294.314 256.942 294.986 255.667Z" fill="url(#paint14_linear)"/>
</g>
<path d="M303.877 119.834C315.44 120.189 325.15 127.248 327.043 136.183L327.049 136.219C327.152 136.707 327.231 137.202 327.285 137.703C327.285 137.735 327.293 137.768 327.296 137.801C327.32 138.035 327.339 138.269 327.352 138.505L327.359 138.633C327.369 138.873 327.377 139.115 327.377 139.358C327.377 149.741 316.779 157.611 303.873 156.944C303.53 156.925 303.189 156.9 302.85 156.871L302.75 156.863C302.429 156.834 302.11 156.798 301.792 156.755L301.644 156.737C301.337 156.697 301.031 156.653 300.728 156.604L300.557 156.576C300.259 156.526 299.963 156.472 299.669 156.414L299.491 156.377C299.199 156.317 298.908 156.253 298.62 156.184L298.453 156.144C298.167 156.073 297.883 156.001 297.601 155.928L297.449 155.885C297.196 155.813 296.944 155.737 296.695 155.658L296.504 155.599C296.25 155.518 296 155.432 295.749 155.344C295.696 155.324 295.641 155.308 295.587 155.289C287.012 152.195 280.982 145.232 280.982 137.447C280.989 127.332 291.162 119.444 303.877 119.834Z" fill="url(#paint15_linear)"/>
<path d="M278.541 137.445C278.541 147.559 288.715 156.285 301.43 156.944C314.332 157.611 324.934 149.741 324.934 139.358C324.934 128.974 314.336 120.23 301.43 119.834C288.715 119.444 278.541 127.332 278.541 137.445Z" fill="url(#paint16_linear)"/>
<g style="mix-blend-mode:multiply" opacity="0.3">
<path style="mix-blend-mode:multiply" opacity="0.3" d="M295.818 151.942C298.603 146.607 295.788 141.376 299.554 137.997C303.397 134.553 308.416 138.105 313.849 135.379C315.959 134.32 318.31 132.223 320.063 127.781C323.113 131.048 324.93 135.067 324.93 139.357C324.93 149.741 314.332 157.611 301.426 156.943C298.598 156.801 295.806 156.244 293.141 155.288C294.237 154.353 295.145 153.217 295.818 151.942Z" fill="url(#paint17_linear)"/>
</g>
<path d="M299.76 150.926C293.333 150.664 288.203 145.169 288.203 138.67C288.203 132.17 293.333 126.891 299.76 126.899C306.326 126.907 311.774 132.41 311.774 139.166C311.774 145.921 306.326 151.195 299.76 150.926ZM299.76 127.94C293.884 127.922 289.187 132.745 289.187 138.69C289.187 144.635 293.884 149.656 299.76 149.886C305.751 150.12 310.714 145.303 310.714 139.143C310.714 132.983 305.751 127.957 299.76 127.94Z" fill="#F4F7FA"/>
<path d="M305.73 139.038C305.73 142.4 303.043 145.043 299.761 144.941C296.513 144.841 293.906 142.087 293.906 138.789C293.906 135.491 296.513 132.849 299.761 132.884C303.043 132.921 305.73 135.676 305.73 139.038Z" fill="#F4F7FA"/>
<path d="M307.95 128.755C307.953 129.093 307.888 129.428 307.76 129.741C307.631 130.053 307.442 130.337 307.204 130.577C306.965 130.816 306.681 131.005 306.369 131.134C306.056 131.263 305.721 131.329 305.383 131.327C304.703 131.316 304.055 131.038 303.579 130.552C303.102 130.067 302.836 129.413 302.838 128.733C302.839 128.398 302.907 128.065 303.037 127.756C303.166 127.446 303.356 127.165 303.594 126.929C303.833 126.692 304.115 126.505 304.426 126.378C304.737 126.251 305.069 126.186 305.405 126.188C305.741 126.189 306.073 126.257 306.382 126.386C306.692 126.516 306.973 126.706 307.209 126.944C307.446 127.182 307.633 127.465 307.76 127.776C307.887 128.086 307.952 128.419 307.95 128.755Z" fill="#F4F7FA"/>
<path d="M320.597 168.422C333.484 168.817 344.308 176.686 346.417 186.643C346.417 186.656 346.422 186.669 346.425 186.681C346.54 187.227 346.627 187.778 346.689 188.334C346.689 188.371 346.696 188.409 346.7 188.442C346.728 188.702 346.748 188.964 346.762 189.226C346.762 189.273 346.767 189.321 346.769 189.369C346.782 189.637 346.791 189.908 346.791 190.177C346.791 201.751 334.977 210.522 320.597 209.778C320.215 209.757 319.835 209.73 319.456 209.697L319.348 209.689C318.99 209.656 318.635 209.617 318.281 209.574L318.116 209.554C317.773 209.51 317.434 209.46 317.095 209.406L316.904 209.375C316.572 209.319 316.242 209.259 315.914 209.194L315.716 209.153C315.393 209.086 315.069 209.016 314.746 208.937L314.559 208.891C314.24 208.813 313.923 208.731 313.609 208.644L313.441 208.596C313.158 208.516 312.877 208.432 312.599 208.344L312.383 208.278C312.101 208.187 311.822 208.091 311.544 207.993C311.483 207.972 311.422 207.953 311.362 207.931C301.803 204.481 295.082 196.718 295.082 188.044C295.085 176.777 306.424 167.987 320.597 168.422Z" fill="url(#paint18_linear)"/>
<path d="M292.355 188.051C292.355 199.325 303.696 209.05 317.868 209.784C332.248 210.528 344.061 201.757 344.061 190.183C344.061 178.609 332.248 168.864 317.868 168.422C303.696 167.987 292.355 176.777 292.355 188.051Z" fill="url(#paint19_linear)"/>
<g style="mix-blend-mode:multiply" opacity="0.3">
<path style="mix-blend-mode:multiply" opacity="0.3" d="M311.615 204.205C314.718 198.26 311.58 192.425 315.779 188.662C320.062 184.824 325.656 188.785 331.712 185.745C334.063 184.559 336.684 182.226 338.637 177.276C342.037 180.916 344.063 185.397 344.063 190.179C344.063 201.753 332.25 210.524 317.87 209.78C314.718 209.621 311.606 209 308.635 207.935C309.855 206.892 310.867 205.626 311.615 204.205Z" fill="url(#paint20_linear)"/>
</g>
<path d="M319.177 189.279C319.18 189.552 319.129 189.823 319.026 190.077C318.923 190.33 318.771 190.56 318.577 190.753C318.384 190.947 318.154 191.099 317.901 191.202C317.647 191.305 317.376 191.357 317.103 191.353C316.546 191.335 316.019 191.1 315.632 190.7C315.245 190.299 315.03 189.763 315.031 189.207C315.028 188.934 315.079 188.664 315.181 188.412C315.284 188.159 315.435 187.93 315.627 187.737C315.82 187.544 316.048 187.391 316.3 187.287C316.552 187.184 316.822 187.131 317.094 187.133C317.652 187.148 318.183 187.381 318.572 187.782C318.961 188.183 319.178 188.72 319.177 189.279Z" fill="white"/>
<path d="M311.89 201.998C310.734 201.958 309.722 201.612 308.881 200.97C305.274 198.221 306.003 190.992 310.55 184.424C313.939 179.53 318.572 176.347 322.364 176.347C323.55 176.347 324.6 176.661 325.477 177.284C329.286 179.988 328.533 187.439 323.773 194.154C320.293 199.063 315.624 202.129 311.89 201.998ZM322.371 177.675C319.042 177.675 314.716 180.702 311.599 185.192C307.585 190.978 306.685 197.692 309.62 199.922C310.243 200.395 311.008 200.65 311.892 200.677C315.168 200.785 319.511 197.856 322.695 193.355C326.866 187.46 327.799 180.564 324.718 178.369C324.067 177.912 323.277 177.682 322.371 177.675Z" fill="white"/>
<path d="M322.431 202.372C318.626 202.239 313.967 198.873 310.559 193.842C306 187.109 305.268 179.876 308.863 177.267C309.701 176.66 310.708 176.352 311.859 176.352C315.582 176.352 320.248 179.561 323.747 184.575C328.546 191.451 329.354 198.953 325.548 201.539C324.672 202.131 323.623 202.41 322.431 202.372ZM311.865 177.662C310.982 177.662 310.22 177.887 309.6 178.335C306.675 180.452 307.582 187.176 311.607 193.106C314.74 197.722 319.089 200.922 322.43 201.034C323.343 201.064 324.134 200.856 324.78 200.416C327.856 198.318 326.878 191.37 322.672 185.331C319.469 180.73 315.126 177.663 311.861 177.657L311.865 177.662Z" fill="white"/>
<path d="M317.384 196.846L316.996 197.03C313.233 196.87 309.731 196.038 307.121 194.515C304.401 192.929 302.93 190.913 302.961 188.743C303.023 184.47 309.044 181.189 316.815 181.241L317.202 181.259C322.55 181.367 327.486 183.084 330.032 185.732C331.203 186.948 331.814 188.125 331.799 189.505C331.752 193.962 325.35 197.55 317.384 196.846ZM316.816 182.587C309.864 182.527 304.264 185.329 304.213 188.832C304.189 190.498 305.43 192.146 307.722 193.476C310.158 194.893 313.453 195.756 317.011 195.902L317.381 195.915C324.49 196.104 330.411 193.301 330.452 189.667C330.463 188.637 330 187.626 329.074 186.662C326.769 184.262 322.197 182.707 317.185 182.593L316.816 182.587Z" fill="white"/>
<path d="M141.066 337.779C141.066 337.779 140.808 339.835 140.982 340.524C141.156 341.213 147.133 341.71 149.161 341.471C151.189 341.231 147.953 339.159 146.66 338.775C145.366 338.391 141.066 337.779 141.066 337.779Z" fill="url(#paint21_linear)"/>
<path d="M144.076 334.349L143.446 338.474C143.446 338.474 141.84 339.197 141.067 338.483L140.982 334.17L144.076 334.349Z" fill="url(#paint22_linear)"/>
<path d="M110.378 334.165C110.378 334.165 111.647 335.106 111.309 336.234C110.97 337.362 108.012 341.877 105.902 343.159C103.792 344.441 104.455 341.77 105.068 340.107C105.682 338.443 107.251 334.78 107.863 334.165C108.475 333.55 110.378 334.165 110.378 334.165Z" fill="url(#paint23_linear)"/>
<path d="M112.658 329.633C112.046 331.343 111.456 332.748 110.995 333.784C109.975 336.077 109.416 336.937 108.785 337.683C108.234 338.33 106.93 339.719 106.58 339.488C106.229 339.257 107.177 337.569 109.016 332.633C109.284 331.917 110.127 329.633 110.127 329.633H112.658Z" fill="url(#paint24_linear)"/>
<path d="M156.595 258.221C157.239 264.553 157.315 270.93 156.823 277.275C156.006 287.818 153.898 294.488 151.255 305.729C149.638 312.599 147.462 322.709 145.492 335.354C144.424 335.971 143.181 336.214 141.959 336.046C141.202 335.933 140.478 335.658 139.836 335.241C134.667 319.446 136.194 309.658 138.689 303.56C139.752 300.961 141.04 298.91 141.729 294.914C142.641 289.631 141.514 286.673 139.906 274.429C138.761 265.701 138.958 264.353 139.722 263.044C142.769 257.812 152.091 257.915 156.595 258.221Z" fill="url(#paint25_linear)"/>
<path d="M138.802 260.061C135.635 276.414 132.528 285.003 130.176 289.86C128.482 293.289 127.03 296.832 125.832 300.465C124.215 305.369 123.538 308.982 123.192 310.566C122.101 315.578 119.402 322.897 112.143 332.496C112.052 332.55 110.815 333.251 109.631 332.625C109.192 332.387 108.837 332.018 108.615 331.571C109.564 322.394 110.653 314.681 111.6 308.729C111.798 307.48 112.671 302.018 114.042 294.803C114.581 291.978 115.365 287.842 116.306 283.59C117.478 278.298 119.275 271.098 122.045 262.47L138.802 260.061Z" fill="url(#paint26_linear)"/>
<path d="M141.501 195.381C143.296 193.721 146.732 191.807 148.455 187.358C148.973 186.02 150.812 181.275 148.1 177.646C146.491 175.49 143.503 174.029 140.869 174.548C138.619 174.99 138.266 176.557 134.442 179.713C132.953 180.941 130.56 182.914 127.896 184.012C123.333 185.893 120.592 184.12 116.011 184.325C110.383 184.574 103.845 187.714 100.701 192.281C95.1038 200.388 103.203 208.611 97.079 218.113C95.0726 221.225 94.0839 220.527 89.3313 226.55C84.5787 232.572 82.1928 235.596 82.6165 239.291C83.2041 244.418 88.7275 249.317 93.9297 249.651C99.01 249.974 102.24 245.978 104.827 247.727C106.668 248.971 105.616 251.393 107.571 254.304C110.091 258.054 115.047 258.801 115.847 258.922C123.273 260.042 133.287 251.334 137.541 241.016C145.21 222.401 131.738 204.405 141.501 195.381Z" fill="url(#paint27_linear)"/>
<path d="M171.974 200.546C172.025 195.352 160.222 191.202 154.831 189.865C146.435 187.784 139.711 189.091 138.078 189.434C127.605 191.653 121.084 197.936 118.629 200.578C120.639 201.887 126.185 205.88 128.933 213.457C129.788 215.815 132.313 223.873 128.702 231.421C126.621 235.77 122.94 239.036 120.145 241.516C115.952 245.236 113.783 245.808 112.374 249.14C110.843 252.769 112.386 254.539 110.485 257.023C108.443 259.692 106.051 258.451 102.59 261.149C99.0459 263.913 100.307 266.188 97.0804 269.241C92.3925 273.679 86.179 272.237 85.889 274.235C85.6399 275.953 90.0572 278.282 93.8092 279.228C101.241 281.1 107.718 277.958 109.65 276.99C114.985 274.308 114.064 272.569 118.133 270.529C124.946 267.107 129.601 270.915 145.117 271.308C153.52 271.523 157.769 271.568 160.097 268.72C162.222 266.124 161.105 263.275 159.83 251.001C159.223 245.158 159.003 239.281 158.555 233.426C157.29 216.859 157.252 215.401 158.375 213.111C162.398 204.909 171.929 205.206 171.974 200.546Z" fill="url(#paint28_linear)"/>
<g style="mix-blend-mode:multiply" opacity="0.3">
<path style="mix-blend-mode:multiply" opacity="0.3" d="M97.0774 269.243C100.304 266.19 99.0429 263.915 102.587 261.152C106.048 258.456 108.44 259.694 110.482 257.025C112.383 254.546 110.84 252.771 112.371 249.142C113.773 245.81 115.949 245.238 120.142 241.518C122.937 239.038 126.618 235.773 128.699 231.423C132.31 223.876 129.785 215.817 128.93 213.459C126.183 205.883 120.636 201.889 118.626 200.58C118.82 200.372 119.048 200.134 119.292 199.884C132.535 201.704 140.257 209.356 141.212 211.623C143.419 216.86 139.925 218.784 139.834 233.891C139.791 241.115 140.571 243.962 138.228 246.976C135.549 250.426 132.461 249.356 128.586 253.863C125.609 257.325 126.085 259.52 123.303 260.979C120.313 262.548 118.409 260.719 115.038 261.438C109.405 262.639 108.202 269.134 104.478 272.687C101.662 275.374 96.4564 277.253 86.189 275.237C85.9518 274.891 85.8375 274.553 85.8828 274.237C86.1761 272.237 92.3895 273.681 97.0774 269.243Z" fill="url(#paint29_linear)"/>
</g>
<path d="M137.195 215.697C138.596 218.687 132.127 225.65 124.942 228.959C123.478 229.632 112.957 234.469 108.268 229.821C104.395 225.977 106.895 218.029 107.788 215.192C112.171 201.259 125.632 194.168 131.274 191.616C135.485 202.143 133.005 206.835 132.029 208.299C131.009 209.83 128.164 213.043 125.142 215.875C123.016 217.866 121.692 218.836 121.871 219.146C122.092 219.533 124.583 218.802 134.262 214.092C135.383 214.268 136.711 214.676 137.195 215.697Z" fill="url(#paint30_linear)"/>
<path d="M177.691 198.522L172.947 222.17C172.872 222.54 172.69 222.88 172.425 223.148C172.159 223.416 171.821 223.601 171.452 223.68L136.045 231.279C135.749 231.342 135.443 231.336 135.151 231.26C134.858 231.184 134.588 231.041 134.36 230.842C134.133 230.643 133.955 230.394 133.841 230.114C133.727 229.834 133.68 229.531 133.703 229.23L135.572 205.18C135.604 204.774 135.762 204.389 136.025 204.079C136.288 203.769 136.641 203.549 137.036 203.45C142.652 202.064 164.271 196.873 175.673 196.197C175.97 196.179 176.267 196.23 176.541 196.345C176.816 196.461 177.06 196.637 177.255 196.862C177.45 197.087 177.591 197.353 177.667 197.641C177.742 197.929 177.751 198.23 177.691 198.522Z" fill="url(#paint31_linear)"/>
<path d="M142.373 181.251C142.373 181.251 141.704 186.59 139.734 187.813C137.765 189.037 134.577 190.634 134.226 191.067C133.874 191.501 146.434 192.851 152.663 189.71C150.614 189.279 150.053 189.126 150.053 189.126C149.497 188.968 148.459 188.675 147.417 188.082C146.264 187.415 145.274 186.5 144.52 185.402L144.543 182.445L142.373 181.251Z" fill="url(#paint32_linear)"/>
<path d="M142.074 183.141C142.074 183.141 143.358 184.905 145.373 184.17C147.178 183.512 146.101 178.852 144.67 178.32C144.192 178.143 143.316 178.221 142.729 178.587C142.318 178.844 141.22 180.211 141.849 181.743C141.392 181.611 140.986 181.732 140.891 181.959C140.763 182.246 141.149 182.635 141.236 182.723C141.465 182.947 141.758 183.093 142.074 183.141Z" fill="url(#paint33_linear)"/>
<path style="mix-blend-mode:multiply" opacity="0.3" d="M145.803 218.968C149.606 217.897 152.759 220.56 155.789 218.452C158.893 216.296 156.867 212.607 160.094 208.982C163.544 205.101 167.919 207.005 171.113 203.473C172.299 202.162 173.364 200.023 173.377 196.382C174.177 196.304 174.942 196.243 175.667 196.2C175.964 196.182 176.261 196.232 176.535 196.348C176.809 196.463 177.053 196.639 177.248 196.864C177.443 197.088 177.584 197.354 177.66 197.642C177.736 197.929 177.744 198.23 177.685 198.522L172.941 222.171C172.866 222.54 172.684 222.88 172.419 223.148C172.153 223.416 171.815 223.601 171.446 223.68L137.418 230.982C139.82 222.559 143.026 219.751 145.803 218.968Z" fill="url(#paint34_linear)"/>
<path d="M175.202 211.105C175.202 211.105 177.466 209.018 177.706 206.593C177.947 204.168 176.247 202.228 174.596 201.733C172.944 201.238 172.063 201.968 173.171 204.356C174.28 206.744 176.038 208.29 175.202 211.105Z" fill="url(#paint35_linear)"/>
<defs>
<linearGradient id="paint0_linear" x1="140.943" y1="117.724" x2="106.003" y2="211.509" gradientUnits="userSpaceOnUse">
<stop stop-color="#FFC444"/>
<stop offset="1" stop-color="#F36F56"/>
</linearGradient>
<linearGradient id="paint1_linear" x1="197.069" y1="365.571" x2="202.604" y2="312.065" gradientUnits="userSpaceOnUse">
<stop stop-color="#444B8C"/>
<stop offset="1" stop-color="#26264F"/>
</linearGradient>
<linearGradient id="paint2_linear" x1="158.655" y1="216.277" x2="100.228" y2="223.043" gradientUnits="userSpaceOnUse">
<stop stop-color="#444B8C"/>
<stop offset="0.39" stop-color="#383C74"/>
<stop offset="1" stop-color="#26264F"/>
</linearGradient>
<linearGradient id="paint3_linear" x1="569253" y1="164742" x2="376085" y2="593894" gradientUnits="userSpaceOnUse">
<stop stop-color="#444B8C"/>
<stop offset="1" stop-color="#26264F"/>
</linearGradient>
<linearGradient id="paint4_linear" x1="245.263" y1="87.2722" x2="96.0062" y2="385.785" gradientUnits="userSpaceOnUse">
<stop stop-color="#AA80F9"/>
<stop offset="1" stop-color="#6165D7"/>
</linearGradient>
<linearGradient id="paint5_linear" x1="296384" y1="15422" x2="297179" y2="41627.3" gradientUnits="userSpaceOnUse">
<stop stop-color="#AA80F9"/>
<stop offset="1" stop-color="#6165D7"/>
</linearGradient>
<linearGradient id="paint6_linear" x1="169438" y1="85504.5" x2="401035" y2="85504.5" gradientUnits="userSpaceOnUse">
<stop stop-color="#AA80F9"/>
<stop offset="1" stop-color="#6165D7"/>
</linearGradient>
<linearGradient id="paint7_linear" x1="151.199" y1="106.785" x2="248.695" y2="106.785" gradientUnits="userSpaceOnUse">
<stop stop-color="#311944"/>
<stop offset="1" stop-color="#893976"/>
</linearGradient>
<linearGradient id="paint8_linear" x1="26760.3" y1="21928.1" x2="28336.5" y2="21928.1" gradientUnits="userSpaceOnUse">
<stop stop-color="#311944"/>
<stop offset="1" stop-color="#893976"/>
</linearGradient>
<linearGradient id="paint9_linear" x1="193.705" y1="57.9537" x2="214.041" y2="191.014" gradientUnits="userSpaceOnUse">
<stop stop-color="#FF9085"/>
<stop offset="1" stop-color="#FB6FBB"/>
</linearGradient>
<linearGradient id="paint10_linear" x1="26364.3" y1="9075.09" x2="30364.8" y2="29194.5" gradientUnits="userSpaceOnUse">
<stop stop-color="#FF9085"/>
<stop offset="1" stop-color="#FB6FBB"/>
</linearGradient>
<linearGradient id="paint11_linear" x1="139278" y1="70718.2" x2="230564" y2="70718.2" gradientUnits="userSpaceOnUse">
<stop stop-color="#FF9085"/>
<stop offset="1" stop-color="#FB6FBB"/>
</linearGradient>
<linearGradient id="paint12_linear" x1="120678" y1="81762.3" x2="135352" y2="86089.9" gradientUnits="userSpaceOnUse">
<stop stop-color="#311944"/>
<stop offset="1" stop-color="#893976"/>
</linearGradient>
<linearGradient id="paint13_linear" x1="144662" y1="78476.7" x2="135623" y2="99407" gradientUnits="userSpaceOnUse">
<stop stop-color="#FFC444"/>
<stop offset="1" stop-color="#F36F56"/>
</linearGradient>
<linearGradient id="paint14_linear" x1="101616" y1="62720.4" x2="94042.6" y2="79265.3" gradientUnits="userSpaceOnUse">
<stop stop-color="#FFC444"/>
<stop offset="1" stop-color="#F36F56"/>
</linearGradient>
<linearGradient id="paint15_linear" x1="121035" y1="45905.6" x2="135709" y2="50233" gradientUnits="userSpaceOnUse">
<stop stop-color="#311944"/>
<stop offset="1" stop-color="#893976"/>
</linearGradient>
<linearGradient id="paint16_linear" x1="145020" y1="42620.4" x2="135981" y2="63550.7" gradientUnits="userSpaceOnUse">
<stop stop-color="#FFC444"/>
<stop offset="1" stop-color="#F36F56"/>
</linearGradient>
<linearGradient id="paint17_linear" x1="101861" y1="34522.5" x2="94287.5" y2="51067.4" gradientUnits="userSpaceOnUse">
<stop stop-color="#FFC444"/>
<stop offset="1" stop-color="#F36F56"/>
</linearGradient>
<linearGradient id="paint18_linear" x1="141622" y1="70430.8" x2="159851" y2="75806.8" gradientUnits="userSpaceOnUse">
<stop stop-color="#311944"/>
<stop offset="1" stop-color="#893976"/>
</linearGradient>
<linearGradient id="paint19_linear" x1="169995" y1="66359.9" x2="158763" y2="92362.2" gradientUnits="userSpaceOnUse">
<stop stop-color="#FFC444"/>
<stop offset="1" stop-color="#F36F56"/>
</linearGradient>
<linearGradient id="paint20_linear" x1="119594" y1="53430" x2="110184" y2="73983.5" gradientUnits="userSpaceOnUse">
<stop stop-color="#FFC444"/>
<stop offset="1" stop-color="#F36F56"/>
</linearGradient>
<linearGradient id="paint21_linear" x1="-18027.3" y1="12159.2" x2="-18760.5" y2="12159.2" gradientUnits="userSpaceOnUse">
<stop stop-color="#AA80F9"/>
<stop offset="1" stop-color="#6165D7"/>
</linearGradient>
<linearGradient id="paint22_linear" x1="144.076" y1="336.482" x2="140.982" y2="336.482" gradientUnits="userSpaceOnUse">
<stop stop-color="#F36F56"/>
<stop offset="1" stop-color="#FFC444"/>
</linearGradient>
<linearGradient id="paint23_linear" x1="-16371.4" y1="30504.7" x2="-16813.4" y2="30504.7" gradientUnits="userSpaceOnUse">
<stop stop-color="#AA80F9"/>
<stop offset="1" stop-color="#6165D7"/>
</linearGradient>
<linearGradient id="paint24_linear" x1="14856.7" y1="30989" x2="15207.7" y2="30989" gradientUnits="userSpaceOnUse">
<stop stop-color="#F36F56"/>
<stop offset="1" stop-color="#FFC444"/>
</linearGradient>
<linearGradient id="paint25_linear" x1="-54117.2" y1="189575" x2="-45584.3" y2="190916" gradientUnits="userSpaceOnUse">
<stop stop-color="#311944"/>
<stop offset="1" stop-color="#893976"/>
</linearGradient>
<linearGradient id="paint26_linear" x1="-80473.6" y1="183920" x2="-68476.2" y2="186857" gradientUnits="userSpaceOnUse">
<stop stop-color="#311944"/>
<stop offset="1" stop-color="#893976"/>
</linearGradient>
<linearGradient id="paint27_linear" x1="-162812" y1="182302" x2="-150851" y2="168882" gradientUnits="userSpaceOnUse">
<stop stop-color="#444B8C"/>
<stop offset="1" stop-color="#26264F"/>
</linearGradient>
<linearGradient id="paint28_linear" x1="-187089" y1="161388" x2="-197729" y2="222879" gradientUnits="userSpaceOnUse">
<stop stop-color="#FF9085"/>
<stop offset="1" stop-color="#FB6FBB"/>
</linearGradient>
<linearGradient id="paint29_linear" x1="-128135" y1="133615" x2="-139353" y2="184096" gradientUnits="userSpaceOnUse">
<stop stop-color="#FF9085"/>
<stop offset="1" stop-color="#FB6FBB"/>
</linearGradient>
<linearGradient id="paint30_linear" x1="-70524.2" y1="70727.9" x2="-76159.1" y2="97488.6" gradientUnits="userSpaceOnUse">
<stop stop-color="#FF9085"/>
<stop offset="1" stop-color="#FB6FBB"/>
</linearGradient>
<linearGradient id="paint31_linear" x1="-90050.9" y1="65972.8" x2="-79574.5" y2="93999.3" gradientUnits="userSpaceOnUse">
<stop stop-color="#444B8C"/>
<stop offset="1" stop-color="#26264F"/>
</linearGradient>
<linearGradient id="paint32_linear" x1="-14779.3" y1="26398.2" x2="-14313.6" y2="26911.8" gradientUnits="userSpaceOnUse">
<stop stop-color="#F36F56"/>
<stop offset="1" stop-color="#FFC444"/>
</linearGradient>
<linearGradient id="paint33_linear" x1="-2264.28" y1="11301.9" x2="-1599.11" y2="11513.9" gradientUnits="userSpaceOnUse">
<stop stop-color="#F36F56"/>
<stop offset="1" stop-color="#FFC444"/>
</linearGradient>
<linearGradient id="paint34_linear" x1="-72100.1" y1="69110.5" x2="-87170.1" y2="69110.5" gradientUnits="userSpaceOnUse">
<stop stop-color="#444B8C"/>
<stop offset="1" stop-color="#26264F"/>
</linearGradient>
<linearGradient id="paint35_linear" x1="9513.55" y1="19729.3" x2="9226.96" y2="18975.6" gradientUnits="userSpaceOnUse">
<stop stop-color="#F36F56"/>
<stop offset="1" stop-color="#FFC444"/>
</linearGradient>
</defs>
</svg>
