<svg width="400" height="400" viewBox="0 0 400 400" fill="none" xmlns="http://www.w3.org/2000/svg">
<path d="M197.541 350.943C280.905 350.943 348.484 283.364 348.484 200C348.484 116.636 280.905 49.0566 197.541 49.0566C114.177 49.0566 46.5977 116.636 46.5977 200C46.5977 283.364 114.177 350.943 197.541 350.943Z" fill="#252A44"/>
<path d="M210.251 323.588C208.588 323.031 207.101 322.045 205.942 320.728C204.783 319.412 203.992 317.813 203.649 316.093L198.743 291.808L156.765 293.298L151.604 318.598C150.881 322.142 153.777 325.697 157.112 327.002L174.673 333.873C177.935 335.15 181.448 335.659 184.939 335.361L222.052 332.183C222.58 332.136 223.076 331.907 223.456 331.535C223.835 331.163 224.074 330.672 224.132 330.145C224.26 329.05 225.02 327.821 223.985 327.478L210.251 323.588Z" fill="#97A6B7"/>
<path d="M210.667 322.112C209.013 321.57 207.531 320.599 206.373 319.299C205.214 317.999 204.421 316.415 204.072 314.709L199.17 290.73L158.22 292.204L153.06 317.185C152.709 318.879 152.971 320.642 153.799 322.161C154.627 323.68 155.967 324.856 157.58 325.48L175.124 332.265C178.387 333.527 181.894 334.029 185.38 333.735L222.455 330.599C222.981 330.556 223.475 330.331 223.855 329.964C224.234 329.597 224.475 329.11 224.536 328.586C224.597 328.061 224.475 327.532 224.191 327.087C223.906 326.643 223.476 326.31 222.974 326.147L210.667 322.112Z" fill="url(#paint0_linear)"/>
<path d="M71.0034 307.948C66.4525 308.22 62.7285 305.267 62.7285 301.365V160.717C62.7285 156.814 66.4525 153.801 71.0034 153.998L282.416 168.634C285.758 168.779 287.55 166.081 287.55 169.401V289.02C287.55 292.34 284.845 295.201 281.503 295.4L71.0034 307.948Z" fill="#97A6B7"/>
<path d="M72.896 307.948C68.344 308.22 64.6211 305.267 64.6211 301.365V160.717C64.6211 156.814 68.344 153.801 72.896 153.998L283.395 163.119C286.738 163.264 289.443 166.081 289.443 169.401V289.02C289.443 292.34 286.736 295.201 283.395 295.4L72.896 307.948Z" fill="white"/>
<g style="mix-blend-mode:multiply" opacity="0.3">
<path d="M283.393 165.93L72.8943 157.274C70.4609 157.174 68.4824 158.784 68.4824 160.866V301.153C68.4824 303.237 70.4609 304.812 72.8943 304.673L283.393 292.584C285.184 292.482 286.628 290.955 286.628 289.174V169.292C286.62 168.424 286.281 167.593 285.68 166.967C285.078 166.342 284.26 165.971 283.393 165.93Z" fill="#D8DEE8"/>
</g>
<path d="M281.833 282.463L75.1762 292.664C73.0069 292.772 71.2441 291.337 71.2441 289.461V162.708C71.2441 160.832 73.0069 159.377 75.1762 159.458L281.833 167.128C282.618 167.162 283.36 167.495 283.906 168.06C284.452 168.625 284.76 169.378 284.767 170.164V279.391C284.758 280.179 284.45 280.935 283.905 281.505C283.361 282.075 282.62 282.418 281.833 282.463Z" fill="url(#paint1_linear)"/>
<g style="mix-blend-mode:soft-light" opacity="0.6">
<path d="M126.73 172.844L79.5352 171.456V166.956L126.73 168.482V172.844Z" fill="white"/>
</g>
<g style="mix-blend-mode:soft-light" opacity="0.36">
<path d="M148.955 172.252L138.053 171.922V168.849L148.955 169.201V172.252Z" fill="white"/>
</g>
<g style="mix-blend-mode:soft-light" opacity="0.36">
<path d="M148.955 176.493L138.053 176.194V173.12L148.955 173.44V176.493Z" fill="white"/>
</g>
<path d="M203.287 177.98L160.99 176.822V173.795L203.287 175.042V177.98Z" fill="url(#paint2_linear)"/>
<path opacity="0.5" d="M210.222 182.232L168.346 181.207V178.196L210.222 179.308V182.232Z" fill="url(#paint3_linear)"/>
<path opacity="0.5" d="M210.222 186.294L168.346 185.391V182.38L210.222 183.37V186.294Z" fill="url(#paint4_linear)"/>
<g style="mix-blend-mode:soft-light" opacity="0.6">
<path d="M210.222 190.357L168.346 189.574V186.563L210.222 187.433V190.357Z" fill="white"/>
</g>
<g style="mix-blend-mode:soft-light" opacity="0.36">
<path d="M148.955 180.732L138.053 180.466V177.391L148.955 177.681V180.732Z" fill="white"/>
</g>
<g style="mix-blend-mode:soft-light" opacity="0.36">
<path d="M148.955 184.973L138.053 184.736V181.663L148.955 181.92V184.973Z" fill="white"/>
</g>
<g style="mix-blend-mode:soft-light" opacity="0.36">
<path d="M148.955 189.212L138.053 189.008V185.934L148.955 186.161V189.212Z" fill="white"/>
</g>
<g style="mix-blend-mode:soft-light" opacity="0.36">
<path d="M148.955 193.451L138.053 193.28V190.205L148.955 190.4V193.451Z" fill="white"/>
</g>
<g style="mix-blend-mode:soft-light" opacity="0.6">
<path d="M178.17 193.914L151.334 193.489V190.443L178.17 190.923V193.914Z" fill="white"/>
</g>
<g style="mix-blend-mode:soft-light" opacity="0.36">
<path d="M148.955 197.692L138.053 197.55V194.477L148.955 194.64V197.692Z" fill="white"/>
</g>
<g style="mix-blend-mode:soft-light" opacity="0.36">
<path d="M148.955 201.931L138.053 201.822V198.748L148.955 198.88V201.931Z" fill="white"/>
</g>
<g style="mix-blend-mode:soft-light" opacity="0.36">
<path d="M148.955 206.171L138.053 206.094V203.019L148.955 203.119V206.171Z" fill="white"/>
</g>
<path opacity="0.5" d="M190.743 198.231L160.99 197.847V194.821L190.743 195.267V198.231Z" fill="url(#paint5_linear)"/>
<g style="mix-blend-mode:soft-light" opacity="0.6">
<path d="M206.199 202.505L168.346 202.126V199.115L206.199 199.573V202.505Z" fill="white"/>
</g>
<path d="M206.199 206.579L168.346 206.309V203.298L206.199 203.647V206.579Z" fill="url(#paint6_linear)"/>
<g style="mix-blend-mode:soft-light" opacity="0.36">
<path d="M148.955 210.411L138.053 210.364V207.291L148.955 207.36V210.411Z" fill="white"/>
</g>
<g style="mix-blend-mode:soft-light" opacity="0.36">
<path d="M148.955 214.65L138.053 214.636V211.561L148.955 211.599V214.65Z" fill="white"/>
</g>
<g style="mix-blend-mode:soft-light" opacity="0.36">
<path d="M148.955 218.891L138.053 218.908V215.833L148.955 215.839V218.891Z" fill="white"/>
</g>
<g style="mix-blend-mode:soft-light" opacity="0.36">
<path d="M148.955 223.13L138.053 223.178V220.105L148.955 220.079V223.13Z" fill="white"/>
</g>
<g style="mix-blend-mode:soft-light" opacity="0.36">
<path d="M148.955 227.37L138.053 227.45V224.376L148.955 224.318V227.37Z" fill="white"/>
</g>
<g style="mix-blend-mode:soft-light" opacity="0.36">
<path d="M148.955 231.61L138.053 231.722V228.647L148.955 228.558V231.61Z" fill="white"/>
</g>
<g style="mix-blend-mode:soft-light" opacity="0.36">
<path d="M148.955 235.85L138.053 235.992V232.919L148.955 232.798V235.85Z" fill="white"/>
</g>
<g style="mix-blend-mode:soft-light" opacity="0.36">
<path d="M148.955 240.09L138.053 240.264V237.189L148.955 237.038V240.09Z" fill="white"/>
</g>
<g style="mix-blend-mode:soft-light" opacity="0.36">
<path d="M148.955 244.33L138.053 244.536V241.461L148.955 241.278V244.33Z" fill="white"/>
</g>
<g style="mix-blend-mode:soft-light" opacity="0.36">
<path d="M148.955 248.569L138.053 248.806V245.733L148.955 245.518V248.569Z" fill="white"/>
</g>
<g style="mix-blend-mode:soft-light" opacity="0.36">
<path d="M148.955 252.809L138.053 253.078V250.003L148.955 249.757V252.809Z" fill="white"/>
</g>
<g style="mix-blend-mode:soft-light" opacity="0.36">
<path d="M148.955 257.049L138.053 257.349V254.275L148.955 253.997V257.049Z" fill="white"/>
</g>
<g style="mix-blend-mode:soft-light" opacity="0.36">
<path d="M148.955 261.288L138.053 261.62V258.547L148.955 258.237V261.288Z" fill="white"/>
</g>
<g style="mix-blend-mode:soft-light" opacity="0.36">
<path d="M148.955 265.529L138.053 265.892V262.818L148.955 262.477V265.529Z" fill="white"/>
</g>
<g style="mix-blend-mode:soft-light" opacity="0.36">
<path d="M148.955 269.768L138.053 270.163V267.089L148.955 266.717V269.768Z" fill="white"/>
</g>
<g style="mix-blend-mode:soft-light" opacity="0.36">
<path d="M148.955 274.009L138.053 274.435V271.361L148.955 270.956V274.009Z" fill="white"/>
</g>
<g style="mix-blend-mode:soft-light" opacity="0.36">
<path d="M148.955 278.248L138.053 278.706V275.632L148.955 275.197V278.248Z" fill="white"/>
</g>
<g style="mix-blend-mode:soft-light" opacity="0.36">
<path d="M148.955 282.487L138.053 282.977V279.903L148.955 279.436V282.487Z" fill="white"/>
</g>
<path opacity="0.5" d="M180.993 173.222L151.26 172.322V169.276L180.993 170.237V173.222Z" fill="url(#paint7_linear)"/>
<g style="mix-blend-mode:soft-light" opacity="0.6">
<path d="M203.287 259.634L160.99 260.922V257.895L203.287 256.695V259.634Z" fill="white"/>
</g>
<path opacity="0.5" d="M210.222 263.486L168.346 264.882V261.871L210.222 260.562V263.486Z" fill="url(#paint8_linear)"/>
<path opacity="0.5" d="M210.222 267.548L168.346 269.066V266.055L210.222 264.624V267.548Z" fill="url(#paint9_linear)"/>
<path opacity="0.5" d="M228.268 270.905L187.477 272.501V269.53L228.268 268.018V270.905Z" fill="url(#paint10_linear)"/>
<path d="M228.268 274.915L187.477 276.63V273.658L228.268 272.029V274.915Z" fill="url(#paint11_linear)"/>
<g style="mix-blend-mode:soft-light" opacity="0.6">
<path d="M228.268 278.926L187.477 280.758V277.787L228.268 276.04V278.926Z" fill="white"/>
</g>
<path opacity="0.5" d="M180.993 256.166L151.26 256.985V253.938L180.993 253.181V256.166Z" fill="url(#paint12_linear)"/>
<path opacity="0.5" d="M203.287 214.725L160.99 214.667V211.64L203.287 211.786V214.725Z" fill="url(#paint13_linear)"/>
<g style="mix-blend-mode:soft-light" opacity="0.6">
<path d="M210.222 218.796L168.346 218.86V215.849L210.222 215.872V218.796Z" fill="white"/>
</g>
<path opacity="0.5" d="M210.222 222.859L168.346 223.045V220.034L210.222 219.934V222.859Z" fill="url(#paint14_linear)"/>
<path opacity="0.5" d="M210.222 226.922L168.346 227.228V224.217L210.222 223.998V226.922Z" fill="url(#paint15_linear)"/>
<path opacity="0.5" d="M178.17 231.311L151.334 231.586V228.539L178.17 228.321V231.311Z" fill="url(#paint16_linear)"/>
<g style="mix-blend-mode:soft-light" opacity="0.6">
<path d="M190.743 235.302L160.99 235.692V232.665L190.743 232.338V235.302Z" fill="white"/>
</g>
<path d="M206.199 239.174L168.346 239.779V236.769L206.199 236.242V239.174Z" fill="url(#paint17_linear)"/>
<path opacity="0.5" d="M206.199 243.249L168.346 243.963V240.952L206.199 240.316V243.249Z" fill="url(#paint18_linear)"/>
<path opacity="0.5" d="M214.594 247.14L177.195 247.955V244.962L214.594 244.224V247.14Z" fill="url(#paint19_linear)"/>
<path opacity="0.5" d="M214.594 251.19L177.195 252.112V249.12L214.594 248.275V251.19Z" fill="url(#paint20_linear)"/>
<path d="M180.993 210.547L151.26 210.42V207.374L180.993 207.562V210.547Z" fill="url(#paint21_linear)"/>
<g style="mix-blend-mode:soft-light">
<path d="M126.728 179.658L99.7148 178.988V174.547L126.728 175.297V179.658Z" fill="white"/>
</g>
<g style="mix-blend-mode:soft-light" opacity="0.6">
<path d="M92.7305 178.814L97.8183 178.94V174.494L92.7305 174.353V178.814Z" fill="white"/>
</g>
<g style="mix-blend-mode:soft-light" opacity="0.6">
<path d="M126.728 185.928L99.7148 185.372V180.931L126.728 181.567V185.928Z" fill="white"/>
</g>
<g style="mix-blend-mode:soft-light" opacity="0.6">
<path d="M92.7305 185.227L97.8183 185.332V180.885L92.7305 180.766V185.227Z" fill="white"/>
</g>
<g style="mix-blend-mode:soft-light" opacity="0.6">
<path d="M126.728 192.197L99.7148 191.754V187.313L126.728 187.836V192.197Z" fill="white"/>
</g>
<g style="mix-blend-mode:soft-light" opacity="0.6">
<path d="M92.7305 191.64L97.8183 191.723V187.277L92.7305 187.178V191.64Z" fill="white"/>
</g>
<g style="mix-blend-mode:soft-light">
<path d="M126.73 236.701L79.5352 237.337V232.838L126.73 232.34V236.701Z" fill="white"/>
</g>
<g style="mix-blend-mode:soft-light" opacity="0.6">
<path d="M126.728 243.516L99.7148 244.003V239.563L126.728 239.155V243.516Z" fill="white"/>
</g>
<g style="mix-blend-mode:soft-light" opacity="0.6">
<path d="M92.7305 244.129L97.8183 244.038V239.591L92.7305 239.669V244.129Z" fill="white"/>
</g>
<g style="mix-blend-mode:soft-light" opacity="0.6">
<path d="M126.728 249.785L99.7148 250.387V245.946L126.728 245.423V249.785Z" fill="white"/>
</g>
<g style="mix-blend-mode:soft-light" opacity="0.6">
<path d="M92.7305 250.542L97.8183 250.429V245.983L92.7305 246.081V250.542Z" fill="white"/>
</g>
<g style="mix-blend-mode:soft-light" opacity="0.6">
<path d="M126.728 256.055L99.7148 256.77V252.33L126.728 251.694V256.055Z" fill="white"/>
</g>
<g style="mix-blend-mode:soft-light" opacity="0.6">
<path d="M92.7305 256.955L97.8183 256.82V252.374L92.7305 252.494V256.955Z" fill="white"/>
</g>
<g style="mix-blend-mode:soft-light">
<path d="M126.73 198.51L79.5352 197.935V193.435L126.73 194.148V198.51Z" fill="white"/>
</g>
<g style="mix-blend-mode:soft-light" opacity="0.6">
<path d="M126.728 205.324L99.7148 205.119V200.679L126.728 200.963V205.324Z" fill="white"/>
</g>
<g style="mix-blend-mode:soft-light" opacity="0.6">
<path d="M92.7305 205.066L97.8183 205.105V200.659L92.7305 200.605V205.066Z" fill="white"/>
</g>
<g style="mix-blend-mode:soft-light" opacity="0.6">
<path d="M126.728 211.595L99.7148 211.503V207.062L126.728 207.232V211.595Z" fill="white"/>
</g>
<g style="mix-blend-mode:soft-light" opacity="0.6">
<path d="M92.7305 211.479L97.8183 211.496V207.05L92.7305 207.018V211.479Z" fill="white"/>
</g>
<g style="mix-blend-mode:soft-light" opacity="0.6">
<path d="M126.728 224.215L99.7148 224.353V219.912L126.728 219.853V224.215Z" fill="white"/>
</g>
<g style="mix-blend-mode:soft-light" opacity="0.6">
<path d="M92.7305 224.388L97.8183 224.362V219.916L92.7305 219.927V224.388Z" fill="white"/>
</g>
<g style="mix-blend-mode:soft-light" opacity="0.6">
<path d="M126.728 230.484L99.7148 230.735V226.295L126.728 226.123V230.484Z" fill="white"/>
</g>
<g style="mix-blend-mode:soft-light" opacity="0.6">
<path d="M92.7305 230.801L97.8183 230.754V226.307L92.7305 226.34V230.801Z" fill="white"/>
</g>
<g style="mix-blend-mode:soft-light" opacity="0.6">
<path d="M126.728 217.864L99.7148 217.886V213.446L126.728 213.502V217.864Z" fill="white"/>
</g>
<g style="mix-blend-mode:soft-light" opacity="0.6">
<path d="M92.7305 217.892L97.8183 217.888V213.442L92.7305 213.431V217.892Z" fill="white"/>
</g>
<g style="mix-blend-mode:soft-light">
<path d="M126.73 262.322L79.5352 263.77V259.271L126.73 257.961V262.322Z" fill="white"/>
</g>
<g style="mix-blend-mode:soft-light" opacity="0.6">
<path d="M126.728 269.138L99.7148 270.09V265.65L126.728 264.775V269.138Z" fill="white"/>
</g>
<g style="mix-blend-mode:soft-light" opacity="0.6">
<path d="M92.7305 270.336L97.8183 270.156V265.711L92.7305 265.875V270.336Z" fill="white"/>
</g>
<g style="mix-blend-mode:soft-light" opacity="0.6">
<path d="M126.728 275.407L99.7148 276.473V272.032L126.728 271.045V275.407Z" fill="white"/>
</g>
<g style="mix-blend-mode:soft-light" opacity="0.6">
<path d="M92.7305 276.749L97.8183 276.548V272.102L92.7305 272.288V276.749Z" fill="white"/>
</g>
<g style="mix-blend-mode:soft-light" opacity="0.6">
<path d="M126.728 281.677L99.7148 282.856V278.416L126.728 277.314V281.677Z" fill="white"/>
</g>
<g style="mix-blend-mode:soft-light" opacity="0.6">
<path d="M92.7305 283.162L97.8183 282.939V278.494L92.7305 278.701V283.162Z" fill="white"/>
</g>
<g style="mix-blend-mode:soft-light" opacity="0.6">
<path d="M132.466 281.447L131.426 281.492V168.634L132.466 168.667V281.447Z" fill="white"/>
</g>
<g style="mix-blend-mode:soft-light" opacity="0.6">
<path d="M261.419 286.694C215.597 287.652 205.292 294.195 192.271 286.356C174.38 275.583 182.528 256.421 165.101 246.369C143.187 233.733 117.919 256.876 106.481 245.593C95.0852 234.356 116.602 207.911 104.151 178.437C99.1531 166.607 90.641 158.922 84.7617 154.518L72.9019 154.003C68.3499 153.806 64.627 156.819 64.627 160.722V301.365C64.627 305.267 68.3499 308.22 72.9019 307.948L283.401 295.4C286.743 295.201 289.449 292.34 289.449 289.02V286.894C283.133 286.67 273.361 286.444 261.419 286.694Z" fill="white"/>
</g>
<path d="M129.165 105.56C131.674 104.828 135.027 109.434 137.814 113.265C141.985 118.994 146.858 125.688 145.545 133.726C144.251 141.635 137.474 147.794 135.542 146.913C133.889 146.159 137.066 140.841 134.632 133.726C132.667 127.986 129.413 127.984 127.231 122.356C124.522 115.371 126.079 106.462 129.165 105.56Z" fill="url(#paint22_linear)"/>
<path d="M130.406 141.988C143.329 145.125 151.84 150.161 156.811 153.723C159.507 155.654 160.75 156.858 161.421 158.614C165.249 168.615 145.583 183.735 143.487 185.322L140.741 178.918C142.772 167.764 146.156 164.264 148.987 163.224C149.779 162.933 151.109 162.62 151.083 162.246C151.023 161.36 143.552 162.622 136.413 160.01C129.297 157.406 122.144 150.815 123.42 146.458C123.653 145.66 124.63 143.364 130.406 141.988Z" fill="url(#paint23_linear)"/>
<path d="M142.936 215.094C142.936 215.094 141.733 215.526 141.729 216.474C141.724 217.423 142.947 221.616 144.276 223.105C145.606 224.594 145.723 222.372 145.641 220.941C145.559 219.511 145.21 216.305 144.886 215.687C144.563 215.07 142.936 215.094 142.936 215.094Z" fill="url(#paint24_linear)"/>
<path style="mix-blend-mode:multiply" opacity="0.3" d="M146.798 156.61C149.146 156.565 154.647 156.126 156.112 158.846C157.334 161.111 155.194 164.554 153.877 166.67C150.298 172.421 146.824 173.009 144.376 176.542C143.43 177.911 142.571 179.82 142.299 182.55C141.779 181.339 141.26 180.128 140.741 178.918C142.772 167.764 146.155 164.264 148.987 163.224C149.779 162.933 151.108 162.62 151.083 162.246C151.022 161.36 143.552 162.622 136.413 160.01C129.925 157.638 123.43 151.955 123.295 147.667C133.57 155.04 141.304 156.718 146.798 156.61Z" fill="url(#paint25_linear)"/>
<path d="M142.242 211.052C142.312 212.518 142.437 213.748 142.549 214.653C142.797 216.667 143.026 217.464 143.338 218.19C143.61 218.823 144.292 220.202 144.617 220.106C144.943 220.01 144.608 218.481 144.351 214.231C144.313 213.613 144.199 211.65 144.199 211.65L142.242 211.052Z" fill="url(#paint26_linear)"/>
<path d="M122.956 142.826C128.699 146.27 133.804 150.682 138.044 155.865C141.362 159.934 146.408 166.123 148.234 175.352C149.205 180.271 148.729 184.684 147.731 193.308C146.943 200.136 145.767 206.914 144.207 213.609L142.49 214.299C140.956 211.481 138.95 207.021 138.231 201.318C137.055 191.986 140.545 189.027 138.869 182.403C137.418 176.671 133.212 173.156 124.801 166.123C117.89 160.346 111.518 156.92 109.153 149.715C108.752 148.492 108.41 146.991 109.064 145.618C110.476 142.659 115.875 141.626 122.956 142.826Z" fill="url(#paint27_linear)"/>
<path d="M117.011 106.092C118.943 105.677 122.122 105.759 125.151 103.373C126.064 102.655 129.295 100.11 128.903 96.4723C128.557 93.2669 125.52 91.5451 125.147 91.3391C122.991 90.1532 120.853 90.4184 118.474 90.744C115.391 91.1656 114.367 92.0076 112.221 92.5855C106.924 94.0162 105.131 91.0308 99.7951 91.2831C92.9735 91.6065 92.3838 96.6416 86.6414 96.7677C80.1994 96.9079 78.9649 90.6028 72.6037 89.5354C63.7746 88.0518 50.4161 97.5569 50.6857 108.511C50.8409 114.84 55.5536 122.096 61.5751 124.27C65.0835 125.539 68.8689 125.132 69.9493 127.417C70.7191 129.041 68.9897 130.291 69.1536 133.12C69.3692 136.767 72.5034 139.326 73.0102 139.739C77.7175 143.575 88.2695 141.638 95.4759 136.209C108.47 126.423 106.503 108.356 117.011 106.092Z" fill="url(#paint28_linear)"/>
<path d="M102.085 104.798C107.074 104.183 112.093 103.84 117.119 103.771C128.979 103.611 130.669 105.114 131.104 106.226C131.914 108.301 130.527 109.34 131.32 112.956C131.791 115.119 131.345 116.105 132.255 118.428C133.143 120.692 132.447 121.909 131.662 127.219C130.66 134.012 130.197 137.462 132.094 140.196C133.413 142.098 134.89 142.259 134.75 143.162C134.451 145.087 127.796 144.025 119.37 147.72C116.931 148.789 114.687 150.108 112.804 151.213C108.397 153.801 107.58 154.79 105.539 155.963C99.0834 159.671 89.3864 160.028 84.2996 155.544C82.4042 153.872 81.0231 151.413 81.6452 150.514C82.4915 149.289 86.2813 152.072 89.7476 150.374C92.0484 149.251 91.6117 147.431 94.2759 145.288C97.4759 142.708 99.7012 144.06 101.88 142.377C105.279 139.76 103.732 133.491 102.778 122.982C102.233 116.937 102.002 110.867 102.085 104.798Z" fill="url(#paint29_linear)"/>
<path d="M114.913 102.351C113.295 103.354 110.682 104.665 110.394 105.021C110.106 105.377 118.311 106.782 123.417 104.205C123.417 104.205 124.209 103.766 121.13 103.15C120.475 103.019 120.603 101.743 120.691 100.424L120.075 99.2809C120.075 99.2809 116.529 101.348 114.913 102.351Z" fill="url(#paint30_linear)"/>
<path d="M118.993 98.5047C118.993 98.5047 118.358 101.2 120.728 102.524C122.85 103.715 126.442 98.8346 125.768 97.0254C125.544 96.4206 124.745 95.6432 123.911 95.3812C123.323 95.1979 121.107 95.2734 120.15 97.1397C119.901 96.592 119.455 96.3052 119.155 96.3958C118.774 96.509 118.718 97.2022 118.705 97.3586C118.679 97.7613 118.78 98.1621 118.993 98.5047Z" fill="url(#paint31_linear)"/>
<path style="mix-blend-mode:multiply" opacity="0.3" d="M122.666 141.631C120.225 142.644 119.895 144.83 116.52 146.07C113.301 147.256 112.22 145.77 109.008 146.753C104.186 148.229 102.341 152.882 101.611 152.443C100.943 152.041 101.584 147.591 104.684 144.704C108.242 141.392 112.079 142.909 114.357 139.47C115.245 138.132 115.927 135.994 115.154 134.348C114.106 132.119 111.37 132.892 109.92 131.048C107.314 127.735 113.412 121.76 111.741 116.708C111.073 114.692 108.949 112.166 102.101 110.474C102.193 115.542 102.486 119.768 102.777 122.981C103.731 133.49 105.277 139.759 101.879 142.376C99.6996 144.055 97.4742 142.7 94.2742 145.287C91.6144 147.43 92.051 149.25 89.7459 150.373C86.2742 152.071 82.4899 149.289 81.6435 150.513C81.0214 151.413 82.3982 153.871 84.2979 155.543C89.3804 160.027 99.0775 159.67 105.538 155.962C107.579 154.789 108.395 153.8 112.803 151.212C114.685 150.107 116.93 148.788 119.369 147.719C125.281 145.131 130.318 144.876 132.903 144.291C127.772 140.867 124.646 140.809 122.666 141.631Z" fill="url(#paint32_linear)"/>
<path d="M146.225 145.065L115.257 146.575C115.047 146.585 114.843 146.646 114.661 146.752C114.48 146.859 114.328 147.008 114.217 147.186L113.359 148.561C113.263 148.716 113.21 148.894 113.207 149.077C113.204 149.26 113.251 149.44 113.343 149.598C113.434 149.756 113.567 149.886 113.727 149.974C113.887 150.062 114.068 150.105 114.251 150.098L147.054 148.849L146.225 145.065Z" fill="url(#paint33_linear)"/>
<path d="M174.654 127.957L142.661 128.577C142.196 128.586 141.741 128.716 141.341 128.954C140.941 129.192 140.61 129.53 140.38 129.934L129.301 149.426L163.089 148.08C163.546 148.062 163.991 147.93 164.384 147.697C164.777 147.464 165.105 147.136 165.34 146.744L175.605 129.601C175.707 129.435 175.763 129.245 175.766 129.05C175.768 128.855 175.718 128.663 175.621 128.495C175.523 128.326 175.382 128.187 175.212 128.092C175.041 127.998 174.849 127.951 174.654 127.957Z" fill="url(#paint34_linear)"/>
<path style="mix-blend-mode:multiply" opacity="0.3" d="M140.378 129.934C140.608 129.53 140.939 129.192 141.339 128.954C141.739 128.716 142.194 128.586 142.659 128.577L143.36 128.563C143.468 129.596 143.782 130.541 144.414 131.304C146.387 133.685 149.664 132.216 152.106 134.736C154.79 137.504 152.311 140.8 154.71 143.376C157.236 146.087 161.319 143.879 166.014 145.615L165.338 146.744C165.103 147.136 164.775 147.464 164.382 147.697C163.989 147.93 163.544 148.062 163.088 148.08L129.299 149.426L140.378 129.934Z" fill="url(#paint35_linear)"/>
<path d="M120.331 145.081C120.68 144.161 121.029 143.239 121.378 142.317C117.521 141.259 112.188 139.697 106.715 137.742C105.363 137.259 104.868 136.635 104.507 136.155C101.704 132.436 108.84 125.873 108.712 117.356C108.622 111.453 105.046 104.702 101.89 104.624C95.4805 104.469 81.3478 131.667 93.2508 143.276C99.1613 149.037 110.199 149.706 120.331 145.081Z" fill="url(#paint36_linear)"/>
<path d="M121.377 142.318C123.799 141.032 126.697 142.35 126.883 142.439C127.663 142.809 128.371 143.316 128.972 143.936C129.06 144.057 130.111 145.513 129.726 145.979C129.419 146.353 128.232 146.042 126.804 145.155C125.958 145.035 125.1 145.014 124.248 145.092C122.288 145.273 121.39 145.892 120.679 145.357C120.159 144.966 119.981 144.139 120.168 143.525C120.371 142.863 120.97 142.534 121.377 142.318Z" fill="url(#paint37_linear)"/>
<path d="M219.979 126.876C219.585 126.867 219.201 126.745 218.874 126.525C218.547 126.305 218.29 125.995 218.133 125.633L206.63 99.8071C206.506 99.5266 206.442 99.2232 206.441 98.9165V72.2071C206.441 71.0416 207.359 70.1262 208.49 70.1585C209.621 70.1909 210.538 71.1688 210.538 72.3321V98.5445L221.821 123.918C222.292 124.976 221.849 126.218 220.832 126.692C220.565 126.817 220.273 126.879 219.979 126.876Z" fill="#D8DEE8"/>
<path d="M249.677 127.267C248.58 127.254 247.691 126.313 247.691 125.165V111.791L237.186 100.622C236.809 100.218 236.599 99.6866 236.6 99.1342V73.2464C236.6 72.0949 237.496 71.1903 238.602 71.2259C239.708 71.2614 240.601 72.2242 240.601 73.3736V98.3612L251.078 109.525C251.453 109.925 251.661 110.454 251.659 111.003V125.217C251.659 126.361 250.772 127.281 249.677 127.267Z" fill="#D8DEE8"/>
<path d="M265.634 127.439C264.549 127.426 263.668 126.491 263.668 125.349V102.718C263.664 102.178 263.871 101.659 264.245 101.269L270.773 94.5553V74.2631C270.773 73.1246 271.649 72.2297 272.729 72.2653C273.809 72.3009 274.682 73.2508 274.682 74.3871V95.4976C274.685 96.0345 274.48 96.5518 274.109 96.9402L267.601 103.656V125.391C267.601 126.534 266.718 127.448 265.634 127.439Z" fill="#D8DEE8"/>
<path d="M204.637 263.72C203.494 263.763 202.568 262.847 202.568 261.677V240.484C202.569 239.92 202.786 239.377 203.174 238.967L211.894 229.79V210.983C211.894 209.816 212.815 208.854 213.951 208.835C214.222 208.833 214.491 208.886 214.742 208.99C214.993 209.094 215.221 209.247 215.412 209.44C215.602 209.634 215.753 209.863 215.854 210.115C215.954 210.368 216.004 210.637 215.999 210.909V230.562C215.999 231.123 215.784 231.663 215.398 232.071L206.7 241.244V261.522C206.704 262.69 205.78 263.672 204.637 263.72Z" fill="#D8DEE8"/>
<path d="M237.629 262.494C237.365 262.505 237.101 262.46 236.855 262.364C236.609 262.267 236.386 262.121 236.2 261.933C235.41 261.144 235.41 259.817 236.2 258.97L247.579 246.769V210.335C247.579 209.184 248.476 208.234 249.582 208.215C250.688 208.195 251.582 209.113 251.582 210.263V247.506C251.582 248.059 251.372 248.592 250.996 248.997L239.055 261.827C238.873 262.027 238.653 262.189 238.408 262.303C238.164 262.418 237.899 262.482 237.629 262.494Z" fill="#D8DEE8"/>
<path d="M269.846 261.302C269.587 261.311 269.33 261.267 269.089 261.172C268.849 261.076 268.631 260.931 268.451 260.746C267.679 259.967 267.679 258.655 268.451 257.819L280.971 244.234V235.129L262.761 216.441C261.986 215.646 261.986 214.332 262.761 213.507C262.937 213.312 263.151 213.154 263.39 213.045C263.629 212.935 263.888 212.876 264.151 212.871C264.414 212.866 264.675 212.915 264.918 213.015C265.161 213.115 265.381 213.264 265.564 213.452L284.309 232.728C284.68 233.115 284.885 233.632 284.881 234.168V244.97C284.881 245.516 284.677 246.042 284.309 246.444L271.242 260.644C271.065 260.841 270.85 261.001 270.61 261.114C270.37 261.226 270.111 261.29 269.846 261.302Z" fill="#D8DEE8"/>
<path d="M302.738 149.495L282.925 149.415C281.847 149.415 280.971 148.483 280.971 147.346C280.971 146.208 281.846 145.289 282.925 145.297L301.94 145.405L313.508 133.187C313.68 133.002 313.889 132.855 314.121 132.754C314.353 132.654 314.603 132.603 314.856 132.604L333.793 132.801C334.832 132.812 335.673 133.725 335.673 134.84C335.673 135.955 334.832 136.853 333.793 136.843L315.647 136.681L304.097 148.902C303.924 149.089 303.713 149.238 303.479 149.34C303.245 149.442 302.993 149.495 302.738 149.495Z" fill="#D8DEE8"/>
<path d="M286.095 189.695C285.837 189.697 285.581 189.646 285.344 189.544C285.107 189.443 284.894 189.294 284.717 189.106C284.349 188.711 284.145 188.191 284.145 187.651C284.145 187.111 284.349 186.591 284.717 186.195L303.612 166.082C303.785 165.894 303.995 165.744 304.229 165.641C304.462 165.537 304.715 165.483 304.97 165.481L333.795 165.427C334.833 165.427 335.674 166.328 335.674 167.444C335.674 168.56 334.833 169.465 333.795 169.47L305.763 169.563L287.469 189.078C287.294 189.269 287.082 189.422 286.845 189.528C286.609 189.634 286.354 189.691 286.095 189.695Z" fill="#D8DEE8"/>
<path d="M298.467 213.438L282.925 213.743C281.847 213.765 280.971 212.859 280.971 211.721C280.971 210.582 281.846 209.644 282.925 209.625L297.667 209.357L307.245 199.03C307.417 198.84 307.626 198.688 307.859 198.582C308.092 198.476 308.344 198.418 308.6 198.413L333.793 198.057C334.832 198.042 335.673 198.935 335.673 200.05C335.673 201.164 334.832 202.082 333.793 202.098L309.393 202.48L299.831 212.812C299.658 213.003 299.448 213.157 299.213 213.265C298.979 213.372 298.725 213.432 298.467 213.438Z" fill="#D8DEE8"/>
<path d="M341.859 134.897C341.859 139.683 338.254 143.541 333.794 143.512C329.334 143.483 325.68 139.556 325.68 134.741C325.68 129.926 329.319 126.068 333.794 126.126C338.269 126.184 341.859 130.11 341.859 134.897Z" fill="#D8DEE8"/>
<path d="M341.859 167.428C341.859 172.214 338.254 176.115 333.794 176.141C329.334 176.167 325.68 172.285 325.68 167.47C325.68 162.655 329.319 158.753 333.794 158.756C338.269 158.759 341.859 162.641 341.859 167.428Z" fill="#D8DEE8"/>
<path d="M341.859 199.958C341.859 204.744 338.254 208.691 333.794 208.771C329.334 208.851 325.68 205.015 325.68 200.198C325.68 195.382 329.319 191.437 333.794 191.384C338.269 191.332 341.859 195.171 341.859 199.958Z" fill="#D8DEE8"/>
<path d="M208.491 63.1989C213.343 63.3693 217.274 67.5558 217.274 72.5509C217.274 77.5461 213.348 81.4825 208.491 81.3445C203.617 81.2054 199.65 77.0178 199.65 71.9914C199.65 66.965 203.617 63.0286 208.491 63.1989Z" fill="#D8DEE8"/>
<path d="M238.599 64.345C243.343 64.5111 247.175 68.6469 247.175 73.5828C247.175 78.5186 243.343 82.4108 238.599 82.276C233.837 82.1402 229.967 78.0033 229.967 73.0361C229.967 68.069 233.84 64.1779 238.599 64.345Z" fill="#D8DEE8"/>
<path d="M272.729 65.4642C277.365 65.6259 281.109 69.7121 281.109 74.5908C281.109 79.4695 277.363 83.3186 272.729 83.186C268.078 83.0534 264.297 78.966 264.297 74.0571C264.297 69.1483 268.078 65.3003 272.729 65.4642Z" fill="#D8DEE8"/>
<path d="M204.637 252.481C209.54 252.319 213.502 256.254 213.502 261.274C213.502 266.294 209.54 270.517 204.637 270.711C199.716 270.906 195.715 266.969 195.715 261.919C195.715 256.869 199.717 252.643 204.637 252.481Z" fill="#D8DEE8"/>
<path d="M237.629 251.393C242.417 251.234 246.285 255.127 246.285 260.086C246.285 265.046 242.416 269.218 237.629 269.407C232.823 269.597 228.916 265.706 228.916 260.716C228.916 255.726 232.822 251.551 237.629 251.393Z" fill="#D8DEE8"/>
<path d="M269.846 250.33C274.523 250.176 278.302 254.024 278.302 258.925C278.302 263.826 274.528 267.949 269.846 268.134C265.163 268.318 261.336 264.468 261.336 259.541C261.336 254.613 265.153 250.485 269.846 250.33Z" fill="#D8DEE8"/>
<path d="M281.098 115.998L199.786 113.531C196.092 113.423 193.086 116.487 193.086 120.384V210.423C193.086 214.319 196.092 217.395 199.786 217.292L281.098 215.028C284.45 214.935 287.157 211.866 287.157 208.175V122.867C287.157 119.174 284.45 116.099 281.098 115.998Z" fill="url(#paint38_linear)"/>
<path d="M284.556 115.998L203.244 113.531C199.549 113.423 196.543 116.487 196.543 120.384V210.423C196.543 214.319 199.549 217.395 203.244 217.292L284.556 215.028C287.908 214.935 290.615 211.866 290.615 208.175V122.867C290.615 119.174 287.908 116.099 284.556 115.998Z" fill="url(#paint39_linear)"/>
<path d="M267.954 134.382L217.318 133.402C215.059 133.357 213.221 135.27 213.221 137.672V193.183C213.221 195.585 215.054 197.502 217.318 197.464L267.954 196.61C270.08 196.575 271.8 194.663 271.8 192.34V138.663C271.8 136.34 270.082 134.424 267.954 134.382Z" fill="url(#paint40_linear)"/>
<g style="mix-blend-mode:multiply" opacity="0.3">
<path style="mix-blend-mode:multiply" opacity="0.3" d="M252.318 169.466C248.368 149.018 226.414 147.156 220.699 126.447C219.547 122.271 219.271 118.094 219.603 114.024L203.244 113.528C199.549 113.42 196.543 116.484 196.543 120.381V210.419C196.543 214.316 199.549 217.392 203.244 217.288L249.389 216.005C248.502 213.052 247.881 210.026 247.534 206.962C245.481 188.645 255.076 183.752 252.318 169.466Z" fill="url(#paint41_linear)"/>
</g>
<path d="M271.412 134.382L220.775 133.402C218.511 133.357 216.678 135.27 216.678 137.672V193.183C216.678 195.585 218.511 197.502 220.775 197.464L271.412 196.61C273.538 196.575 275.258 194.663 275.258 192.34V138.663C275.257 136.34 273.538 134.424 271.412 134.382Z" fill="url(#paint42_linear)"/>
<g style="mix-blend-mode:multiply" opacity="0.3">
<path style="mix-blend-mode:multiply" opacity="0.3" d="M260.56 169.466C257.122 151.663 240.034 147.946 231.901 133.617L220.775 133.402C218.511 133.357 216.678 135.27 216.678 137.672V193.183C216.678 195.585 218.511 197.502 220.775 197.464L255.823 196.873C257.251 186.139 262.732 180.711 260.56 169.466Z" fill="url(#paint43_linear)"/>
</g>
<path d="M255.639 295.377L255.459 300.665C255.406 302.217 256.645 303.418 258.237 303.347L261.121 303.218C261.388 305.677 261.935 308.098 262.751 310.432L260.315 311.894C258.913 312.733 258.387 314.471 259.129 315.776L261.673 320.219C262.419 321.521 266.02 322.295 267.417 321.453L267.857 319.663C269.4 321.591 271.166 323.331 273.118 324.845L271.785 327.05C270.952 328.428 271.362 330.114 272.699 330.816L277.252 333.205C278.584 333.904 282.914 334.013 283.743 332.637L282.444 329.862C284.861 330.683 287.363 331.225 289.902 331.479L289.822 333.822C289.769 335.36 290.992 336.538 292.551 336.455L297.854 336.17C299.408 336.087 300.708 334.777 300.765 333.244L300.844 330.908C303.429 330.378 305.95 329.577 308.368 328.52L309.488 330.499C310.216 331.783 314.679 332.44 316.041 331.61L317.904 328.473C319.261 327.641 319.775 325.928 319.051 324.646L317.893 322.597C319.907 320.903 321.746 319.012 323.384 316.952L325.541 318.105C326.841 318.801 330.692 319.157 331.502 317.801L332.117 312.292C332.925 310.939 332.53 309.273 331.233 308.579L328.969 307.36C329.906 305.02 330.596 302.589 331.027 300.106L333.805 299.982C334.551 299.938 335.255 299.621 335.782 299.091C336.309 298.56 336.621 297.854 336.659 297.107L336.834 291.932C336.852 291.579 336.795 291.226 336.666 290.896C336.538 290.566 336.342 290.267 336.09 290.019C335.839 289.77 335.537 289.577 335.206 289.453C334.875 289.328 334.521 289.275 334.168 289.297L331.228 289.419C330.902 287.061 330.317 284.747 329.482 282.519L332.178 280.896C333.525 280.083 334.035 278.382 333.317 277.094L333.83 271.948C333.11 270.654 328.469 271.023 327.118 271.834L324.281 273.531C322.807 271.75 321.14 270.137 319.311 268.721L321.055 265.827C321.868 264.479 321.471 262.809 320.166 262.088L318.225 259.285C316.917 258.566 312.68 259.437 311.864 260.788L310.071 263.753C307.838 262.989 305.531 262.462 303.187 262.183L303.303 258.788C303.355 257.255 302.14 256.054 300.587 256.105L295.287 256.279C293.73 256.33 292.424 257.617 292.376 259.155L292.26 262.56C289.84 263.013 287.471 263.703 285.187 264.621L286.24 261.03C285.503 259.721 281.111 260.046 279.726 260.863L274.997 263.652C273.607 264.471 273.082 266.198 273.824 267.508L275.413 270.312C273.435 271.887 271.611 273.648 269.969 275.571L270.088 273.771C268.746 273.048 264.051 273.86 263.216 275.23L260.361 279.906C259.522 281.28 259.93 282.978 261.281 283.698L263.963 285.134C262.951 287.445 262.182 289.853 261.667 292.322L258.613 292.451C257.021 292.513 255.692 293.825 255.639 295.377ZM275.21 297.705C275.606 286.069 285.511 276.273 297.27 275.827C308.956 275.385 318.06 284.357 317.668 295.865C317.275 307.374 307.533 317.162 295.842 317.732C284.081 318.305 274.814 309.34 275.21 297.705Z" fill="url(#paint44_linear)"/>
<path d="M259.191 295.332L259.011 300.62C258.959 302.173 260.204 303.373 261.791 303.301L264.675 303.173C264.941 305.632 265.488 308.052 266.304 310.387L263.869 311.849C262.467 312.688 261.94 314.427 262.683 315.731L265.228 320.174C265.974 321.476 267.708 321.849 269.109 321.008L271.415 319.618C272.959 321.546 274.726 323.286 276.677 324.8L275.343 327.008C274.51 328.386 274.919 330.073 276.257 330.775L280.809 333.163C282.142 333.863 283.895 333.314 284.725 331.939L286.001 329.82C288.418 330.64 290.92 331.183 293.46 331.437L293.38 333.78C293.327 335.318 294.55 336.496 296.108 336.413L301.412 336.129C302.966 336.046 304.266 334.736 304.323 333.203L304.403 330.867C306.988 330.336 309.509 329.535 311.927 328.478L313.047 330.457C313.774 331.741 315.467 332.106 316.829 331.271L321.465 328.431C322.823 327.599 323.336 325.887 322.612 324.604L321.454 322.555C323.468 320.861 325.307 318.97 326.946 316.91L329.102 318.062C330.402 318.758 332.112 318.223 332.922 316.867L335.679 312.25C336.486 310.896 336.091 309.231 334.795 308.536L332.53 307.318C333.467 304.977 334.156 302.546 334.588 300.063L337.365 299.939C338.111 299.896 338.815 299.579 339.342 299.049C339.869 298.518 340.181 297.812 340.219 297.065L340.396 291.89C340.413 291.537 340.356 291.184 340.228 290.854C340.099 290.524 339.903 290.225 339.651 289.977C339.4 289.728 339.099 289.535 338.767 289.411C338.436 289.286 338.082 289.233 337.729 289.255L334.789 289.378C334.463 287.021 333.878 284.707 333.044 282.478L335.739 280.855C337.087 280.042 337.597 278.341 336.879 277.053L334.429 272.661C333.71 271.367 332.031 270.982 330.68 271.798L327.848 273.498C326.373 271.716 324.706 270.103 322.878 268.687L324.622 265.793C325.435 264.445 325.037 262.774 323.733 262.054L319.279 259.607C317.97 258.887 316.247 259.398 315.43 260.749L313.637 263.714C311.404 262.951 309.096 262.424 306.753 262.145L306.868 258.75C306.921 257.217 305.706 256.015 304.153 256.067L298.853 256.24C297.295 256.291 295.989 257.579 295.936 259.116L295.821 262.521C293.401 262.974 291.032 263.665 288.748 264.582L287.131 261.714C286.394 260.407 284.673 260.008 283.288 260.825L278.56 263.614C277.17 264.433 276.645 266.161 277.385 267.471L278.976 270.274C276.997 271.849 275.174 273.609 273.531 275.532L270.728 274.023C269.385 273.3 267.618 273.824 266.782 275.195L263.926 279.872C263.088 281.244 263.5 282.942 264.845 283.664L267.528 285.1C266.517 287.41 265.747 289.819 265.232 292.288L262.179 292.415C260.574 292.468 259.243 293.78 259.191 295.332ZM278.763 297.659C279.16 286.024 289.065 276.228 300.823 275.782C312.51 275.34 321.614 284.313 321.222 295.821C320.829 307.329 311.087 317.117 299.396 317.687C287.632 318.26 278.367 309.295 278.762 297.659H278.763Z" fill="url(#paint45_linear)"/>
<defs>
<linearGradient id="paint0_linear" x1="188.729" y1="301.284" x2="188.729" y2="324.688" gradientUnits="userSpaceOnUse">
<stop offset="0.49" stop-color="#EBEFF2"/>
<stop offset="1" stop-color="white"/>
</linearGradient>
<linearGradient id="paint1_linear" x1="124.581" y1="131.821" x2="224.071" y2="314.297" gradientUnits="userSpaceOnUse">
<stop stop-color="#444B8C"/>
<stop offset="1" stop-color="#26264F"/>
</linearGradient>
<linearGradient id="paint2_linear" x1="177.637" y1="148.494" x2="195.496" y2="257.348" gradientUnits="userSpaceOnUse">
<stop stop-color="#E38DDD"/>
<stop offset="1" stop-color="#9571F6"/>
</linearGradient>
<linearGradient id="paint3_linear" x1="168.346" y1="180.214" x2="210.222" y2="180.214" gradientUnits="userSpaceOnUse">
<stop stop-color="#FF9085"/>
<stop offset="1" stop-color="#FB6FBB"/>
</linearGradient>
<linearGradient id="paint4_linear" x1="65554" y1="6875.73" x2="81818.6" y2="6875.73" gradientUnits="userSpaceOnUse">
<stop stop-color="#FF9085"/>
<stop offset="1" stop-color="#FB6FBB"/>
</linearGradient>
<linearGradient id="paint5_linear" x1="44587.7" y1="6410.92" x2="52798.4" y2="6410.92" gradientUnits="userSpaceOnUse">
<stop stop-color="#FF9085"/>
<stop offset="1" stop-color="#FB6FBB"/>
</linearGradient>
<linearGradient id="paint6_linear" x1="62668" y1="4724.02" x2="62712.3" y2="7835.83" gradientUnits="userSpaceOnUse">
<stop stop-color="#E38DDD"/>
<stop offset="1" stop-color="#9571F6"/>
</linearGradient>
<linearGradient id="paint7_linear" x1="41865.5" y1="6436.97" x2="50065.5" y2="6436.97" gradientUnits="userSpaceOnUse">
<stop stop-color="#FF9085"/>
<stop offset="1" stop-color="#FB6FBB"/>
</linearGradient>
<linearGradient id="paint8_linear" x1="65554" y1="10787.8" x2="81818.6" y2="10787.8" gradientUnits="userSpaceOnUse">
<stop stop-color="#FF9085"/>
<stop offset="1" stop-color="#FB6FBB"/>
</linearGradient>
<linearGradient id="paint9_linear" x1="65554" y1="11258.7" x2="81818.6" y2="11258.7" gradientUnits="userSpaceOnUse">
<stop stop-color="#FF9085"/>
<stop offset="1" stop-color="#FB6FBB"/>
</linearGradient>
<linearGradient id="paint10_linear" x1="71117.2" y1="11505.3" x2="86550.2" y2="11505.3" gradientUnits="userSpaceOnUse">
<stop stop-color="#FF9085"/>
<stop offset="1" stop-color="#FB6FBB"/>
</linearGradient>
<linearGradient id="paint11_linear" x1="72342.6" y1="7515.32" x2="72405.6" y2="10923.1" gradientUnits="userSpaceOnUse">
<stop stop-color="#E38DDD"/>
<stop offset="1" stop-color="#9571F6"/>
</linearGradient>
<linearGradient id="paint12_linear" x1="41865.5" y1="9255.12" x2="50065.5" y2="9255.12" gradientUnits="userSpaceOnUse">
<stop stop-color="#FF9085"/>
<stop offset="1" stop-color="#FB6FBB"/>
</linearGradient>
<linearGradient id="paint13_linear" x1="63317.2" y1="6310.72" x2="79910" y2="6310.72" gradientUnits="userSpaceOnUse">
<stop stop-color="#FF9085"/>
<stop offset="1" stop-color="#FB6FBB"/>
</linearGradient>
<linearGradient id="paint14_linear" x1="65554" y1="6609.81" x2="81818.6" y2="6609.81" gradientUnits="userSpaceOnUse">
<stop stop-color="#FF9085"/>
<stop offset="1" stop-color="#FB6FBB"/>
</linearGradient>
<linearGradient id="paint15_linear" x1="65554" y1="6983.4" x2="81818.6" y2="6983.4" gradientUnits="userSpaceOnUse">
<stop stop-color="#FF9085"/>
<stop offset="1" stop-color="#FB6FBB"/>
</linearGradient>
<linearGradient id="paint16_linear" x1="37818.3" y1="7191.39" x2="44497.7" y2="7191.39" gradientUnits="userSpaceOnUse">
<stop stop-color="#FF9085"/>
<stop offset="1" stop-color="#FB6FBB"/>
</linearGradient>
<linearGradient id="paint17_linear" x1="61145.2" y1="5326.77" x2="61191.9" y2="8372.36" gradientUnits="userSpaceOnUse">
<stop stop-color="#E38DDD"/>
<stop offset="1" stop-color="#9571F6"/>
</linearGradient>
<linearGradient id="paint18_linear" x1="59273" y1="8431.86" x2="72562.9" y2="8431.86" gradientUnits="userSpaceOnUse">
<stop stop-color="#FF9085"/>
<stop offset="1" stop-color="#FB6FBB"/>
</linearGradient>
<linearGradient id="paint19_linear" x1="61640.2" y1="8758.84" x2="74612.6" y2="8758.84" gradientUnits="userSpaceOnUse">
<stop stop-color="#FF9085"/>
<stop offset="1" stop-color="#FB6FBB"/>
</linearGradient>
<linearGradient id="paint20_linear" x1="61640.2" y1="9152.77" x2="74612.6" y2="9152.77" gradientUnits="userSpaceOnUse">
<stop stop-color="#FF9085"/>
<stop offset="1" stop-color="#FB6FBB"/>
</linearGradient>
<linearGradient id="paint21_linear" x1="43353.4" y1="4658.92" x2="43406.4" y2="7686.1" gradientUnits="userSpaceOnUse">
<stop stop-color="#E38DDD"/>
<stop offset="1" stop-color="#9571F6"/>
</linearGradient>
<linearGradient id="paint22_linear" x1="145.764" y1="126.24" x2="125.836" y2="126.24" gradientUnits="userSpaceOnUse">
<stop stop-color="#FFC444"/>
<stop offset="1" stop-color="#F36F56"/>
</linearGradient>
<linearGradient id="paint23_linear" x1="180.079" y1="163.655" x2="141.437" y2="163.655" gradientUnits="userSpaceOnUse">
<stop stop-color="#AA80F9"/>
<stop offset="1" stop-color="#6165D7"/>
</linearGradient>
<linearGradient id="paint24_linear" x1="3334.28" y1="17146.6" x2="2924.65" y2="19479.5" gradientUnits="userSpaceOnUse">
<stop stop-color="#E38DDD"/>
<stop offset="1" stop-color="#9571F6"/>
</linearGradient>
<linearGradient id="paint25_linear" x1="32310.7" y1="53566.9" x2="44203" y2="53566.9" gradientUnits="userSpaceOnUse">
<stop stop-color="#AA80F9"/>
<stop offset="1" stop-color="#6165D7"/>
</linearGradient>
<linearGradient id="paint26_linear" x1="144.754" y1="215.582" x2="142.242" y2="215.582" gradientUnits="userSpaceOnUse">
<stop stop-color="#311944"/>
<stop offset="1" stop-color="#A03976"/>
</linearGradient>
<linearGradient id="paint27_linear" x1="39894.1" y1="93359.8" x2="61768.4" y2="108158" gradientUnits="userSpaceOnUse">
<stop stop-color="#AA80F9"/>
<stop offset="1" stop-color="#6165D7"/>
</linearGradient>
<linearGradient id="paint28_linear" x1="-154077" y1="35980.6" x2="-133407" y2="64677.8" gradientUnits="userSpaceOnUse">
<stop stop-color="#444B8C"/>
<stop offset="1" stop-color="#26264F"/>
</linearGradient>
<linearGradient id="paint29_linear" x1="-87521.4" y1="72071.8" x2="-68591.4" y2="55608.6" gradientUnits="userSpaceOnUse">
<stop stop-color="#FFC444"/>
<stop offset="1" stop-color="#F36F56"/>
</linearGradient>
<linearGradient id="paint30_linear" x1="69173.5" y1="6224.05" x2="70770.4" y2="6224.05" gradientUnits="userSpaceOnUse">
<stop stop-color="#311944"/>
<stop offset="1" stop-color="#A03976"/>
</linearGradient>
<linearGradient id="paint31_linear" x1="37861.1" y1="9458.42" x2="37841.1" y2="7682.36" gradientUnits="userSpaceOnUse">
<stop stop-color="#311944"/>
<stop offset="1" stop-color="#A03976"/>
</linearGradient>
<linearGradient id="paint32_linear" x1="-83878.2" y1="63911" x2="-67111.6" y2="47882.1" gradientUnits="userSpaceOnUse">
<stop stop-color="#FFC444"/>
<stop offset="1" stop-color="#F36F56"/>
</linearGradient>
<linearGradient id="paint33_linear" x1="-51218.4" y1="7035.09" x2="-40592.4" y2="7035.09" gradientUnits="userSpaceOnUse">
<stop stop-color="#E38DDD"/>
<stop offset="1" stop-color="#9571F6"/>
</linearGradient>
<linearGradient id="paint34_linear" x1="-63505.6" y1="27746.2" x2="-43483.4" y2="27746.2" gradientUnits="userSpaceOnUse">
<stop stop-color="#E38DDD"/>
<stop offset="1" stop-color="#9571F6"/>
</linearGradient>
<linearGradient id="paint35_linear" x1="-101930" y1="24581.6" x2="-105634" y2="31048.6" gradientUnits="userSpaceOnUse">
<stop stop-color="#E38DDD"/>
<stop offset="1" stop-color="#9571F6"/>
</linearGradient>
<linearGradient id="paint36_linear" x1="-48972.3" y1="56861.9" x2="-59942.9" y2="48736.9" gradientUnits="userSpaceOnUse">
<stop stop-color="#FFC444"/>
<stop offset="1" stop-color="#F36F56"/>
</linearGradient>
<linearGradient id="paint37_linear" x1="50684.4" y1="5984.51" x2="51559.7" y2="5984.51" gradientUnits="userSpaceOnUse">
<stop stop-color="#311944"/>
<stop offset="1" stop-color="#A03976"/>
</linearGradient>
<linearGradient id="paint38_linear" x1="254.592" y1="162.488" x2="202.026" y2="169.059" gradientUnits="userSpaceOnUse">
<stop stop-color="#311944"/>
<stop offset="1" stop-color="#893976"/>
</linearGradient>
<linearGradient id="paint39_linear" x1="273107" y1="53581" x2="114875" y2="278990" gradientUnits="userSpaceOnUse">
<stop stop-color="#AA80F9"/>
<stop offset="1" stop-color="#6165D7"/>
</linearGradient>
<linearGradient id="paint40_linear" x1="136149" y1="96747.4" x2="115552" y2="102677" gradientUnits="userSpaceOnUse">
<stop stop-color="#311944"/>
<stop offset="1" stop-color="#893976"/>
</linearGradient>
<linearGradient id="paint41_linear" x1="156475" y1="45384.5" x2="-9638.61" y2="186949" gradientUnits="userSpaceOnUse">
<stop stop-color="#AA80F9"/>
<stop offset="1" stop-color="#6165D7"/>
</linearGradient>
<linearGradient id="paint42_linear" x1="147077" y1="84278.7" x2="98738" y2="126801" gradientUnits="userSpaceOnUse">
<stop stop-color="#FF9085"/>
<stop offset="1" stop-color="#FB6FBB"/>
</linearGradient>
<linearGradient id="paint43_linear" x1="109836" y1="81796.2" x2="64851.7" y2="111779" gradientUnits="userSpaceOnUse">
<stop stop-color="#FF9085"/>
<stop offset="1" stop-color="#FB6FBB"/>
</linearGradient>
<linearGradient id="paint44_linear" x1="292903" y1="279583" x2="219300" y2="214802" gradientUnits="userSpaceOnUse">
<stop stop-color="#FFC444"/>
<stop offset="1" stop-color="#F36F56"/>
</linearGradient>
<linearGradient id="paint45_linear" x1="213683" y1="202003" x2="269771" y2="287415" gradientUnits="userSpaceOnUse">
<stop stop-color="#FFC444"/>
<stop offset="1" stop-color="#F36F56"/>
</linearGradient>
</defs>
</svg>
