<svg width="32" height="32" viewBox="0 0 32 32" fill="none" xmlns="http://www.w3.org/2000/svg">
<path d="M16.0002 5.6089C16.236 5.6089 16.4621 5.51525 16.6288 5.34855C16.7955 5.18185 16.8891 4.95576 16.8891 4.72001V1.69779C16.8891 1.46204 16.7955 1.23595 16.6288 1.06925C16.4621 0.902549 16.236 0.808899 16.0002 0.808899C15.7645 0.808899 15.5384 0.902549 15.3717 1.06925C15.205 1.23595 15.1113 1.46204 15.1113 1.69779V4.72001C15.1113 4.95576 15.205 5.18185 15.3717 5.34855C15.5384 5.51525 15.7645 5.6089 16.0002 5.6089Z" fill="white"/>
<path d="M16.0002 26.3911C15.7645 26.3911 15.5384 26.4848 15.3717 26.6515C15.205 26.8182 15.1113 27.0443 15.1113 27.28V30.3022C15.1113 30.538 15.205 30.7641 15.3717 30.9308C15.5384 31.0975 15.7645 31.1911 16.0002 31.1911C16.236 31.1911 16.4621 31.0975 16.6288 30.9308C16.7955 30.7641 16.8891 30.538 16.8891 30.3022V27.28C16.8891 27.0443 16.7955 26.8182 16.6288 26.6515C16.4621 26.4848 16.236 26.3911 16.0002 26.3911Z" fill="white"/>
<path d="M7.3959 8.65779C7.56119 8.80803 7.77698 8.89054 8.00035 8.8889C8.11733 8.88958 8.2333 8.86715 8.3416 8.82292C8.4499 8.77868 8.5484 8.7135 8.63146 8.63112C8.71477 8.54849 8.7809 8.45018 8.82603 8.34186C8.87115 8.23354 8.89439 8.11735 8.89439 8.00001C8.89439 7.88267 8.87115 7.76648 8.82603 7.65816C8.7809 7.54984 8.71477 7.45153 8.63146 7.3689L6.5159 5.26223C6.34586 5.11661 6.12712 5.04051 5.90341 5.04916C5.6797 5.0578 5.46748 5.15054 5.30918 5.30884C5.15087 5.46715 5.05813 5.67936 5.04949 5.90307C5.04085 6.12679 5.11694 6.34552 5.26257 6.51557L7.3959 8.65779Z" fill="white"/>
<path d="M24.6037 23.3422C24.5208 23.2593 24.4224 23.1936 24.3142 23.1487C24.2059 23.1039 24.0898 23.0808 23.9726 23.0808C23.8554 23.0808 23.7393 23.1039 23.631 23.1487C23.5228 23.1936 23.4244 23.2593 23.3415 23.3422C23.2586 23.4251 23.1929 23.5235 23.148 23.6318C23.1032 23.7401 23.0801 23.8561 23.0801 23.9733C23.0801 24.0905 23.1032 24.2066 23.148 24.3149C23.1929 24.4232 23.2586 24.5216 23.3415 24.6044L25.4837 26.7378C25.566 26.8218 25.6642 26.8886 25.7725 26.9344C25.8809 26.9801 25.9972 27.004 26.1148 27.0044C26.3493 27.0011 26.5729 26.9053 26.737 26.7378C26.9026 26.5712 26.9955 26.3459 26.9955 26.1111C26.9955 25.8763 26.9026 25.651 26.737 25.4844L24.6037 23.3422Z" fill="white"/>
<path d="M5.60859 16C5.60859 15.7643 5.51494 15.5382 5.34824 15.3715C5.18155 15.2048 4.95545 15.1111 4.7197 15.1111H1.69748C1.46173 15.1111 1.23564 15.2048 1.06894 15.3715C0.902244 15.5382 0.808594 15.7643 0.808594 16C0.808594 16.2358 0.902244 16.4618 1.06894 16.6285C1.23564 16.7952 1.46173 16.8889 1.69748 16.8889H4.7197C4.95545 16.8889 5.18155 16.7952 5.34824 16.6285C5.51494 16.4618 5.60859 16.2358 5.60859 16Z" fill="white"/>
<path d="M30.3017 15.1111H27.2795C27.0438 15.1111 26.8177 15.2048 26.651 15.3715C26.4843 15.5382 26.3906 15.7643 26.3906 16C26.3906 16.2358 26.4843 16.4618 26.651 16.6285C26.8177 16.7952 27.0438 16.8889 27.2795 16.8889H30.3017C30.5375 16.8889 30.7636 16.7952 30.9303 16.6285C31.097 16.4618 31.1906 16.2358 31.1906 16C31.1906 15.7643 31.097 15.5382 30.9303 15.3715C30.7636 15.2048 30.5375 15.1111 30.3017 15.1111Z" fill="white"/>
<path d="M7.39627 23.3422L5.26294 25.4844C5.13812 25.6082 5.05281 25.7663 5.0178 25.9386C4.9828 26.1108 4.99966 26.2896 5.06626 26.4523C5.13286 26.615 5.24621 26.7543 5.39197 26.8526C5.53773 26.9509 5.70936 27.0037 5.88516 27.0044C6.00277 27.004 6.11911 26.9801 6.22744 26.9344C6.33578 26.8886 6.43395 26.8218 6.51627 26.7378L8.6585 24.6044C8.82588 24.4371 8.91991 24.21 8.91991 23.9733C8.91991 23.7366 8.82588 23.5096 8.6585 23.3422C8.49112 23.1748 8.2641 23.0808 8.02738 23.0808C7.79067 23.0808 7.56365 23.1748 7.39627 23.3422Z" fill="white"/>
<path d="M23.9995 8.8889C24.1165 8.88957 24.2325 8.86715 24.3408 8.82291C24.4491 8.77868 24.5476 8.7135 24.6306 8.63112L26.764 6.4889C26.9295 6.32235 27.0224 6.09706 27.0224 5.86223C27.0224 5.6274 26.9295 5.40211 26.764 5.23556C26.5974 5.07001 26.3721 4.97708 26.1373 4.97708C25.9025 4.97708 25.6772 5.07001 25.5106 5.23556L23.3684 7.3689C23.2851 7.45153 23.219 7.54984 23.1738 7.65816C23.1287 7.76648 23.1055 7.88266 23.1055 8.00001C23.1055 8.11735 23.1287 8.23353 23.1738 8.34185C23.219 8.45017 23.2851 8.54849 23.3684 8.63112C23.4515 8.7135 23.55 8.77868 23.6583 8.82291C23.7666 8.86715 23.8825 8.88957 23.9995 8.8889Z" fill="white"/>
<path d="M16.1161 6.88889C14.3304 6.86598 12.5783 7.37454 11.0824 8.34992C9.58651 9.32531 8.41442 10.7235 7.71514 12.3667C7.01587 14.0099 6.82098 15.8239 7.15526 17.5781C7.48954 19.3323 8.33788 20.9476 9.59245 22.2185C10.847 23.4893 12.4512 24.3585 14.2009 24.7154C15.9507 25.0723 17.7671 24.9008 19.4192 24.2228C21.0713 23.5448 22.4844 22.3909 23.4791 20.9077C24.4737 19.4246 25.0048 17.6791 25.005 15.8933C25.0168 13.5216 24.0878 11.2419 22.4216 9.55398C20.7553 7.86608 18.4878 6.90769 16.1161 6.88889ZM16.1161 23.1111C14.6817 23.1341 13.273 22.7296 12.0693 21.9492C10.8655 21.1688 9.92131 20.0478 9.35684 18.7289C8.79237 17.4101 8.63318 15.9531 8.89956 14.5435C9.16593 13.1339 9.84582 11.8354 10.8526 10.8135C11.8594 9.79162 13.1476 9.09248 14.5531 8.80515C15.9586 8.51782 17.4178 8.65529 18.7449 9.20007C20.072 9.74485 21.2069 10.6723 22.0051 11.8642C22.8034 13.0562 23.2288 14.4588 23.2272 15.8933C23.2367 17.7921 22.4939 19.6173 21.1613 20.9699C19.8287 22.3225 18.0148 23.0923 16.1161 23.1111Z" fill="white"/>
</svg>
